<svg width="24" height="24" viewBox="0 0 24 24" fill="none" xmlns="http://www.w3.org/2000/svg">
<path d="M4.22814 18.375C4.25213 18.4736 4.29564 18.5664 4.35609 18.6478C4.41654 18.7293 4.49272 18.7979 4.58011 18.8495C4.66751 18.901 4.76435 18.9345 4.86492 18.9481C4.96548 18.9616 5.06774 18.9548 5.16564 18.9281C9.63469 17.6907 14.356 17.6907 18.825 18.9281C18.9229 18.9548 19.0252 18.9616 19.1257 18.9481C19.2263 18.9345 19.3232 18.901 19.4105 18.8495C19.4979 18.7979 19.5741 18.7293 19.6346 18.6478C19.695 18.5664 19.7385 18.4736 19.7625 18.375L22.1531 8.22184C22.186 8.08594 22.1801 7.94357 22.1364 7.8108C22.0926 7.67803 22.0125 7.56015 21.9053 7.47045C21.798 7.38076 21.6678 7.32283 21.5294 7.30319C21.391 7.28356 21.2498 7.30301 21.1219 7.35934L16.3781 9.46872C16.2063 9.5444 16.0124 9.5537 15.8341 9.49483C15.6558 9.43597 15.5056 9.3131 15.4125 9.14997L12.6563 4.18122C12.5914 4.06399 12.4963 3.96628 12.3809 3.89824C12.2655 3.8302 12.134 3.79431 12 3.79431C11.866 3.79431 11.7345 3.8302 11.6191 3.89824C11.5037 3.96628 11.4086 4.06399 11.3438 4.18122L8.58752 9.14997C8.49447 9.3131 8.34427 9.43597 8.16593 9.49483C7.9876 9.5537 7.79377 9.5444 7.62189 9.46872L2.87814 7.35934C2.75019 7.30301 2.60903 7.28356 2.47061 7.30319C2.33218 7.32283 2.20201 7.38076 2.09476 7.47045C1.98752 7.56015 1.90748 7.67803 1.86368 7.8108C1.81988 7.94357 1.81407 8.08594 1.84689 8.22184L4.22814 18.375Z" stroke="#8B8B8B" stroke-width="1.5" stroke-linecap="round" stroke-linejoin="round"/>
</svg>
