<svg width="24" height="24" viewBox="0 0 24 24" fill="none" xmlns="http://www.w3.org/2000/svg">
<path d="M11.5032 2.42816L3.93754 3.93754L2.42816 11.5032C2.40451 11.624 2.41095 11.7487 2.44692 11.8664C2.48289 11.9842 2.54728 12.0912 2.63441 12.1782L12.4219 21.9657C12.4909 22.0362 12.5733 22.0923 12.6642 22.1306C12.7552 22.1689 12.8529 22.1886 12.9516 22.1886C13.0503 22.1886 13.148 22.1689 13.239 22.1306C13.3299 22.0923 13.4123 22.0362 13.4813 21.9657L21.9657 13.4813C22.0362 13.4123 22.0923 13.3299 22.1306 13.239C22.1689 13.148 22.1886 13.0503 22.1886 12.9516C22.1886 12.8529 22.1689 12.7552 22.1306 12.6642C22.0923 12.5733 22.0362 12.4909 21.9657 12.4219L12.1782 2.63441C12.0912 2.54728 11.9842 2.48289 11.8664 2.44692C11.7487 2.41095 11.624 2.40451 11.5032 2.42816Z" stroke="#8B8B8B" stroke-width="1.5" stroke-linecap="round" stroke-linejoin="round"/>
<path d="M7.875 8.8125C8.39277 8.8125 8.8125 8.39277 8.8125 7.875C8.8125 7.35723 8.39277 6.9375 7.875 6.9375C7.35723 6.9375 6.9375 7.35723 6.9375 7.875C6.9375 8.39277 7.35723 8.8125 7.875 8.8125Z" fill="#8B8B8B"/>
</svg>
