<svg width="24" height="24" viewBox="0 0 24 24" fill="none" xmlns="http://www.w3.org/2000/svg">
<path d="M10.5 17.25H3C2.60218 17.25 2.22064 17.092 1.93934 16.8107C1.65804 16.5294 1.5 16.1478 1.5 15.75V9C1.5 8.60218 1.65804 8.22064 1.93934 7.93934C2.22064 7.65804 2.60218 7.5 3 7.5H10.5" stroke="#8B8B8B" stroke-width="1.5" stroke-linecap="round" stroke-linejoin="round"/>
<path d="M10.5 20.25H6" stroke="#8B8B8B" stroke-width="1.5" stroke-linecap="round" stroke-linejoin="round"/>
<path d="M19.5 6.75H16.5" stroke="#8B8B8B" stroke-width="1.5" stroke-linecap="round" stroke-linejoin="round"/>
<path d="M19.5 9.75H16.5" stroke="#8B8B8B" stroke-width="1.5" stroke-linecap="round" stroke-linejoin="round"/>
<path d="M21.75 3.75H14.25C13.8358 3.75 13.5 4.08579 13.5 4.5V19.5C13.5 19.9142 13.8358 20.25 14.25 20.25H21.75C22.1642 20.25 22.5 19.9142 22.5 19.5V4.5C22.5 4.08579 22.1642 3.75 21.75 3.75Z" stroke="#8B8B8B" stroke-width="1.5" stroke-linecap="round" stroke-linejoin="round"/>
<path d="M8.25 17.25V20.25" stroke="#8B8B8B" stroke-width="1.5" stroke-linecap="round" stroke-linejoin="round"/>
<path d="M18 17.8125C18.5178 17.8125 18.9375 17.3928 18.9375 16.875C18.9375 16.3572 18.5178 15.9375 18 15.9375C17.4822 15.9375 17.0625 16.3572 17.0625 16.875C17.0625 17.3928 17.4822 17.8125 18 17.8125Z" fill="#8B8B8B"/>
</svg>
