<svg width="24" height="24" viewBox="0 0 24 24" fill="none" xmlns="http://www.w3.org/2000/svg">
<path d="M12 21.75C17.3848 21.75 21.75 17.3848 21.75 12C21.75 6.61522 17.3848 2.25 12 2.25C6.61522 2.25 2.25 6.61522 2.25 12C2.25 17.3848 6.61522 21.75 12 21.75Z" fill="#626262" fill-opacity="0.5"/>
<path d="M9 11.625C9 12.2463 8.49632 12.75 7.875 12.75C7.25368 12.75 6.75 12.2463 6.75 11.625C6.75 11.0037 7.25368 10.5 7.875 10.5C8.49632 10.5 9 11.0037 9 11.625Z" fill="white"/>
<path d="M13.125 11.625C13.125 12.2463 12.6213 12.75 12 12.75C11.3787 12.75 10.875 12.2463 10.875 11.625C10.875 11.0037 11.3787 10.5 12 10.5C12.6213 10.5 13.125 11.0037 13.125 11.625Z" fill="white"/>
<path d="M17.25 11.625C17.25 12.2463 16.7463 12.75 16.125 12.75C15.5037 12.75 15 12.2463 15 11.625C15 11.0037 15.5037 10.5 16.125 10.5C16.7463 10.5 17.25 11.0037 17.25 11.625Z" fill="white"/>
</svg>
