<svg width="24" height="24" viewBox="0 0 24 24" fill="none" xmlns="http://www.w3.org/2000/svg">
<path d="M2.25 21H21.75" stroke="#8B8B8B" stroke-width="1.5" stroke-linecap="round" stroke-linejoin="round"/>
<path d="M5.25 21V3.75C5.25 3.55109 5.32902 3.36032 5.46967 3.21967C5.61032 3.07902 5.80109 3 6 3H18C18.1989 3 18.3897 3.07902 18.5303 3.21967C18.671 3.36032 18.75 3.55109 18.75 3.75V21" stroke="#8B8B8B" stroke-width="1.5" stroke-linecap="round" stroke-linejoin="round"/>
<path d="M14.625 12.9375C15.1428 12.9375 15.5625 12.5178 15.5625 12C15.5625 11.4822 15.1428 11.0625 14.625 11.0625C14.1072 11.0625 13.6875 11.4822 13.6875 12C13.6875 12.5178 14.1072 12.9375 14.625 12.9375Z" fill="#8B8B8B"/>
</svg>
