<svg width="24" height="24" viewBox="0 0 24 24" fill="none" xmlns="http://www.w3.org/2000/svg">
<path d="M22.425 9.13125C22.3312 8.83592 22.1502 8.57585 21.906 8.38513C21.6617 8.19441 21.3656 8.08195 21.0563 8.0625L15.4875 7.67813L13.425 2.475C13.3124 2.1885 13.1164 1.94241 12.8623 1.76858C12.6083 1.59475 12.3079 1.50118 12 1.5C11.6922 1.50118 11.3918 1.59475 11.1377 1.76858C10.8837 1.94241 10.6877 2.1885 10.575 2.475L8.47503 7.70625L2.94378 8.0625C2.63488 8.08321 2.3393 8.19614 2.09528 8.38668C1.85126 8.57722 1.67003 8.83659 1.57503 9.13125C1.47748 9.43043 1.47178 9.75197 1.55867 10.0544C1.64556 10.3569 1.82106 10.6263 2.06253 10.8281L6.31878 14.4281L5.05316 19.4062C4.96559 19.743 4.98135 20.0983 5.09839 20.426C5.21542 20.7537 5.42832 21.0386 5.70941 21.2438C5.98225 21.4396 6.30732 21.5495 6.64301 21.5596C6.9787 21.5696 7.30975 21.4792 7.59378 21.3L11.9907 18.5156H12.0094L16.7438 21.5062C16.9866 21.6641 17.2698 21.7487 17.5594 21.75C17.7959 21.7481 18.0288 21.6921 18.2402 21.5861C18.4517 21.4802 18.636 21.3272 18.779 21.1389C18.9221 20.9505 19.0201 20.7319 19.0654 20.4998C19.1108 20.2677 19.1023 20.0283 19.0407 19.8L17.7 14.3531L21.9375 10.8281C22.179 10.6263 22.3545 10.3569 22.4414 10.0544C22.5283 9.75197 22.5226 9.43043 22.425 9.13125Z" fill="#8B8B8B"/>
</svg>
