<svg width="24" height="24" viewBox="0 0 24 24" fill="none" xmlns="http://www.w3.org/2000/svg">
<path d="M21.5813 15.2812C21.6693 15.3913 21.7247 15.5239 21.7408 15.6639C21.757 15.8039 21.7334 15.9457 21.6727 16.0729C21.6121 16.2001 21.5168 16.3076 21.3978 16.3832C21.2788 16.4587 21.1409 16.4992 21 16.5H4.5V20.25C4.5 20.4489 4.42098 20.6397 4.28033 20.7803C4.13968 20.921 3.94891 21 3.75 21C3.55109 21 3.36032 20.921 3.21967 20.7803C3.07902 20.6397 3 20.4489 3 20.25V4.5C3 4.30109 3.07902 4.11032 3.21967 3.96967C3.36032 3.82902 3.55109 3.75 3.75 3.75H21C21.1409 3.75079 21.2788 3.79128 21.3978 3.86683C21.5168 3.94237 21.6121 4.04992 21.6727 4.17713C21.7334 4.30435 21.757 4.44609 21.7408 4.5861C21.7247 4.72611 21.6693 4.85873 21.5813 4.96875L17.4563 10.125L21.5813 15.2812Z" fill="#8B8B8B"/>
</svg>
