<svg width="24" height="24" viewBox="0 0 24 24" fill="none" xmlns="http://www.w3.org/2000/svg">
<path d="M15.825 17.6904L16.1906 19.9029" stroke="#2F2FBA" stroke-width="1.5" stroke-linecap="round" stroke-linejoin="round"/>
<path d="M12 18V21" stroke="#2F2FBA" stroke-width="1.5" stroke-linecap="round" stroke-linejoin="round"/>
<path d="M8.17498 17.6904L7.80936 19.9029" stroke="#2F2FBA" stroke-width="1.5" stroke-linecap="round" stroke-linejoin="round"/>
<path d="M16.5938 6.4502C20.0906 7.18145 22.5 8.71894 22.5 10.5002C22.5 12.9846 17.8031 15.0002 12 15.0002C6.19687 15.0002 1.5 12.9846 1.5 10.5002C1.5 8.71894 3.92813 7.17207 7.44375 6.4502" stroke="#2F2FBA" stroke-width="1.5" stroke-linecap="round" stroke-linejoin="round"/>
<path d="M6.75001 9.36604C6.74851 9.70464 6.86306 10.0335 7.07459 10.2979C7.28611 10.5623 7.58184 10.7463 7.91251 10.8192C9.254 11.119 10.6255 11.2637 12 11.2504C13.3745 11.2637 14.746 11.119 16.0875 10.8192C16.4182 10.7463 16.7139 10.5623 16.9254 10.2979C17.137 10.0335 17.2515 9.70464 17.25 9.36604V9.00041C17.2501 8.30541 17.1121 7.61732 16.8442 6.97605C16.5763 6.33477 16.1837 5.75308 15.6892 5.2647C15.1947 4.77633 14.6082 4.39099 13.9636 4.13105C13.3191 3.8711 12.6293 3.74172 11.9344 3.75041C9.04689 3.78791 6.75001 6.19729 6.75001 9.07541V9.36604Z" stroke="#2F2FBA" stroke-width="1.5" stroke-linecap="round" stroke-linejoin="round"/>
</svg>
