<svg width="24" height="24" viewBox="0 0 24 24" fill="none" xmlns="http://www.w3.org/2000/svg">
<path d="M22.425 9.1313C22.3312 8.83597 22.1502 8.5759 21.906 8.38518C21.6617 8.19446 21.3656 8.08201 21.0563 8.06255L15.525 7.7063C15.5169 7.70532 15.5091 7.7022 15.5025 7.69726C15.4959 7.69233 15.4908 7.68574 15.4875 7.67818L13.425 2.47505C13.3137 2.18758 13.118 1.94049 12.8637 1.76626C12.6094 1.59202 12.3083 1.49878 12 1.49878C11.6918 1.49878 11.3907 1.59202 11.1364 1.76626C10.882 1.94049 10.6864 2.18758 10.575 2.47505L8.51253 7.67818C8.5093 7.68574 8.50413 7.69233 8.49755 7.69726C8.49097 7.7022 8.4832 7.70532 8.47503 7.7063L2.94378 8.06255C2.63451 8.08201 2.33832 8.19446 2.09407 8.38518C1.84982 8.5759 1.6689 8.83597 1.57503 9.1313C1.47748 9.43048 1.47178 9.75202 1.55867 10.0545C1.64556 10.3569 1.82106 10.6264 2.06253 10.8282L6.30003 14.3532C6.30967 14.3628 6.31651 14.3749 6.31982 14.3881C6.32312 14.4013 6.32276 14.4152 6.31878 14.4282L5.05316 19.4063C4.9669 19.7431 4.98329 20.098 5.10022 20.4254C5.21716 20.7529 5.4293 21.0378 5.70941 21.2438C5.98225 21.4396 6.30732 21.5496 6.64301 21.5596C6.9787 21.5696 7.30975 21.4793 7.59378 21.3001L11.9907 18.5157H12.0094L16.7438 21.5063C16.9866 21.6641 17.2698 21.7487 17.5594 21.7501C17.8789 21.7458 18.1895 21.6444 18.45 21.4594C18.7046 21.2749 18.8973 21.0175 19.0027 20.7213C19.1081 20.4251 19.1214 20.1039 19.0407 19.8001L17.6813 14.4282C17.6773 14.4152 17.6769 14.4013 17.6803 14.3881C17.6836 14.3749 17.6904 14.3628 17.7 14.3532L21.9375 10.8282C22.179 10.6264 22.3545 10.3569 22.4414 10.0545C22.5283 9.75202 22.5226 9.43048 22.425 9.1313ZM20.9813 9.67505L16.7344 13.2001C16.5089 13.3914 16.3418 13.6423 16.2523 13.9242C16.1628 14.206 16.1544 14.5074 16.2282 14.7938L17.5875 20.1657C17.5969 20.2032 17.5969 20.2126 17.5875 20.2219C17.5813 20.234 17.5715 20.2438 17.5594 20.2501H17.5407L12.8157 17.2501C12.572 17.095 12.2888 17.0137 12 17.0157V3.00005C12.0094 3.00005 12.0188 3.00005 12.0282 3.02818L14.1 8.2313C14.2056 8.50217 14.3859 8.73754 14.6199 8.91012C14.8538 9.08269 15.1319 9.18539 15.4219 9.2063L20.9625 9.56255C20.9719 9.56255 20.9813 9.56255 20.9907 9.60005C21 9.63755 20.9907 9.66568 20.9813 9.67505Z" fill="#8B8B8B"/>
</svg>
