<svg width="25" height="24" viewBox="0 0 25 24" fill="none" xmlns="http://www.w3.org/2000/svg">
<path d="M20.65 20.25V10.8281C20.6483 10.7243 20.6259 10.6219 20.584 10.5269C20.5422 10.4319 20.4817 10.3462 20.4063 10.275L12.9063 3.45933C12.768 3.33284 12.5874 3.2627 12.4 3.2627C12.2126 3.2627 12.032 3.33284 11.8938 3.45933L4.39375 10.275C4.31652 10.3448 4.25488 10.4302 4.21288 10.5255C4.17088 10.6208 4.14946 10.7239 4.15 10.8281V20.25" stroke="#2F2FBA" stroke-width="1.5" stroke-linecap="round" stroke-linejoin="round"/>
<path d="M1.89999 20.25H22.9" stroke="#2F2FBA" stroke-width="1.5" stroke-linecap="round" stroke-linejoin="round"/>
<path d="M14.65 20.25V15C14.65 14.8011 14.571 14.6103 14.4303 14.4697C14.2897 14.329 14.0989 14.25 13.9 14.25H10.9C10.7011 14.25 10.5103 14.329 10.3697 14.4697C10.229 14.6103 10.15 14.8011 10.15 15V20.25" stroke="#2F2FBA" stroke-width="1.5" stroke-linecap="round" stroke-linejoin="round"/>
</svg>
