<svg width="24" height="24" viewBox="0 0 24 24" fill="none" xmlns="http://www.w3.org/2000/svg">
<path d="M8.25 21.75H15.75" stroke="#8B8B8B" stroke-width="1.5" stroke-linecap="round" stroke-linejoin="round"/>
<path d="M7.37808 15.6563C6.4852 14.962 5.76204 14.0736 5.26338 13.0585C4.76473 12.0433 4.50366 10.9279 4.49996 9.79691C4.48121 5.72816 7.75308 2.34378 11.8218 2.25003C13.3965 2.2127 14.943 2.6721 16.2419 3.56306C17.5408 4.45403 18.5263 5.73133 19.0585 7.21383C19.5907 8.69632 19.6426 10.3087 19.207 11.8224C18.7713 13.3361 17.8701 14.6742 16.6312 15.6469C16.3575 15.8584 16.1359 16.1298 15.9831 16.4401C15.8304 16.7505 15.7506 17.0916 15.75 17.4375V18C15.75 18.1989 15.6709 18.3897 15.5303 18.5304C15.3896 18.671 15.1989 18.75 15 18.75H8.99996C8.80105 18.75 8.61028 18.671 8.46963 18.5304C8.32898 18.3897 8.24996 18.1989 8.24996 18V17.4375C8.24761 17.0942 8.16802 16.7559 8.01709 16.4475C7.86616 16.1392 7.64776 15.8687 7.37808 15.6563Z" stroke="#8B8B8B" stroke-width="1.5" stroke-linecap="round" stroke-linejoin="round"/>
<path d="M12.7594 5.32495C13.6761 5.48034 14.5219 5.91642 15.1802 6.57301C15.8384 7.2296 16.2767 8.07431 16.4344 8.99058" stroke="#8B8B8B" stroke-width="1.5" stroke-linecap="round" stroke-linejoin="round"/>
</svg>
