<svg width="24" height="24" viewBox="0 0 24 24" fill="none" xmlns="http://www.w3.org/2000/svg">
<path d="M12 14.25C12.6213 14.25 13.125 13.7463 13.125 13.125C13.125 12.5037 12.6213 12 12 12C11.3787 12 10.875 12.5037 10.875 13.125C10.875 13.7463 11.3787 14.25 12 14.25Z" fill="#8B8B8B"/>
<path d="M19.5 7.5H16.125V4.875C16.125 3.78098 15.6904 2.73177 14.9168 1.95818C14.1432 1.1846 13.094 0.75 12 0.75C10.906 0.75 9.85677 1.1846 9.08318 1.95818C8.3096 2.73177 7.875 3.78098 7.875 4.875V7.5H4.5C4.10218 7.5 3.72064 7.65804 3.43934 7.93934C3.15804 8.22064 3 8.60218 3 9V19.5C3 19.8978 3.15804 20.2794 3.43934 20.5607C3.72064 20.842 4.10218 21 4.5 21H19.5C19.8978 21 20.2794 20.842 20.5607 20.5607C20.842 20.2794 21 19.8978 21 19.5V9C21 8.60218 20.842 8.22064 20.5607 7.93934C20.2794 7.65804 19.8978 7.5 19.5 7.5ZM12.75 15.6375V17.25C12.75 17.4489 12.671 17.6397 12.5303 17.7803C12.3897 17.921 12.1989 18 12 18C11.8011 18 11.6103 17.921 11.4697 17.7803C11.329 17.6397 11.25 17.4489 11.25 17.25V15.6375C10.6458 15.4573 10.1265 15.0657 9.7873 14.5342C9.44806 14.0027 9.31147 13.3669 9.4025 12.743C9.49353 12.119 9.8061 11.5487 10.2831 11.1363C10.76 10.7239 11.3695 10.4969 12 10.4969C12.6305 10.4969 13.24 10.7239 13.7169 11.1363C14.1939 11.5487 14.5065 12.119 14.5975 12.743C14.6885 13.3669 14.5519 14.0027 14.2127 14.5342C13.8735 15.0657 13.3542 15.4573 12.75 15.6375ZM14.625 7.5H9.375V4.875C9.375 4.17881 9.65156 3.51113 10.1438 3.01884C10.6361 2.52656 11.3038 2.25 12 2.25C12.6962 2.25 13.3639 2.52656 13.8562 3.01884C14.3484 3.51113 14.625 4.17881 14.625 4.875V7.5Z" fill="#8B8B8B"/>
</svg>
