<svg width="9" height="20" viewBox="0 0 9 20" fill="none" xmlns="http://www.w3.org/2000/svg">
<path d="M8.52171 2.85513C8.18385 2.30467 7.74627 1.87116 7.19064 1.59492C6.63501 1.30053 5.99796 1.16141 5.28358 1.16141C4.7076 1.16141 4.14993 1.26021 3.67368 1.47596C3.57395 1.18157 3.4152 0.943644 3.19742 0.727896C2.70081 0.256074 1.96608 0 0.95251 0C0.734735 0 0.555631 0.0201633 0.396879 0.0383103C0.238128 0.0584736 0.0997286 0.078637 0 0.096784V1.94979C0.0793758 1.92963 0.158752 1.90947 0.238128 1.90947H0.476255C0.734735 1.90947 0.95251 1.94979 1.09294 2.00827C1.2517 2.0869 1.37178 2.20587 1.45115 2.3833C1.53053 2.54058 1.58955 2.75834 1.58955 3.0124V10.0393C1.58955 10.8075 1.7483 11.477 2.06581 12.0274C2.40366 12.5779 2.84125 12.9912 3.39688 13.2876C3.95251 13.582 4.58955 13.7211 5.30393 13.7211C6.01832 13.7211 6.61465 13.584 7.19267 13.2876C7.7483 12.9932 8.18589 12.5779 8.52374 12.0274C8.84125 11.477 9 10.8075 9 10.0393V4.86138C9 4.07501 8.84125 3.40559 8.52374 2.85311L8.52171 2.85513ZM6.61465 10.2168C6.61465 10.5111 6.55563 10.7874 6.4559 11.0031C6.35617 11.239 6.19742 11.4165 5.99796 11.5354C5.79851 11.6725 5.56038 11.733 5.28155 11.733C5.00271 11.733 4.76459 11.6746 4.56716 11.5354C4.38806 11.4165 4.24966 11.2411 4.14993 11.0031C4.0502 10.7874 3.99118 10.5111 3.99118 10.2168V4.7041C3.99118 4.38956 4.0502 4.11332 4.14993 3.89757C4.24966 3.66166 4.38806 3.48422 4.56716 3.34711C4.76662 3.22815 5.00475 3.14951 5.28155 3.14951C5.5787 3.14951 5.79851 3.22815 5.99796 3.34711C6.19742 3.48422 6.35617 3.66166 6.4559 3.87942C6.55563 4.11533 6.61465 4.39157 6.61465 4.70612V10.2188V10.2168Z" fill="#8B8B8B"/>
<path d="M8.98983 13.2675V16.3182C8.98983 17.1066 8.83107 17.7558 8.51357 18.3063C8.19607 18.8568 7.73813 19.2701 7.1825 19.5665C6.62687 19.8609 5.98983 20 5.31411 20C4.57938 20 3.94234 19.8629 3.38671 19.5665C2.83107 19.2721 2.39349 18.8568 2.07599 18.3063C1.75848 17.7558 1.59973 17.1046 1.59973 16.3182V13.2473C1.95794 13.7796 2.4342 14.193 3.01018 14.5075C3.24831 14.6265 3.48643 14.7051 3.74491 14.8019C3.82429 14.8221 3.90367 14.8422 4.00339 14.8604V16.4936C4.00339 16.788 4.04207 17.0642 4.14179 17.28C4.24152 17.5159 4.37992 17.6933 4.57938 17.8304C4.75848 17.9494 4.99661 18.0079 5.29376 18.0079C5.57259 18.0079 5.79037 17.9494 5.98983 17.8304C6.18928 17.6933 6.34803 17.5159 6.44776 17.28C6.56784 17.0642 6.60652 16.788 6.60652 16.4936V14.8402C6.70624 14.8402 6.78562 14.7999 6.88535 14.7817C7.12348 14.7031 7.3616 14.6245 7.58141 14.5055C8.1574 14.191 8.61533 13.7978 8.99186 13.2655L8.98983 13.2675Z" fill="#8B8B8B"/>
</svg>
