<svg width="24" height="24" viewBox="0 0 24 24" fill="none" xmlns="http://www.w3.org/2000/svg">
<path d="M14.7042 7.32275H9.29608V17.0512H14.7042V7.32275Z" fill="#FF5F00"/>
<path d="M9.6395 12.187C9.63865 11.2501 9.85074 10.3253 10.2597 9.48253C10.6687 8.63979 11.2639 7.90124 12.0002 7.32279C11.0884 6.60538 9.99336 6.15923 8.84026 6.03534C7.68716 5.91145 6.5225 6.11481 5.4794 6.62219C4.4363 7.12957 3.55685 7.9205 2.94157 8.90456C2.32628 9.88862 2 11.0261 2 12.187C2 13.348 2.32628 14.4854 2.94157 15.4695C3.55685 16.4536 4.4363 17.2445 5.4794 17.7519C6.5225 18.2593 7.68716 18.4626 8.84026 18.3387C9.99336 18.2148 11.0884 17.7687 12.0002 17.0513C11.2639 16.4728 10.6687 15.7343 10.2597 14.8915C9.85075 14.0488 9.63865 13.124 9.6395 12.187Z" fill="#EB001B"/>
<path d="M22 12.187C22.0001 13.3479 21.6738 14.4854 21.0586 15.4695C20.4433 16.4536 19.5639 17.2445 18.5208 17.7519C17.4777 18.2593 16.3131 18.4626 15.16 18.3387C14.0069 18.2148 12.9119 17.7687 12.0002 17.0513C12.7358 16.4722 13.3305 15.7336 13.7394 14.891C14.1484 14.0484 14.3608 13.1238 14.3608 12.187C14.3608 11.2503 14.1484 10.3257 13.7394 9.4831C13.3305 8.64049 12.7358 7.90183 12.0002 7.32279C12.9119 6.60537 14.0069 6.15922 15.16 6.03533C16.3131 5.91145 17.4777 6.11482 18.5208 6.6222C19.5639 7.12959 20.4433 7.92051 21.0586 8.90458C21.6738 9.88864 22.0001 11.0261 22 12.187Z" fill="#F79E1B"/>
<path d="M21.4104 16.0209V15.8217H21.4906V15.7812H21.2863V15.8217H21.3665V16.0209H21.4104ZM21.807 16.0209V15.7808H21.7444L21.6724 15.9459L21.6003 15.7808H21.5376V16.0209H21.5819V15.8398L21.6494 15.9959H21.6953L21.7628 15.8394V16.0209H21.807Z" fill="#F79E1B"/>
</svg>
