<svg width="8" height="16" viewBox="0 0 8 16" fill="none" xmlns="http://www.w3.org/2000/svg">
<path d="M6.75391 2.2841C6.48614 1.84373 6.13933 1.49693 5.69896 1.27594C5.25859 1.04043 4.7537 0.929126 4.18752 0.929126C3.73102 0.929126 3.28904 1.00817 2.91158 1.18076C2.83254 0.945257 2.70672 0.754915 2.53413 0.582317C2.14054 0.204859 1.55822 0 0.754915 0C0.582317 0 0.440367 0.0161307 0.314548 0.0306483C0.188729 0.0467789 0.0790402 0.0629096 0 0.0774272V1.55983C0.0629096 1.5437 0.125819 1.52757 0.188729 1.52757H0.377457C0.582317 1.52757 0.754915 1.55983 0.866216 1.60661C0.992035 1.66952 1.08721 1.76469 1.15012 1.90664C1.21303 2.03246 1.2598 2.20667 1.2598 2.40992V8.03146C1.2598 8.64603 1.38562 9.18157 1.63726 9.62194C1.90503 10.0623 2.25184 10.393 2.69221 10.6301C3.13257 10.8656 3.63746 10.9769 4.20365 10.9769C4.76983 10.9769 5.24246 10.8672 5.70057 10.6301C6.14094 10.3946 6.48775 10.0623 6.75552 9.62194C7.00716 9.18157 7.13298 8.64603 7.13298 8.03146V3.8891C7.13298 3.26001 7.00716 2.72447 6.75552 2.28249L6.75391 2.2841ZM5.24246 8.1734C5.24246 8.40891 5.19568 8.6299 5.11664 8.8025C5.0376 8.99123 4.91178 9.13318 4.7537 9.22835C4.59562 9.33804 4.4069 9.38643 4.1859 9.38643C3.96492 9.38643 3.77619 9.33965 3.61972 9.22835C3.47777 9.13318 3.36808 8.99284 3.28904 8.8025C3.21 8.6299 3.16322 8.40891 3.16322 8.1734V3.76328C3.16322 3.51164 3.21 3.29065 3.28904 3.11806C3.36808 2.92933 3.47777 2.78738 3.61972 2.67769C3.7778 2.58252 3.96653 2.51961 4.1859 2.51961C4.42141 2.51961 4.59562 2.58252 4.7537 2.67769C4.91178 2.78738 5.0376 2.92933 5.11664 3.10354C5.19568 3.29227 5.24246 3.51326 5.24246 3.7649V8.17502V8.1734Z" fill="#13134A"/>
<path d="M7.12486 10.614V13.0545C7.12486 13.6852 6.99904 14.2047 6.74741 14.645C6.49577 15.0854 6.13283 15.4161 5.69246 15.6532C5.25209 15.8887 4.74721 16 4.21167 16C3.62935 16 3.12446 15.8903 2.68409 15.6532C2.24373 15.4177 1.89692 15.0854 1.64528 14.645C1.39364 14.2047 1.26782 13.6836 1.26782 13.0545V10.5978C1.55172 11.0237 1.92918 11.3544 2.38568 11.606C2.57441 11.7012 2.76313 11.7641 2.96799 11.8415C3.0309 11.8576 3.09381 11.8738 3.17285 11.8883V13.1949C3.17285 13.4304 3.2035 13.6514 3.28254 13.824C3.36158 14.0127 3.47127 14.1546 3.62935 14.2643C3.7713 14.3595 3.96003 14.4063 4.19554 14.4063C4.41653 14.4063 4.58912 14.3595 4.74721 14.2643C4.90529 14.1546 5.0311 14.0127 5.11014 13.824C5.20532 13.6514 5.23596 13.4304 5.23596 13.1949V11.8722C5.315 11.8722 5.37791 11.8399 5.45695 11.8254C5.64568 11.7625 5.83441 11.6996 6.00862 11.6044C6.46512 11.3528 6.82806 11.0382 7.12648 10.6124L7.12486 10.614Z" fill="#13134A"/>
</svg>
