<svg width="24" height="24" viewBox="0 0 24 24" fill="none" xmlns="http://www.w3.org/2000/svg">
<path d="M8.87817 2.5406C10.0865 2.12424 11.4101 2.19906 12.5638 2.74895C13.7175 3.29884 14.6091 4.27982 15.0467 5.48065C15.4843 6.68149 15.4328 8.00613 14.9033 9.16936C14.3738 10.3326 13.4086 11.2413 12.2157 11.7L8.87817 2.5406Z" stroke="#8B8B8B" stroke-width="1.5" stroke-linecap="round" stroke-linejoin="round"/>
<path d="M2.5406 13.6218C2.12424 12.4135 2.19906 11.09 2.74895 9.93622C3.29884 8.7825 4.27982 7.89086 5.48065 7.4533C6.68149 7.01573 8.00613 7.06725 9.16936 7.59675C10.3326 8.12625 11.2413 9.09138 11.7 10.2843L2.5406 13.6218Z" stroke="#8B8B8B" stroke-width="1.5" stroke-linecap="round" stroke-linejoin="round"/>
<path d="M13.6219 19.9594C12.4135 20.3758 11.09 20.301 9.93628 19.7511C8.78256 19.2012 7.89092 18.2202 7.45336 17.0194C7.0158 15.8185 7.06731 14.4939 7.59681 13.3307C8.12631 12.1674 9.09144 11.2587 10.2844 10.8L13.6219 19.9594Z" stroke="#8B8B8B" stroke-width="1.5" stroke-linecap="round" stroke-linejoin="round"/>
<path d="M19.9594 8.87817C20.3758 10.0865 20.301 11.4101 19.7511 12.5638C19.2012 13.7175 18.2202 14.6091 17.0194 15.0467C15.8185 15.4843 14.4939 15.4328 13.3307 14.9033C12.1674 14.3738 11.2587 13.4086 10.8 12.2157L19.9594 8.87817Z" stroke="#8B8B8B" stroke-width="1.5" stroke-linecap="round" stroke-linejoin="round"/>
<path d="M15.4219 15.4219L21 21" stroke="#8B8B8B" stroke-width="1.5" stroke-linecap="round" stroke-linejoin="round"/>
</svg>
