<svg width="24" height="24" viewBox="0 0 24 24" fill="none" xmlns="http://www.w3.org/2000/svg">
<path d="M19.875 12.375L14.4938 17.7562C14.2159 18.0352 13.8857 18.2565 13.5221 18.4075C13.1585 18.5585 12.7687 18.6363 12.375 18.6363C11.9813 18.6363 11.5915 18.5585 11.2279 18.4075C10.8643 18.2565 10.5341 18.0352 10.2563 17.7562L6.24377 13.7438C5.96485 13.4659 5.74353 13.1357 5.59252 12.7721C5.44151 12.4085 5.36377 12.0187 5.36377 11.625C5.36377 11.2313 5.44151 10.8415 5.59252 10.4779C5.74353 10.1143 5.96485 9.7841 6.24377 9.50625L11.625 4.125" stroke="#8B8B8B" stroke-width="1.5" stroke-linecap="round" stroke-linejoin="round"/>
<path d="M8.25 15.75L3 21" stroke="#8B8B8B" stroke-width="1.5" stroke-linecap="round" stroke-linejoin="round"/>
<path d="M13.5 6L17.25 2.25" stroke="#8B8B8B" stroke-width="1.5" stroke-linecap="round" stroke-linejoin="round"/>
<path d="M21.75 6.75L18 10.5" stroke="#8B8B8B" stroke-width="1.5" stroke-linecap="round" stroke-linejoin="round"/>
<path d="M21 13.5L10.5 3" stroke="#8B8B8B" stroke-width="1.5" stroke-linecap="round" stroke-linejoin="round"/>
</svg>
