<svg width="24" height="24" viewBox="0 0 24 24" fill="none" xmlns="http://www.w3.org/2000/svg">
<path d="M19.875 12C20.9105 12 21.75 11.1605 21.75 10.125C21.75 9.08947 20.9105 8.25 19.875 8.25C18.8395 8.25 18 9.08947 18 10.125C18 11.1605 18.8395 12 19.875 12Z" stroke="#8B8B8B" stroke-width="1.5" stroke-linecap="round" stroke-linejoin="round"/>
<path d="M4.125 12C5.16053 12 6 11.1605 6 10.125C6 9.08947 5.16053 8.25 4.125 8.25C3.08947 8.25 2.25 9.08947 2.25 10.125C2.25 11.1605 3.08947 12 4.125 12Z" stroke="#8B8B8B" stroke-width="1.5" stroke-linecap="round" stroke-linejoin="round"/>
<path d="M8.625 7.5C9.66053 7.5 10.5 6.66053 10.5 5.625C10.5 4.58947 9.66053 3.75 8.625 3.75C7.58947 3.75 6.75 4.58947 6.75 5.625C6.75 6.66053 7.58947 7.5 8.625 7.5Z" stroke="#8B8B8B" stroke-width="1.5" stroke-linecap="round" stroke-linejoin="round"/>
<path d="M15.375 7.5C16.4105 7.5 17.25 6.66053 17.25 5.625C17.25 4.58947 16.4105 3.75 15.375 3.75C14.3395 3.75 13.5 4.58947 13.5 5.625C13.5 6.66053 14.3395 7.5 15.375 7.5Z" stroke="#8B8B8B" stroke-width="1.5" stroke-linecap="round" stroke-linejoin="round"/>
<path d="M17.175 14.6156C16.2352 14.0892 15.5412 13.2133 15.2437 12.1781C15.0414 11.474 14.6156 10.8549 14.0304 10.4142C13.4452 9.97346 12.7326 9.73511 12 9.73511C11.2674 9.73511 10.5548 9.97346 9.9696 10.4142C9.38444 10.8549 8.95855 11.474 8.75624 12.1781C8.45879 13.2133 7.76475 14.0892 6.82499 14.6156C6.24026 14.9341 5.77814 15.4382 5.51142 16.0483C5.24471 16.6584 5.18856 17.34 5.35183 17.9855C5.5151 18.6311 5.8885 19.204 6.41321 19.6139C6.93792 20.0239 7.58412 20.2477 8.24999 20.2499C8.65229 20.2502 9.05062 20.1705 9.42187 20.0156C10.2392 19.6767 11.1152 19.5023 12 19.5023C12.8848 19.5023 13.7608 19.6767 14.5781 20.0156C14.9494 20.1705 15.3477 20.2502 15.75 20.2499C16.4159 20.2477 17.0621 20.0239 17.5868 19.6139C18.1115 19.204 18.4849 18.6311 18.6482 17.9855C18.8114 17.34 18.7553 16.6584 18.4886 16.0483C18.2218 15.4382 17.7597 14.9341 17.175 14.6156Z" stroke="#8B8B8B" stroke-width="1.5" stroke-linecap="round" stroke-linejoin="round"/>
</svg>
