<svg width="24" height="24" viewBox="0 0 24 24" fill="none" xmlns="http://www.w3.org/2000/svg">
<path d="M8.7375 11.5125C8.41238 10.7149 8.24676 9.86131 8.25 9C8.25 7.66498 8.64588 6.35994 9.38758 5.2499C10.1293 4.13987 11.1835 3.27471 12.4169 2.76382C13.6503 2.25292 15.0075 2.11925 16.3169 2.3797C17.6262 2.64015 18.829 3.28303 19.773 4.22703C20.717 5.17104 21.3599 6.37377 21.6203 7.68314C21.8808 8.99252 21.7471 10.3497 21.2362 11.5831C20.7253 12.8165 19.8601 13.8707 18.7501 14.6124C17.6401 15.3541 16.335 15.75 15 15.75C14.1387 15.7532 13.2851 15.5876 12.4875 15.2625L11.25 16.5H9V18.75H6.75V21H3V17.25L8.7375 11.5125Z" stroke="#8B8B8B" stroke-width="1.5" stroke-linecap="round" stroke-linejoin="round"/>
<path d="M16.875 8.0625C17.3928 8.0625 17.8125 7.64277 17.8125 7.125C17.8125 6.60723 17.3928 6.1875 16.875 6.1875C16.3572 6.1875 15.9375 6.60723 15.9375 7.125C15.9375 7.64277 16.3572 8.0625 16.875 8.0625Z" fill="#8B8B8B"/>
</svg>
