<svg width="147" height="83" viewBox="0 0 147 83" fill="none" xmlns="http://www.w3.org/2000/svg">
<g clip-path="url(#clip0_245_113719)">
<path d="M147 83H0C1.61075 78.9117 4.58529 75.4435 8.77854 74.4142C14.9125 72.9111 21.4041 77.0438 27.5248 75.4903C31.002 74.6083 33.7396 72.0381 36.6161 69.9037C47.4682 61.8506 62.3399 59.4705 75.1813 63.733C81.8936 65.96 88.0103 69.8543 94.8865 71.5106C103.778 73.6522 113.077 71.8762 122.22 71.5837C131.125 71.2983 143.884 74.9098 147 83Z" fill="#C4C4EB"/>
<path d="M128.794 62.4219C128.085 64.5592 125.639 66.4585 126.369 68.0302C126.647 68.6277 126.926 69.2525 127.055 69.8909C127.138 70.2714 127.152 70.6638 127.096 71.0493C126.832 72.7137 125.267 73.8192 123.812 74.6802C123.722 74.733 123.632 74.7871 123.541 74.8411C122.162 75.6634 120.718 76.6102 120.275 78.128C120.029 78.9712 120.137 79.8727 120.036 80.7448C119.939 81.5461 119.666 82.3162 119.235 83H109.942C109.117 82.095 109.186 80.5739 109.814 79.5069C110.486 78.365 111.621 77.589 112.646 76.7446C113.53 76.015 114.393 75.1365 114.731 74.0651C114.785 73.8955 114.824 73.7219 114.849 73.546C114.931 72.9661 114.887 70.0044 115.897 68.1813C117.459 65.3661 119.991 66.0594 120.765 64.471C121.062 63.8626 121.318 56.386 126.252 57.7672C126.733 57.8952 127.183 58.1194 127.574 58.4261C127.965 58.7328 128.29 59.1155 128.527 59.551C128.765 59.9865 128.911 60.4657 128.957 60.9592C129.003 61.4528 128.947 61.9505 128.794 62.4219Z" fill="#E1E1F5"/>
<path d="M137.818 74.1125C137.677 74.2096 137.524 74.2902 137.364 74.3528C136.033 74.8499 132.331 74.7948 131.789 76.1032C131.535 76.7182 131.474 77.3973 131.256 78.0266C130.761 79.4541 129.454 80.5243 127.992 80.9267C127.466 81.0711 126.921 81.1383 126.401 81.2992C125.395 81.6112 124.562 82.2383 123.83 83H111.829C111.823 82.2079 112.019 81.4272 112.398 80.7304C112.777 80.0337 113.326 79.4434 113.995 79.0143C115.329 78.1765 117.015 78.02 118.325 77.1448C119.189 76.5673 119.81 75.7329 120.303 74.8103C120.616 74.2067 120.893 73.585 121.132 72.9485C121.499 72.0017 121.882 70.9854 122.715 70.3994C123.111 70.1206 123.581 69.964 124.051 69.8417C125.254 69.5283 126.179 69.7128 127.055 69.8913C128.118 70.1073 129.11 70.3135 130.443 69.6092C132.806 68.3592 136.261 62.126 139.714 68.0484C141.099 70.4235 139.188 73.1999 137.818 74.1125Z" fill="#8888D8"/>
<path d="M18.5798 62.4219C19.2886 64.5592 21.7349 66.4585 21.0044 68.0302C20.7265 68.6277 20.4474 69.2525 20.3189 69.8909C20.2355 70.2714 20.2217 70.6638 20.278 71.0493C20.5415 72.7137 22.1064 73.8192 23.5615 74.6802C23.6512 74.733 23.742 74.7871 23.8328 74.8411C25.2116 75.6634 26.6557 76.6102 27.0987 78.128C27.3446 78.9712 27.236 79.8727 27.3379 80.7448C27.4345 81.5461 27.7079 82.3162 28.1386 83H37.4312C38.2563 82.095 38.1876 80.5739 37.5596 79.5069C36.8879 78.365 35.7523 77.589 34.7279 76.7446C33.843 76.015 32.9803 75.1365 32.6425 74.0651C32.5889 73.8955 32.5493 73.7219 32.5241 73.546C32.4422 72.9661 32.4865 70.0044 31.4765 68.1813C29.9143 65.3661 27.3818 66.0594 26.6079 64.471C26.3111 63.8626 26.0553 56.386 21.1216 57.7672C20.6405 57.8952 20.1907 58.1194 19.7995 58.4261C19.4082 58.7328 19.0838 59.1155 18.846 59.551C18.6082 59.9865 18.4619 60.4657 18.4162 60.9592C18.3704 61.4528 18.4261 61.9505 18.5798 62.4219Z" fill="#E1E1F5"/>
<path d="M9.55518 74.1125C9.69687 74.2095 9.84921 74.2901 10.0092 74.3528C11.3404 74.8498 15.0426 74.7948 15.5841 76.1032C15.8389 76.7182 15.8997 77.3972 16.118 78.0266C16.613 79.4541 17.9197 80.5243 19.3816 80.9267C19.9076 81.071 20.4522 81.1382 20.973 81.2992C21.9785 81.6112 22.8113 82.2383 23.5433 83H35.5447C35.55 82.2078 35.3543 81.4272 34.9756 80.7304C34.597 80.0336 34.0476 79.4433 33.3786 79.0142C32.0441 78.1765 30.3585 78.02 29.0485 77.1447C28.1847 76.5672 27.5634 75.7328 27.0706 74.8102C26.7571 74.2067 26.4802 73.585 26.2414 72.9485C25.8749 72.0017 25.4916 70.9854 24.6589 70.3994C24.2624 70.1206 23.7928 69.964 23.3222 69.8416C22.1195 69.5282 21.1948 69.7127 20.3188 69.8913C19.2553 70.1069 18.2634 70.313 16.9304 69.6086C14.567 68.3586 11.1118 62.1254 7.65882 68.0478C6.27489 70.4234 8.18531 73.1998 9.55518 74.1125Z" fill="#8888D8"/>
<path d="M113.053 17.0175C112.246 16.7567 111.376 16.7567 110.569 17.0175C110.105 17.1717 109.69 17.4464 109.368 17.8134C108.958 18.2976 108.654 18.9681 108.685 19.6103C108.706 19.9425 108.811 20.2639 108.992 20.5445C109.172 20.825 109.42 21.0554 109.714 21.2142C110.235 21.48 111.019 21.5351 111.475 21.1097C111.823 20.7859 111.805 20.2296 111.581 19.8435C111.222 19.2266 110.439 18.9758 109.76 19.0617C109.373 19.117 109 19.2493 108.665 19.4506C108.33 19.652 108.039 19.9183 107.809 20.2338C107.592 20.5324 107.435 20.8697 107.347 21.2272C107.264 21.5591 107.23 21.9398 107.361 22.2643C107.385 22.3409 107.437 22.4056 107.507 22.4451C107.577 22.4847 107.66 22.4961 107.738 22.4771C107.883 22.4373 108.014 22.256 107.952 22.1024C107.914 22.0159 107.892 21.9232 107.889 21.829C107.883 21.7127 107.892 21.5961 107.916 21.482C107.97 21.2185 108.069 20.9661 108.209 20.7356C108.491 20.2763 108.927 19.9309 109.44 19.7604C109.93 19.5971 110.509 19.5987 110.903 19.9687C110.976 20.0344 111.036 20.1134 111.08 20.2017C111.085 20.2116 111.103 20.2562 111.082 20.2036C111.092 20.2275 111.1 20.2518 111.107 20.2768C111.112 20.2922 111.116 20.3081 111.12 20.3236C111.125 20.3445 111.132 20.4423 111.127 20.3531C111.129 20.3775 111.15 20.5211 111.127 20.5349C111.12 20.539 111.145 20.4483 111.131 20.5016C111.129 20.5109 111.128 20.5207 111.126 20.5298C111.12 20.5557 111.113 20.5812 111.104 20.6062C111.065 20.6696 111.006 20.7186 110.936 20.7456C110.981 20.7247 110.889 20.7616 110.89 20.7614C110.871 20.7672 110.852 20.7719 110.833 20.7765C110.777 20.7911 110.719 20.7999 110.661 20.8028C110.562 20.8097 110.462 20.8071 110.362 20.7949C110.256 20.7762 110.153 20.7453 110.054 20.703C109.837 20.598 109.652 20.4371 109.519 20.2371C109.385 20.037 109.309 19.805 109.296 19.5653C109.302 19.2927 109.363 19.0241 109.477 18.7761C109.522 18.6754 109.574 18.5777 109.632 18.4835C109.682 18.3995 109.739 18.3193 109.802 18.2438C109.865 18.1688 109.933 18.0979 110.006 18.0315C110.041 17.9992 110.078 17.968 110.115 17.938C110.188 17.8793 110.068 17.9707 110.143 17.9165C110.166 17.9 110.189 17.8838 110.213 17.868C110.293 17.8135 110.378 17.7639 110.464 17.7194C110.509 17.6964 110.555 17.6747 110.601 17.6541C110.611 17.6498 110.655 17.632 110.604 17.6528C110.633 17.6409 110.663 17.6294 110.693 17.6184C110.893 17.5474 111.099 17.4959 111.309 17.4647C111.397 17.4508 111.245 17.4705 111.334 17.4617C111.36 17.4591 111.386 17.4559 111.413 17.4534C111.465 17.4484 111.518 17.4446 111.57 17.4419C111.674 17.4364 111.777 17.4351 111.881 17.4379C111.98 17.4404 112.08 17.4465 112.179 17.4563C112.201 17.4585 112.349 17.4772 112.265 17.4651C112.311 17.4716 112.357 17.4785 112.403 17.4865C112.568 17.5145 112.731 17.5539 112.89 17.6043C113.267 17.7239 113.428 17.1359 113.053 17.0168L113.053 17.0175Z" fill="#F4930C"/>
<path d="M54.597 5.84212C55.3779 5.56276 56.1924 6.12764 56.5598 6.81933C56.9214 7.50111 56.8371 8.47498 56.1294 8.91114C55.8287 9.09647 55.4076 9.15863 55.1453 8.92075C54.8718 8.67264 54.8884 8.36351 55.1588 8.11539C55.2221 8.05891 55.2911 8.00906 55.3647 7.96663C55.4075 7.94093 55.4513 7.91659 55.496 7.89423C55.5123 7.88608 55.5289 7.87824 55.5455 7.87051C55.5909 7.84962 55.4795 7.89423 55.5618 7.86372C55.6279 7.83887 55.6955 7.81794 55.7641 7.80104C55.7967 7.79324 55.8295 7.78628 55.8626 7.78015C55.8817 7.7766 55.9008 7.77346 55.9199 7.77043C55.8569 7.78036 55.9503 7.76761 55.9551 7.76719C56.1106 7.75294 56.2672 7.75553 56.4222 7.77492C56.474 7.7814 56.3808 7.76824 56.4327 7.7768C56.453 7.78025 56.4735 7.78359 56.4937 7.78725C56.5294 7.7938 56.565 7.80122 56.6004 7.8095C56.6868 7.82968 56.7721 7.85455 56.8559 7.88399C56.8797 7.89235 56.9517 7.91982 56.9513 7.91962C56.9258 7.90917 56.9731 7.92944 56.9723 7.92912C56.9914 7.93779 57.0105 7.94667 57.0294 7.95587C57.1097 7.99469 57.1878 8.03819 57.263 8.08614C57.3919 8.16722 57.5086 8.26621 57.6094 8.38012C57.7085 8.49079 57.7906 8.6154 57.8531 8.74994C57.8655 8.77473 57.876 8.80039 57.8846 8.82673C57.9033 8.87813 57.9198 8.93047 57.9349 8.98344C57.9683 9.09693 57.9934 9.21272 58.0099 9.32986C58.0634 9.76064 57.9944 10.1977 57.8107 10.5914C57.627 10.9851 57.336 11.3195 56.9708 11.5567C56.8251 11.6474 56.6598 11.7022 56.4886 11.7166C56.3174 11.731 56.1452 11.7046 55.9862 11.6395C55.9422 11.6184 55.8999 11.5939 55.8597 11.5664C55.8114 11.5342 55.8823 11.5889 55.8545 11.5631C55.8473 11.5564 55.8398 11.55 55.8329 11.5429C55.8238 11.5333 55.8156 11.5234 55.8069 11.5138C55.8866 11.6016 55.8161 11.5301 55.821 11.5279C55.8141 11.5169 55.8079 11.5056 55.8024 11.4939C55.8195 11.5203 55.8157 11.5467 55.8077 11.5026C55.8057 11.4922 55.7885 11.4035 55.7941 11.4534C55.7992 11.5003 55.7952 11.4238 55.7949 11.4086C55.7946 11.3935 55.797 11.3789 55.7974 11.364C55.7974 11.3756 55.782 11.4301 55.7962 11.3761C55.8056 11.3403 55.8124 11.3045 55.824 11.269C55.8299 11.2512 55.8611 11.18 55.8369 11.2314C55.853 11.1973 55.8705 11.1639 55.8894 11.1313C55.9096 11.0967 55.9313 11.0631 55.9551 11.0304C55.9575 11.027 55.9892 10.9861 55.9656 11.0163C55.9793 10.9991 55.9938 10.9824 56.0084 10.966C56.1351 10.8244 56.2832 10.7033 56.4473 10.607C56.4978 10.5767 56.5492 10.5476 56.6017 10.5211C56.6195 10.5122 56.7019 10.4773 56.6347 10.5036C56.6992 10.4783 56.765 10.4567 56.832 10.439C56.9675 10.3987 57.1084 10.3795 57.2498 10.3823C57.3297 10.3811 57.4095 10.384 57.4891 10.3912C57.516 10.3918 57.5427 10.3953 57.5689 10.4016C57.6173 10.4105 57.6654 10.4204 57.7132 10.433C57.8724 10.4691 58.0225 10.5375 58.154 10.634C58.3965 10.8292 58.5672 11.0988 58.6396 11.4007C58.7217 11.7153 58.7292 12.0446 58.6615 12.3625C58.5984 12.677 58.4599 12.9717 58.2579 13.2216C58.1556 13.3454 58.035 13.4531 57.9004 13.5412C57.5717 13.7546 57.8782 14.2829 58.2095 14.0674C58.9679 13.5748 59.3745 12.651 59.3147 11.7606C59.2932 11.3089 59.1405 10.8731 58.8752 10.506C58.589 10.1308 58.1675 9.88082 57.6997 9.80886C56.8169 9.66479 55.8733 10.0149 55.3845 10.7861C55.191 11.0911 55.0951 11.5083 55.2928 11.8356C55.5436 12.2509 56.1495 12.3684 56.5957 12.3136C57.1445 12.2467 57.5964 11.9166 57.9402 11.4976C58.3221 11.0505 58.5615 10.5004 58.6282 9.9173C58.6881 9.37472 58.5843 8.82668 58.3301 8.34303C58.1162 7.97336 57.8015 7.67158 57.4223 7.47269C56.6968 7.08458 55.7583 7.00989 55.0385 7.45013C54.5677 7.73815 54.1988 8.24608 54.3755 8.81764C54.4592 9.07485 54.6241 9.29829 54.8457 9.45471C55.0673 9.61114 55.3337 9.69218 55.6052 9.68579C56.7703 9.66615 57.5043 8.45304 57.3686 7.38744C57.2274 6.28215 56.319 5.29198 55.1879 5.16682C54.9332 5.13872 54.6755 5.16848 54.4341 5.25385C54.3569 5.27709 54.2917 5.32897 54.2519 5.39874C54.2121 5.46851 54.2008 5.55083 54.2203 5.62869C54.2425 5.70622 54.2944 5.77197 54.3648 5.81177C54.4353 5.85158 54.5186 5.86225 54.5969 5.84149L54.597 5.84212Z" fill="#F4930C"/>
<path d="M88.6112 13.9901C89.503 13.9067 90.3414 13.5297 90.9939 12.9188C91.3688 12.555 91.6301 12.091 91.7463 11.5828C91.8912 10.9548 91.8336 10.2094 91.4722 9.66267C91.3034 9.41867 91.0814 9.2158 90.8227 9.06926C90.564 8.92272 90.2754 8.8363 89.9785 8.81647C89.411 8.79254 88.6862 9.04285 88.4427 9.59926C88.2481 10.0443 88.489 10.5724 88.8746 10.8313C89.4862 11.242 90.2842 11.1472 90.8898 10.7772C91.219 10.5659 91.5019 10.2907 91.7216 9.96807C91.9414 9.64542 92.0934 9.28194 92.1687 8.89941C92.3009 8.22266 92.2212 7.38303 91.7069 6.87624C91.5893 6.76028 91.371 6.80792 91.2765 6.9266C91.228 6.99077 91.2062 7.07108 91.2156 7.15085C91.225 7.23062 91.265 7.30371 91.3271 7.35493C91.2812 7.30969 91.3488 7.38219 91.3518 7.38627C91.3648 7.40267 91.3772 7.41959 91.389 7.43673C91.412 7.46765 91.4315 7.50096 91.4473 7.53608C91.4972 7.64307 91.5353 7.75517 91.5608 7.87038C91.6108 8.11523 91.6216 8.36642 91.5928 8.61463C91.5272 9.15632 91.2696 9.65695 90.8663 10.0265C90.4857 10.3713 89.9657 10.6047 89.4553 10.4438C89.3524 10.4152 89.257 10.3646 89.1758 10.2953C89.1603 10.2824 89.1449 10.2689 89.1302 10.2549C89.1775 10.2997 89.1151 10.2369 89.1099 10.2305C89.0988 10.2165 89.0881 10.2026 89.0778 10.1887C89.0673 10.1741 89.0142 10.08 89.0535 10.1573C89.027 10.1051 89.0154 10.0381 88.9866 9.98883C88.9882 9.99165 88.9953 10.0602 88.9895 9.99771C88.9841 9.96621 88.9829 9.93414 88.9859 9.90233C89.0007 9.80152 88.9806 9.91225 88.998 9.85824C89.0004 9.85093 89.0315 9.78668 89.013 9.81917C89.0282 9.79561 89.0449 9.77301 89.0629 9.75148C89.0699 9.74197 89.118 9.69109 89.0817 9.72619C89.1567 9.65796 89.2412 9.60089 89.3326 9.55674C89.5164 9.4584 89.7235 9.41147 89.932 9.42093C89.8887 9.41936 89.9557 9.42375 89.9654 9.4249C89.992 9.42793 90.0185 9.43023 90.045 9.43409C90.0984 9.4415 90.1512 9.45196 90.2034 9.46543C90.1673 9.45593 90.2191 9.47035 90.2223 9.47129C90.2538 9.48173 90.2853 9.49218 90.3155 9.50482C90.3728 9.52784 90.4288 9.55375 90.4834 9.58244C90.6808 9.68912 90.8503 9.84033 90.9783 10.0239C91.2536 10.4418 91.2474 11.028 91.1406 11.4911C91.1277 11.5472 91.1196 11.5747 91.1109 11.6034C91.0948 11.6536 91.0771 11.7031 91.0578 11.752C91.0198 11.847 90.9758 11.9395 90.9258 12.0289C90.8781 12.1148 90.9573 11.9819 90.9048 12.0646C90.8941 12.0814 90.8833 12.0981 90.8723 12.1147C90.8448 12.1559 90.8161 12.1962 90.7861 12.2357C90.7209 12.3214 90.6503 12.4031 90.5748 12.48C90.5612 12.4939 90.5475 12.5077 90.5335 12.5212C90.5793 12.4767 90.5062 12.5455 90.4969 12.5538C90.4572 12.5891 90.4166 12.6233 90.375 12.6565C90.285 12.7282 90.1912 12.795 90.094 12.8565C90.0499 12.8846 90.0049 12.9109 89.96 12.9375C89.9469 12.9453 89.8918 12.9758 89.9455 12.9465C89.9208 12.96 89.8958 12.9729 89.8708 12.9858C89.7721 13.0361 89.6714 13.0821 89.5688 13.1239C89.3873 13.1969 89.2012 13.258 89.0116 13.3067C88.9951 13.3111 88.9393 13.3233 89.0059 13.3084C88.9826 13.3136 88.9593 13.3188 88.9359 13.3238C88.8907 13.3334 88.8453 13.3421 88.7994 13.3501C88.7154 13.3647 88.6309 13.3761 88.5459 13.3844C88.1529 13.4232 88.2177 14.0292 88.6098 13.9904L88.6112 13.9901Z" fill="#F4930C"/>
<path d="M63.3113 -0.00035014L62.3401 0.621155L63.819 2.91043L64.7901 2.28893L63.3113 -0.00035014Z" fill="#F4930C"/>
<path d="M82.4996 20.0178L80.8293 22.5277L81.7919 23.1623L83.4622 20.6524L82.4996 20.0178Z" fill="#F4930C"/>
<path d="M28.4295 7.35487L26.9658 9.58508L27.9324 10.2136L29.3962 7.98334L28.4295 7.35487Z" fill="#F4930C"/>
<path d="M120.217 30.2824L119.096 30.5579L119.812 33.4467L120.933 33.1712L120.217 30.2824Z" fill="#F4930C"/>
<path d="M122.528 7.34354L121.577 7.99567L123.339 10.5392L124.289 9.88712L122.528 7.34354Z" fill="#F4930C"/>
<path d="M38.036 18.7885L35.8774 21.3322L36.7595 22.0737L38.9181 19.53L38.036 18.7885Z" fill="#F4930C"/>
<path d="M55.7574 37.1868L53.6714 39.3182L54.4984 40.1201L56.5844 37.9886L55.7574 37.1868Z" fill="#F4930C"/>
<path d="M100.704 34.4677L99.7332 35.0892L101.212 37.3785L102.183 36.757L100.704 34.4677Z" fill="#F4930C"/>
<path d="M127.234 18.8023C127.472 17.2671 127 16.2268 126.248 15.5846C125.506 14.9512 123.01 14.1344 121.767 15.8688C120.957 17.0006 121.143 17.4736 120.68 19.4062C120.217 21.3388 119.498 21.4453 118.455 23.7186C117.636 25.5019 120.566 26.9312 123.24 27.2277C125.913 27.5242 127.685 27.1799 128.083 25.5175C128.654 23.132 126.766 21.8107 127.234 18.8023Z" fill="#0F1011"/>
<path d="M125.032 22.8255C125.032 22.8255 124.296 22.2796 124.81 20.1327L123.2 19.5735C123.2 19.5735 123.085 21.5513 122.151 22.0421L125.032 22.8255Z" fill="#E98862"/>
<g opacity="0.15">
<path d="M122.554 21.6864L124.093 20.8484L123.013 20.672C122.925 21.0356 122.769 21.3797 122.554 21.6864Z" fill="black"/>
</g>
<path d="M125.881 19.4333C125.664 20.0755 125.206 20.6452 124.589 20.7685C123.913 20.9229 123.209 20.9103 122.539 20.7318C120.747 20.3064 121.74 16.2547 122.724 15.5888C123.709 14.9229 126.159 15.8143 126.261 17.1954C126.313 17.9097 126.087 18.8221 125.881 19.4333Z" fill="#E98862"/>
<path d="M123.387 18.5302C123.471 18.5302 123.539 18.4625 123.539 18.3789C123.539 18.2953 123.471 18.2275 123.387 18.2275C123.303 18.2275 123.235 18.2953 123.235 18.3789C123.235 18.4625 123.303 18.5302 123.387 18.5302Z" fill="#0F1011"/>
<path d="M122.216 18.2522C122.3 18.2522 122.368 18.1844 122.368 18.1008C122.368 18.0172 122.3 17.9494 122.216 17.9494C122.132 17.9494 122.063 18.0172 122.063 18.1008C122.063 18.1844 122.132 18.2522 122.216 18.2522Z" fill="#0F1011"/>
<path d="M122.414 17.7989C122.411 17.7989 122.407 17.7987 122.404 17.7981L122.005 17.7422C121.995 17.7412 121.986 17.7383 121.978 17.7337C121.969 17.7291 121.962 17.7228 121.956 17.7153C121.95 17.7078 121.946 17.6991 121.943 17.6899C121.941 17.6807 121.94 17.6711 121.942 17.6616C121.943 17.6521 121.946 17.6431 121.951 17.6349C121.956 17.6267 121.963 17.6196 121.97 17.614C121.978 17.6083 121.987 17.6043 121.996 17.6022C122.006 17.6 122.015 17.5998 122.025 17.6014L122.424 17.6573C122.441 17.6599 122.458 17.6691 122.469 17.683C122.48 17.697 122.486 17.7147 122.485 17.7326C122.483 17.7506 122.475 17.7673 122.462 17.7796C122.449 17.7919 122.432 17.7988 122.414 17.7989H122.414Z" fill="#0F1011"/>
<path d="M123.764 18.1582C123.754 18.1582 123.745 18.1564 123.737 18.1528L123.359 17.9988C123.35 17.9955 123.342 17.9904 123.335 17.9838C123.328 17.9772 123.322 17.9694 123.319 17.9607C123.315 17.952 123.313 17.9426 123.313 17.9331C123.313 17.9236 123.314 17.9142 123.318 17.9054C123.322 17.8966 123.327 17.8886 123.334 17.8819C123.341 17.8752 123.349 17.8699 123.357 17.8664C123.366 17.8628 123.376 17.8611 123.385 17.8612C123.395 17.8614 123.404 17.8634 123.413 17.8672L123.791 18.0213C123.806 18.0275 123.819 18.0389 123.827 18.0534C123.835 18.0679 123.837 18.0847 123.834 18.1009C123.831 18.117 123.822 18.1316 123.809 18.1421C123.796 18.1525 123.78 18.1582 123.764 18.1582Z" fill="#0F1011"/>
<path d="M123.135 19.5465C123.135 19.5465 122.571 19.5199 122.203 19.3252C122.203 19.3252 122.15 19.6895 122.584 19.7924C123.017 19.8953 123.135 19.5465 123.135 19.5465Z" fill="white"/>
<path d="M124.923 17.5375C124.575 19.0668 124.505 20.646 124.717 22.1999C124.717 22.1999 126.318 20.2237 126.795 18.4463C127.241 16.7802 126.141 15.5881 125.323 15.2704C122.213 14.0613 121.651 16.3658 121.651 16.3658C121.743 17.1928 125.185 18.1915 125.185 18.1915" fill="#0F1011"/>
<path d="M124.046 19.1397C124.025 19.222 124.021 19.3077 124.034 19.3916C124.047 19.4756 124.076 19.5562 124.12 19.6288C124.165 19.7014 124.223 19.7645 124.292 19.8145C124.361 19.8645 124.439 19.9004 124.522 19.9201C124.605 19.9398 124.691 19.9429 124.775 19.9293C124.86 19.9156 124.94 19.8855 125.013 19.8406C125.085 19.7957 125.148 19.7369 125.197 19.6677C125.247 19.5985 125.282 19.5202 125.301 19.4374C125.322 19.3554 125.326 19.27 125.313 19.1863C125.301 19.1025 125.271 19.0222 125.226 18.9501C125.182 18.8779 125.123 18.8155 125.054 18.7664C124.985 18.7173 124.906 18.6826 124.823 18.6643C124.371 18.5801 124.129 18.7949 124.046 19.1397Z" fill="#E98862"/>
<g opacity="0.15">
<path d="M122.599 19.1077C122.591 19.1077 122.584 19.1059 122.576 19.1024L122.232 18.9365C122.225 18.9333 122.219 18.9287 122.214 18.923C122.21 18.9173 122.206 18.9107 122.204 18.9036C122.202 18.8965 122.202 18.889 122.203 18.8817C122.204 18.8744 122.207 18.8674 122.211 18.8612L122.53 18.3702C122.537 18.3586 122.549 18.3504 122.563 18.3475C122.577 18.3446 122.591 18.3472 122.602 18.3547C122.614 18.3622 122.622 18.374 122.625 18.3876C122.628 18.4011 122.626 18.4153 122.618 18.4269L122.331 18.8683L122.622 19.0085C122.633 19.0137 122.642 19.0223 122.647 19.0329C122.652 19.0436 122.653 19.0557 122.651 19.0672C122.648 19.0787 122.641 19.089 122.632 19.0964C122.623 19.1037 122.611 19.1078 122.599 19.1078L122.599 19.1077Z" fill="black"/>
</g>
<path d="M137.793 46.2001L128.882 47.8166C128.618 47.8646 128.346 47.8367 128.097 47.7364C127.848 47.6361 127.633 47.4674 127.477 47.2501L127.41 47.156L123.47 41.6517L126.986 39.6313L129.442 44.9873L137.468 44.0306L137.793 46.2001Z" fill="#E98862"/>
<path d="M139.445 48.6225C139.459 48.6798 139.461 48.7394 139.451 48.7975C139.44 48.8556 139.418 48.911 139.385 48.9602C139.353 49.0094 139.31 49.0514 139.26 49.0834C139.211 49.1155 139.155 49.1371 139.096 49.1467C139.015 49.16 138.932 49.15 138.857 49.1179C138.781 49.0857 138.716 49.0328 138.67 48.9652L137.221 46.6906C137.194 46.6465 137.176 46.5969 137.169 46.5453C137.162 46.4936 137.166 46.4411 137.182 46.3913C137.335 45.9921 137.356 45.5546 137.24 45.143C137.137 44.8257 136.947 44.5435 136.69 44.3289C136.666 44.3105 136.647 44.2855 136.636 44.2569C136.625 44.2282 136.622 44.1971 136.629 44.167C136.635 44.137 136.649 44.1094 136.671 44.0873C136.692 44.0652 136.719 44.0497 136.749 44.0425L137.967 43.7436C138.003 43.7348 138.041 43.7331 138.077 43.7387C138.114 43.7443 138.149 43.757 138.181 43.7761C138.212 43.7952 138.24 43.8204 138.262 43.8501C138.283 43.8799 138.299 43.9136 138.308 43.9494L139.445 48.6225Z" fill="#C4C4EB"/>
<path d="M118.44 48.7225L121.669 61.1167L119.554 61.7348L115.54 49.5823L118.44 48.7225Z" fill="#E98862"/>
<path d="M117.265 63.5388C117.209 63.5579 117.149 63.5652 117.09 63.5603C117.031 63.5554 116.974 63.5384 116.921 63.5103C116.869 63.4823 116.823 63.4438 116.787 63.3973C116.75 63.3508 116.724 63.2973 116.709 63.2401C116.688 63.161 116.691 63.0777 116.716 63C116.742 62.9222 116.789 62.8533 116.852 62.8014L118.998 61.1612C119.04 61.1296 119.088 61.1073 119.139 61.0959C119.19 61.0845 119.243 61.0842 119.294 61.0951C119.707 61.2112 120.147 61.1923 120.549 61.0412C120.857 60.9106 121.122 60.6964 121.314 60.423C121.33 60.3969 121.353 60.3759 121.381 60.3625C121.409 60.3491 121.44 60.3438 121.47 60.3472C121.501 60.3506 121.53 60.3627 121.554 60.3819C121.578 60.4011 121.596 60.4267 121.606 60.4557L122.014 61.6362C122.026 61.671 122.031 61.7079 122.029 61.7447C122.027 61.7814 122.017 61.8174 122.001 61.8505C121.984 61.8835 121.962 61.9131 121.934 61.9374C121.906 61.9617 121.874 61.9803 121.839 61.9921L117.265 63.5388Z" fill="#C4C4EB"/>
<path d="M117.581 32.7651C117.581 32.7651 114.808 41.6562 114.05 44.1942C112.335 49.9353 115.54 54.2218 115.54 54.2218C115.54 54.2218 119.875 54.8372 122.03 51.9786C126.017 46.6914 131.119 50.3712 131.338 44.5112C128.435 43.9661 125.18 33.4932 125.18 33.4932L117.581 32.7651Z" fill="#262626"/>
<path d="M21.9475 23.6859C21.9475 23.6859 22.7369 23.2184 22.4472 21.0302L24.1068 20.6389C24.1068 20.6389 24.0161 22.618 24.894 23.2019L21.9475 23.6859Z" fill="#E98862"/>
<g opacity="0.15">
<path d="M24.531 22.8069L23.0872 21.8157L24.1794 21.7508C24.2295 22.1216 24.3487 22.4797 24.531 22.8069Z" fill="black"/>
</g>
<path d="M21.455 20.2248C21.6039 20.8857 22.0008 21.4994 22.602 21.6854C23.3158 21.9066 23.8363 21.8984 24.6449 21.8588C25.7483 21.8047 25.6552 20.6612 25.629 19.5054C25.6028 18.3451 25.4487 17.1067 24.9926 16.7242C24.0823 15.9609 21.5527 16.5966 21.3085 17.9599C21.1824 18.665 21.3132 19.5957 21.455 20.2248Z" fill="#E98862"/>
<path d="M26.1146 17.3407C26.1146 17.3407 26.5615 17.2182 26.4155 16.7757C26.3188 16.4823 25.9392 16.5668 25.9392 16.5668C25.9392 16.5668 26.2985 16.4832 26.2828 16.168C26.2731 15.9695 26.1032 15.6408 25.6504 15.8557C25.1192 16.1077 24.4992 16.1091 24.025 16.0534C23.756 16.0085 23.484 15.9838 23.2113 15.9795H23.21C22.8972 15.9893 22.5877 16.046 22.292 16.1478C21.4636 16.4393 20.2283 17.252 20.583 18.9398C20.9788 20.8235 21.9098 21.5057 22.3148 21.7187C22.3388 21.7316 22.3654 21.7388 22.3926 21.7399C22.4198 21.741 22.4469 21.7359 22.4719 21.725C22.4968 21.7142 22.519 21.6978 22.5366 21.6772C22.5543 21.6565 22.567 21.6322 22.5738 21.6059C22.6682 21.2447 22.8162 20.3399 22.6709 18.4966C25.2491 18.2437 25.9907 18.1691 25.9907 18.1691C25.9907 18.1691 26.6002 18.1618 26.5785 17.7198C26.5568 17.2778 26.1146 17.3407 26.1146 17.3407Z" fill="#0F1011"/>
<path d="M24.0449 19.583C24.1289 19.583 24.197 19.5152 24.197 19.4316C24.197 19.348 24.1289 19.2802 24.0449 19.2802C23.9609 19.2802 23.8928 19.348 23.8928 19.4316C23.8928 19.5152 23.9609 19.583 24.0449 19.583Z" fill="#0F1011"/>
<path d="M25.2385 19.4265C25.3225 19.4265 25.3906 19.3587 25.3906 19.2751C25.3906 19.1915 25.3225 19.1237 25.2385 19.1237C25.1545 19.1237 25.0864 19.1915 25.0864 19.2751C25.0864 19.3587 25.1545 19.4265 25.2385 19.4265Z" fill="#0F1011"/>
<path d="M25.0797 18.9547C25.0611 18.9544 25.0434 18.9469 25.0303 18.9339C25.0172 18.9209 25.0096 18.9033 25.0093 18.8848C25.0089 18.8664 25.0158 18.8485 25.0285 18.835C25.0411 18.8215 25.0585 18.8134 25.077 18.8125L25.4797 18.7978C25.4985 18.7973 25.5167 18.8042 25.5305 18.817C25.5442 18.8298 25.5523 18.8475 25.5529 18.8663C25.5536 18.885 25.5469 18.9032 25.5341 18.917C25.5214 18.9308 25.5037 18.939 25.4849 18.9399L25.0823 18.9547H25.0797Z" fill="#0F1011"/>
<path d="M23.7004 19.1737C23.6832 19.1737 23.6667 19.1675 23.6537 19.1562C23.6408 19.145 23.6323 19.1296 23.6299 19.1127C23.6274 19.0957 23.6312 19.0785 23.6405 19.0642C23.6497 19.0498 23.6639 19.0392 23.6803 19.0344L24.0725 18.9194C24.0905 18.9146 24.1098 18.917 24.1261 18.9261C24.1424 18.9352 24.1544 18.9503 24.1597 18.9682C24.1649 18.986 24.1629 19.0052 24.1541 19.0216C24.1453 19.038 24.1304 19.0504 24.1126 19.056L23.7205 19.1704C23.714 19.1725 23.7072 19.1736 23.7004 19.1737Z" fill="#0F1011"/>
<path d="M23.2731 19.8403C23.2855 19.9245 23.281 20.0103 23.2598 20.0927C23.2385 20.1751 23.2011 20.2525 23.1495 20.3204C23.098 20.3882 23.0334 20.4452 22.9595 20.488C22.8856 20.5308 22.8039 20.5585 22.7192 20.5696C22.6344 20.5807 22.5483 20.5749 22.4658 20.5526C22.3833 20.5302 22.3061 20.4918 22.2387 20.4394C22.1713 20.3871 22.115 20.322 22.0731 20.2478C22.0312 20.1737 22.0046 20.0919 21.9947 20.0074C21.9822 19.9237 21.9867 19.8383 22.008 19.7563C22.0294 19.6743 22.067 19.5974 22.1188 19.5303C22.1706 19.4631 22.2354 19.4069 22.3095 19.3652C22.3835 19.3235 22.4652 19.297 22.5497 19.2873C23.0078 19.2504 23.2266 19.489 23.2731 19.8403Z" fill="#E98862"/>
<g opacity="0.15">
<path d="M24.7582 20.2372C24.7459 20.2371 24.734 20.2327 24.7247 20.2248C24.7153 20.2169 24.709 20.206 24.7068 20.194C24.7047 20.1819 24.7069 20.1695 24.713 20.1589C24.7192 20.1483 24.7288 20.1402 24.7403 20.1359L25.0447 20.0263L24.805 19.5579C24.8015 19.5518 24.7993 19.545 24.7985 19.538C24.7978 19.531 24.7984 19.5239 24.8005 19.5171C24.8025 19.5104 24.8059 19.5041 24.8104 19.4987C24.815 19.4933 24.8206 19.4889 24.8269 19.4857C24.8332 19.4825 24.8401 19.4806 24.8471 19.4801C24.8542 19.4796 24.8613 19.4806 24.868 19.4829C24.8746 19.4852 24.8808 19.4888 24.886 19.4936C24.8913 19.4983 24.8955 19.5041 24.8984 19.5105L25.1652 20.0317C25.1687 20.0383 25.1706 20.0455 25.171 20.053C25.1714 20.0604 25.1702 20.0678 25.1675 20.0747C25.1647 20.0817 25.1605 20.0879 25.1552 20.0931C25.1498 20.0983 25.1434 20.1023 25.1364 20.1048L24.7762 20.2344C24.7704 20.2364 24.7643 20.2373 24.7582 20.2372Z" fill="black"/>
</g>
<path d="M24.1741 20.6189C24.1741 20.6189 24.7377 20.6502 25.124 20.4943C25.124 20.4943 25.1391 20.862 24.6972 20.92C24.2553 20.978 24.1741 20.6189 24.1741 20.6189Z" fill="white"/>
<path d="M28.4373 13.711L29.5526 13.1648C29.5526 13.1648 29.5343 11.5643 28.1098 10.8637C27.6375 10.6314 27.3655 11.1585 27.4635 11.3114C27.7872 11.817 28.1562 12.2747 28.2032 12.7877C28.0154 12.646 27.747 12.4677 27.6818 12.5495C27.5106 12.7647 28.4373 13.711 28.4373 13.711Z" fill="#E98862"/>
<path d="M9.93836 46.5094C9.87423 46.4936 9.679 46.445 7.83911 45.7489L8.62234 43.6982C9.40211 43.9932 10.3406 44.3406 10.497 44.3877C10.487 44.3847 10.4786 44.3827 10.4721 44.3811L9.93836 46.5094Z" fill="#E98862"/>
<path d="M6.25877 48.1456C6.24225 48.2022 6.23766 48.2617 6.24527 48.3202C6.25288 48.3787 6.27253 48.435 6.303 48.4856C6.33347 48.5362 6.37409 48.58 6.42234 48.6143C6.47059 48.6486 6.52543 48.6726 6.58342 48.6848C6.66378 48.7018 6.74736 48.6956 6.82429 48.6669C6.90122 48.6382 6.96831 48.5882 7.01765 48.5228L8.56784 46.3158C8.59768 46.2729 8.61788 46.2242 8.62707 46.1729C8.63625 46.1216 8.6342 46.0689 8.62105 46.0184C8.48606 45.6128 8.48543 45.1748 8.61927 44.7689C8.73661 44.4565 8.93982 44.1833 9.20569 43.9803C9.23115 43.9631 9.25115 43.939 9.26337 43.9109C9.2756 43.8827 9.27953 43.8517 9.27472 43.8215C9.26992 43.7912 9.25656 43.7629 9.23622 43.7399C9.21588 43.7169 9.18938 43.7001 9.15983 43.6916L7.95612 43.3381C7.92062 43.3277 7.8834 43.3244 7.8466 43.3283C7.8098 43.3323 7.77415 43.3434 7.74168 43.3611C7.70922 43.3788 7.68058 43.4027 7.65742 43.4314C7.63425 43.4601 7.61702 43.4931 7.6067 43.5285L6.25877 48.1456Z" fill="#C4C4EB"/>
<path d="M18.951 53.4029L18.5757 51.2411C19.3979 51.0997 20.3833 50.923 20.5419 50.8842C20.5315 50.8866 20.5236 50.8891 20.5172 50.8909L21.1462 52.9936C21.0829 53.0124 20.8902 53.0696 18.951 53.4029Z" fill="#E98862"/>
<path d="M18.8167 56.2666C18.8315 56.3238 18.8579 56.3773 18.8944 56.4238C18.9309 56.4703 18.9767 56.5088 19.0288 56.5369C19.0809 56.565 19.1383 56.5821 19.1973 56.5872C19.2564 56.5922 19.3159 56.5851 19.372 56.5663C19.4499 56.5401 19.5186 56.4924 19.5701 56.4287C19.6217 56.365 19.6538 56.288 19.6628 56.2067L19.8677 53.5218C19.8715 53.4698 19.8639 53.4176 19.8456 53.3688C19.8272 53.32 19.7985 53.2757 19.7614 53.239C19.4379 52.9582 19.2135 52.5816 19.1211 52.1644C19.0622 51.8361 19.0973 51.498 19.2223 51.1887C19.2354 51.1609 19.2403 51.13 19.2364 51.0996C19.2326 51.0692 19.2201 51.0405 19.2005 51.0169C19.1808 50.9932 19.1548 50.9757 19.1255 50.9662C19.0963 50.9567 19.0649 50.9557 19.035 50.9633L17.8187 51.2691C17.7828 51.2781 17.7491 51.2941 17.7194 51.3161C17.6898 51.3382 17.6648 51.3658 17.6459 51.3975C17.627 51.4292 17.6145 51.4642 17.6093 51.5007C17.604 51.5372 17.6061 51.5743 17.6153 51.61L18.8167 56.2666Z" fill="#C4C4EB"/>
<path d="M30.881 49.4278L30.8705 49.3394C30.5946 47.0565 29.0577 35.9277 28.8762 34.7513H20.9294C20.9294 34.7513 17.8372 44.8103 17.7176 45.089L10.1205 43.4768L9.16699 47.2239L18.5202 49.9618C19.0166 50.1069 19.5485 50.0738 20.0229 49.8684C20.4973 49.663 20.8842 49.2983 21.116 48.8379C21.116 48.8379 24.5117 40.2044 24.5798 40.0454L26.6761 48.2921L19.5846 50.3009L20.6478 54.0187L29.4865 51.5149C29.9303 51.3889 30.3145 51.1096 30.5701 50.727C30.8257 50.3445 30.9359 49.8839 30.881 49.4278Z" fill="#262626"/>
<path d="M13.7334 15.6084L12.5443 15.9691C12.5443 15.9691 11.5393 14.57 12.097 13.0891C12.2818 12.5981 12.8422 12.7975 12.8762 12.9758C12.9874 13.5649 12.9513 14.3694 13.2696 14.7755C13.3094 14.5442 13.3826 14.2314 13.4864 14.2466C13.7593 14.287 13.7334 15.6084 13.7334 15.6084Z" fill="#E98862"/>
<path d="M118.576 11.435L117.41 11.0058C117.41 11.0058 117.263 9.41196 118.608 8.5693C119.053 8.28995 119.379 8.78639 119.297 8.94863C119.027 9.48446 118.707 9.97766 118.714 10.4927C118.886 10.3325 119.134 10.1277 119.208 10.2024C119.4 10.3989 118.576 11.435 118.576 11.435Z" fill="#E98862"/>
<path d="M132.722 14.5891L133.962 14.6652C133.962 14.6652 134.613 13.0721 133.725 11.7604C133.432 11.3258 132.932 11.6492 132.941 11.8303C132.97 12.429 133.193 13.2032 132.978 13.6718C132.886 13.456 132.741 13.1687 132.644 13.2076C132.388 13.3095 132.722 14.5891 132.722 14.5891Z" fill="#E98862"/>
<path d="M134.691 14.3394L133.404 21.0652C133.373 21.2262 133.307 21.3787 133.212 21.5123C133.117 21.6459 132.993 21.7574 132.85 21.8392L127.962 24.6422C128.025 26.3116 126.36 28.2161 126.055 29.9556C125.677 32.1181 126.491 33.2569 126.225 34.3538C125.806 36.0787 117.364 34.1929 117.104 33.1263C116.835 32.0284 117.852 31.555 118.396 28.2069C118.655 26.6126 118.514 24.6204 118.935 23.2445L115.013 18.2822C114.898 18.136 114.82 17.9641 114.787 17.7813C114.754 17.5985 114.766 17.4104 114.822 17.2333L117.004 10.4009L119.185 11.0904L117.187 17.3482L120.581 21.644C120.883 21.6018 121.188 21.6025 121.489 21.6461C121.554 21.6545 121.659 21.6702 121.795 21.691C121.723 22.2625 125.245 22.8705 125.421 22.3053C125.869 22.378 126.301 22.5238 126.701 22.7368L131.254 20.1261L132.443 13.9132L134.691 14.3394Z" fill="#6A6ACE"/>
<path d="M82.6957 73.3148C74.813 69.7931 74.0671 55.5729 74.4363 54.2219C74.5728 53.7222 74.3326 53.5927 73.9762 53.6273C73.5004 53.5722 72.6176 54.0171 72.3302 54.1705C72.0427 54.0169 71.1599 53.572 70.6841 53.6273C70.3273 53.5927 70.0875 53.7222 70.224 54.2219C70.5932 55.5729 69.8468 69.7931 61.9646 73.3148C60.3084 74.0548 60.8788 74.9359 60.8788 74.9359H83.7817C83.7817 74.9359 84.3519 74.0548 82.6957 73.3148Z" fill="#F4930C"/>
<g opacity="0.09">
<path d="M83.781 74.9366H82.3115C82.3115 74.9366 82.8825 74.0549 81.2262 73.3152C73.3435 69.7935 73.6468 55.5731 74.0163 54.2223C74.1234 53.8295 73.9974 53.6655 73.7644 53.63C73.8344 53.6215 73.9052 53.6208 73.9754 53.6279C74.3323 53.5934 74.5726 53.723 74.4362 54.2223C74.0667 55.5731 74.813 69.7935 82.6957 73.3152C84.3524 74.0546 83.781 74.9366 83.781 74.9366Z" fill="black"/>
</g>
<path d="M103.83 36.6742C101.535 40.2272 98.7573 41.2197 95.6578 42.0952C92.6107 42.956 89.9793 43.6988 88.3135 46.4892C87.9059 47.1516 87.6042 47.8731 87.4192 48.6277V48.6298C87.3763 48.8101 87.3428 48.9926 87.3188 49.1764C87.2912 49.4168 87.2055 49.6471 87.0692 49.8475C86.9531 50.0167 86.7955 50.1537 86.6113 50.2453C86.4272 50.337 86.2225 50.3804 86.0168 50.3713C85.3976 50.3713 85.0355 50.1219 84.8253 49.8119C84.6378 49.5264 84.5617 49.1824 84.6116 48.8449C84.6213 48.7727 84.6321 48.7003 84.644 48.6277C84.857 47.3796 85.3061 46.1831 85.9676 45.1018C88.1876 41.3816 91.7605 40.3725 94.9124 39.4813C97.8032 38.6654 99.7975 37.8944 101.535 35.2054C102.398 33.866 103.319 30.7915 102.218 28.3479C101.36 26.4466 99.957 25.3319 98.0478 25.0331C92.8352 24.2182 90.3865 29.2725 90.2847 29.4877C90.1283 29.8073 89.8521 30.0531 89.5156 30.1723C89.1791 30.2916 88.809 30.2747 88.4848 30.1253C88.1607 29.976 87.9083 29.7061 87.7819 29.3735C87.6554 29.041 87.6651 28.6724 87.8087 28.3469C88.4485 27.0769 89.3043 25.9268 90.3383 24.9474C92.6338 22.7744 95.4468 21.877 98.4706 22.3503C101.269 22.787 103.484 24.5222 104.708 27.2364C106.102 30.3308 105.307 34.3884 103.83 36.6742Z" fill="#F4930C"/>
<path d="M40.8353 36.6742C43.1308 40.2272 46.118 41.2197 49.2176 42.0952C52.2646 42.956 54.896 43.6988 56.5618 46.4892C56.9694 47.1516 57.2711 47.8731 57.4561 48.6277V48.6298C57.499 48.8101 57.5325 48.9926 57.5564 49.1764C57.5841 49.4168 57.6698 49.6471 57.8061 49.8475C57.9222 50.0167 58.0798 50.1537 58.2639 50.2453C58.4481 50.337 58.6527 50.3804 58.8584 50.3713C59.4777 50.3713 59.8397 50.1219 60.05 49.8119C60.2375 49.5263 60.3135 49.1824 60.2636 48.8449C60.2539 48.7727 60.2431 48.7003 60.2313 48.6277C60.0183 47.3796 59.5692 46.1831 58.9077 45.1018C56.6877 41.3816 53.1148 40.3725 49.9628 39.4813C47.0721 38.6654 44.8679 37.8944 43.1308 35.2054C42.2669 33.866 41.5563 30.7915 42.6574 28.3479C43.5149 26.4466 44.9183 25.3319 46.8276 25.0331C52.04 24.2182 54.4888 29.2725 54.5906 29.4877C54.747 29.8073 55.0232 30.0531 55.3597 30.1723C55.6962 30.2916 56.0663 30.2747 56.3905 30.1253C56.7146 29.976 56.967 29.7061 57.0935 29.3735C57.2199 29.041 57.2103 28.6724 57.0667 28.3469C56.4268 27.0769 55.571 25.9268 54.5371 24.9474C52.2415 22.7744 49.4285 21.877 46.4046 22.3503C43.6063 22.787 41.3916 24.5222 40.1677 27.2364C38.7731 30.3308 39.3584 34.3884 40.8353 36.6742Z" fill="#F4930C"/>
<path d="M89.7932 20.7126C89.7394 20.2435 89.514 19.8105 89.16 19.4961C88.806 19.1818 88.3482 19.0082 87.8737 19.0083H56.9736C56.4992 19.0082 56.0414 19.1818 55.6874 19.4961C55.3333 19.8105 55.108 20.2435 55.0542 20.7126C54.5571 25.0854 53.6687 36.8115 57.4464 43.2814C62.1516 51.34 69.2927 54.2219 70.8309 54.2219H74.0161C75.5542 54.2219 82.6953 51.34 87.4005 43.2814C91.1785 36.8117 90.2904 25.0854 89.7932 20.7126Z" fill="#F4930C"/>
<g opacity="0.09">
<path d="M89.7932 20.7126C89.7394 20.2435 89.514 19.8105 89.16 19.4961C88.806 19.1818 88.3481 19.0082 87.8737 19.0083H81.6841C81.6841 19.0083 82.7366 35.0895 80.7666 43.148C78.7967 51.2066 73.9615 54.2219 74.0166 54.2219C75.5547 54.2219 82.6958 51.34 87.401 43.2814C91.1785 36.8117 90.2904 25.0854 89.7932 20.7126Z" fill="black"/>
</g>
<path d="M83.7817 74.9359H60.8889V80.3808H83.7817V74.9359Z" fill="#0F1011"/>
<path d="M85.1764 80.3809H59.4941V81.6904H85.1764V80.3809Z" fill="#0F1011"/>
<path d="M86.4961 81.6905H58.1743V83H86.4961V81.6905Z" fill="#0F1011"/>
<path d="M77.2062 39.5783L72.406 37.0657L67.6019 39.5783L68.5212 34.2589L64.6362 30.4903L70.0038 29.7158L72.406 24.8748L74.8023 29.7158L80.1717 30.4903L76.287 34.2589L77.2062 39.5783Z" fill="white"/>
<path d="M32.4403 18.4872L29.8979 12.5304L27.7915 13.421L30.0555 18.7255L26.5392 22.7839C26.2399 22.7284 25.9343 22.7154 25.6313 22.7451C25.5662 22.7503 25.4613 22.7618 25.3248 22.7764C25.2491 22.7849 25.1616 22.795 25.0679 22.8059L24.9385 22.1228L21.483 22.5865L21.5784 23.2422C20.8381 23.3522 20.2236 23.6163 19.7981 23.9699L14.8714 21.3214L14.0702 15.1278L11.8003 15.4188L12.6764 22.1915C12.6996 22.3707 12.7654 22.5419 12.8682 22.6908C12.971 22.8398 13.1079 22.9623 13.2677 23.0482L19.0631 26.1631C19.3056 27.6614 20.4994 29.3352 20.6926 30.8414C20.9718 33.0186 20.108 34.1197 20.3231 35.2271C20.6632 36.9685 29.182 35.4653 29.4906 34.4122C29.8086 33.3257 28.8146 32.8085 28.4231 29.4384C28.2366 27.8348 28.4691 25.8505 28.111 24.4574L32.2536 19.6763C32.3932 19.5152 32.4847 19.3184 32.5177 19.1083C32.5507 18.8981 32.5239 18.683 32.4403 18.4872Z" fill="#6A6ACE"/>
<path d="M125.421 22.3053C125.245 22.8704 124.087 23.679 122.83 23.375C121.887 23.1483 121.723 22.2624 121.795 21.691C122.526 21.8059 124.165 22.0869 125.418 22.3042C125.419 22.3042 125.419 22.3042 125.42 22.3044C125.42 22.3046 125.421 22.3049 125.421 22.3053Z" fill="#E98862"/>
</g>
<defs>
<clipPath id="clip0_245_113719">
<rect width="147" height="83" fill="white"/>
</clipPath>
</defs>
</svg>
