<svg width="25" height="24" viewBox="0 0 25 24" fill="none" xmlns="http://www.w3.org/2000/svg">
<path d="M18.05 17.25H7.3438L4.72817 2.86875C4.69757 2.69653 4.60773 2.54042 4.4742 2.42743C4.34066 2.31444 4.17184 2.25168 3.99692 2.25H2.30005" stroke="#B9B9B9" stroke-width="1.5" stroke-linecap="round" stroke-linejoin="round"/>
<path d="M8.30005 21C9.33558 21 10.175 20.1605 10.175 19.125C10.175 18.0895 9.33558 17.25 8.30005 17.25C7.26451 17.25 6.42505 18.0895 6.42505 19.125C6.42505 20.1605 7.26451 21 8.30005 21Z" stroke="#B9B9B9" stroke-width="1.5" stroke-linecap="round" stroke-linejoin="round"/>
<path d="M18.05 21C19.0856 21 19.925 20.1605 19.925 19.125C19.925 18.0895 19.0856 17.25 18.05 17.25C17.0145 17.25 16.175 18.0895 16.175 19.125C16.175 20.1605 17.0145 21 18.05 21Z" stroke="#B9B9B9" stroke-width="1.5" stroke-linecap="round" stroke-linejoin="round"/>
<path d="M6.65942 13.5H18.4344C18.785 13.5011 19.1248 13.3785 19.394 13.1539C19.6632 12.9293 19.8446 12.617 19.9063 12.2719L21.05 6H5.30005" stroke="#B9B9B9" stroke-width="1.5" stroke-linecap="round" stroke-linejoin="round"/>
</svg>
