<svg width="24" height="24" viewBox="0 0 24 24" fill="none" xmlns="http://www.w3.org/2000/svg">
<path d="M12 16.5C14.4853 16.5 16.5 14.4853 16.5 12C16.5 9.51472 14.4853 7.5 12 7.5C9.51472 7.5 7.5 9.51472 7.5 12C7.5 14.4853 9.51472 16.5 12 16.5Z" stroke="#8B8B8B" stroke-width="1.5" stroke-linecap="round" stroke-linejoin="round"/>
<path d="M17.2219 6.10303C17.4594 6.32178 17.6844 6.54678 17.8969 6.77803L20.4563 7.14365C20.8733 7.86788 21.1947 8.64308 21.4125 9.4499L19.8563 11.5218C19.8563 11.5218 19.8844 12.1593 19.8563 12.478L21.4125 14.5499C21.1957 15.3571 20.8742 16.1324 20.4563 16.8562L17.8969 17.2218C17.8969 17.2218 17.4563 17.6812 17.2219 17.8968L16.8563 20.4562C16.132 20.8732 15.3568 21.1946 14.55 21.4124L12.4782 19.8562C12.16 19.8843 11.84 19.8843 11.5219 19.8562L9.45002 21.4124C8.64286 21.1956 7.86753 20.8741 7.14377 20.4562L6.77815 17.8968C6.5469 17.678 6.3219 17.453 6.10315 17.2218L3.54377 16.8562C3.12676 16.1319 2.80533 15.3567 2.58752 14.5499L4.14377 12.478C4.14377 12.478 4.11565 11.8405 4.14377 11.5218L2.58752 9.4499C2.80432 8.64274 3.1258 7.8674 3.54377 7.14365L6.10315 6.77803C6.3219 6.54678 6.5469 6.32178 6.77815 6.10303L7.14377 3.54365C7.868 3.12664 8.6432 2.80521 9.45002 2.5874L11.5219 4.14365C11.84 4.11552 12.16 4.11552 12.4782 4.14365L14.55 2.5874C15.3572 2.8042 16.1325 3.12568 16.8563 3.54365L17.2219 6.10303Z" stroke="#8B8B8B" stroke-width="1.5" stroke-linecap="round" stroke-linejoin="round"/>
</svg>
