<svg width="22" height="49" viewBox="0 0 22 49" fill="none" xmlns="http://www.w3.org/2000/svg">
<path d="M20.2617 7.3523C19.4584 6.0312 18.418 4.99078 17.0969 4.32781C15.7758 3.62128 14.2611 3.28738 12.5626 3.28738C11.1931 3.28738 9.86712 3.5245 8.73475 4.04229C8.49763 3.33577 8.12017 2.76474 7.60238 2.24695C6.42162 1.11458 4.67466 0.5 2.26474 0.5C1.74695 0.5 1.3211 0.548392 0.943644 0.591945C0.566186 0.640337 0.237121 0.688729 0 0.732281V5.1795C0.188729 5.13111 0.377457 5.08272 0.566186 5.08272H1.13237C1.74695 5.08272 2.26474 5.1795 2.59865 5.31984C2.97611 5.50857 3.26162 5.79408 3.45035 6.21993C3.63908 6.59739 3.77941 7.12002 3.77941 7.72976V24.5944C3.77941 26.4381 4.15687 28.0447 4.91179 29.3658C5.71509 30.6869 6.75552 31.6789 8.07662 32.3903C9.39772 33.0968 10.9124 33.4307 12.6109 33.4307C14.3095 33.4307 15.7274 33.1017 17.1017 32.3903C18.4228 31.6838 19.4633 30.6869 20.2666 29.3658C21.0215 28.0447 21.3989 26.4381 21.3989 24.5944V12.1673C21.3989 10.28 21.0215 8.6734 20.2666 7.34746L20.2617 7.3523ZM15.7274 25.0202C15.7274 25.7267 15.5871 26.3897 15.3499 26.9075C15.1128 27.4737 14.7354 27.8995 14.2611 28.185C13.7869 28.5141 13.2207 28.6593 12.5577 28.6593C11.8947 28.6593 11.3286 28.519 10.8592 28.185C10.4333 27.8995 10.1042 27.4785 9.86712 26.9075C9.63 26.3897 9.48967 25.7267 9.48967 25.0202V11.7898C9.48967 11.0349 9.63 10.372 9.86712 9.85417C10.1042 9.28798 10.4333 8.86213 10.8592 8.53307C11.3334 8.24756 11.8996 8.05883 12.5577 8.05883C13.2642 8.05883 13.7869 8.24756 14.2611 8.53307C14.7354 8.86213 15.1128 9.28798 15.3499 9.81062C15.5871 10.3768 15.7274 11.0398 15.7274 11.7947V25.0251V25.0202Z" fill="url(#paint0_linear_245_113802)"/>
<path d="M21.3748 32.3419V39.6636C21.3748 41.5557 20.9974 43.114 20.2425 44.4351C19.4876 45.7562 18.3987 46.7482 17.0776 47.4596C15.7565 48.1661 14.2419 48.5 12.6352 48.5C10.8883 48.5 9.37363 48.1709 8.05253 47.4596C6.73143 46.753 5.691 45.7562 4.93608 44.4351C4.18117 43.114 3.80371 41.5509 3.80371 39.6636V32.2935C4.65541 33.5711 5.78778 34.5631 7.15728 35.318C7.72346 35.6035 8.28965 35.7923 8.90423 36.0245C9.09295 36.0729 9.28168 36.1213 9.5188 36.1649V40.0846C9.5188 40.7912 9.61075 41.4541 9.84787 41.9719C10.085 42.5381 10.4141 42.964 10.8883 43.293C11.3141 43.5785 11.8803 43.7189 12.5869 43.7189C13.2498 43.7189 13.7676 43.5785 14.2419 43.293C14.7161 42.964 15.0936 42.5381 15.3307 41.9719C15.6162 41.4541 15.7081 40.7912 15.7081 40.0846V36.1165C15.9453 36.1165 16.134 36.0197 16.3711 35.9761C16.9373 35.7874 17.5035 35.5987 18.0261 35.3132C19.3956 34.5583 20.4844 33.6146 21.3797 32.3371L21.3748 32.3419Z" fill="url(#paint1_linear_245_113802)"/>
<defs>
<linearGradient id="paint0_linear_245_113802" x1="-0.0048392" y1="16.963" x2="21.3989" y2="16.963" gradientUnits="userSpaceOnUse">
<stop stop-color="#2F2FBA"/>
<stop offset="1" stop-color="#3333FF"/>
</linearGradient>
<linearGradient id="paint1_linear_245_113802" x1="3.79887" y1="40.3992" x2="21.3748" y2="40.3992" gradientUnits="userSpaceOnUse">
<stop stop-color="#2F2FBA"/>
<stop offset="1" stop-color="#3333FF"/>
</linearGradient>
</defs>
</svg>
