<svg width="24" height="24" viewBox="0 0 24 24" fill="none" xmlns="http://www.w3.org/2000/svg">
<path d="M20.25 6.75H3.75C3.33579 6.75 3 7.08579 3 7.5V18.75C3 19.1642 3.33579 19.5 3.75 19.5H20.25C20.6642 19.5 21 19.1642 21 18.75V7.5C21 7.08579 20.6642 6.75 20.25 6.75Z" stroke="#8B8B8B" stroke-width="1.5" stroke-linecap="round" stroke-linejoin="round"/>
<path d="M7.5 2.25L12 6.75L16.5 2.25" stroke="#8B8B8B" stroke-width="1.5" stroke-linecap="round" stroke-linejoin="round"/>
<path d="M17.625 11.8125C18.1428 11.8125 18.5625 11.3928 18.5625 10.875C18.5625 10.3572 18.1428 9.9375 17.625 9.9375C17.1072 9.9375 16.6875 10.3572 16.6875 10.875C16.6875 11.3928 17.1072 11.8125 17.625 11.8125Z" fill="#8B8B8B"/>
<path d="M17.625 16.3125C18.1428 16.3125 18.5625 15.8928 18.5625 15.375C18.5625 14.8572 18.1428 14.4375 17.625 14.4375C17.1072 14.4375 16.6875 14.8572 16.6875 15.375C16.6875 15.8928 17.1072 16.3125 17.625 16.3125Z" fill="#8B8B8B"/>
<path d="M14.25 19.5V6.75" stroke="#8B8B8B" stroke-width="1.5" stroke-linecap="round" stroke-linejoin="round"/>
</svg>
