<svg width="24" height="24" viewBox="0 0 24 24" fill="none" xmlns="http://www.w3.org/2000/svg">
<path d="M18 11.25H20.5406C20.679 11.2503 20.8148 11.2118 20.9324 11.1389C21.0501 11.066 21.1449 10.9616 21.2062 10.8375L22.9313 7.3875C23.0167 7.21472 23.0333 7.0159 22.9776 6.83136C22.9218 6.64682 22.798 6.49038 22.6312 6.39375L18 3.75" stroke="#8B8B8B" stroke-width="1.5" stroke-linecap="round" stroke-linejoin="round"/>
<path d="M6.00002 11.25H3.45939C3.32098 11.2503 3.18525 11.2118 3.0676 11.1389C2.94995 11.066 2.85509 10.9616 2.79377 10.8375L1.06877 7.3875C0.983302 7.21472 0.966747 7.0159 1.02246 6.83136C1.07817 6.64682 1.20197 6.49038 1.36877 6.39375L6.00002 3.75" stroke="#8B8B8B" stroke-width="1.5" stroke-linecap="round" stroke-linejoin="round"/>
<path d="M15 3.75C15 4.54565 14.6839 5.30871 14.1213 5.87132C13.5587 6.43393 12.7956 6.75 12 6.75C11.2044 6.75 10.4413 6.43393 9.87868 5.87132C9.31607 5.30871 9 4.54565 9 3.75H6V19.5C6 19.6989 6.07902 19.8897 6.21967 20.0303C6.36032 20.171 6.55109 20.25 6.75 20.25H17.25C17.4489 20.25 17.6397 20.171 17.7803 20.0303C17.921 19.8897 18 19.6989 18 19.5V3.75H15Z" stroke="#8B8B8B" stroke-width="1.5" stroke-linecap="round" stroke-linejoin="round"/>
</svg>
