<svg width="24" height="24" viewBox="0 0 24 24" fill="none" xmlns="http://www.w3.org/2000/svg">
<path d="M15.0267 9C13.6067 9 12.3376 9.68151 12.3376 10.9407C12.3376 12.3847 14.5883 12.4844 14.5883 13.2098C14.5883 13.5153 14.2103 13.7887 13.5646 13.7887C12.6482 13.7887 11.9633 13.4067 11.9633 13.4067L11.6702 14.6773C11.6702 14.6773 12.4592 15 13.5067 15C15.0593 15 16.281 14.285 16.281 13.0043C16.281 11.4785 14.0209 11.3817 14.0209 10.7084C14.0209 10.4691 14.3313 10.2069 14.9751 10.2069C15.7016 10.2069 16.2943 10.4848 16.2943 10.4848L16.5811 9.2576C16.5811 9.2576 15.9362 9 15.0267 9ZM2.03439 9.09262L2 9.27786C2 9.27786 2.59743 9.3791 3.13551 9.58104C3.82834 9.81261 3.87769 9.94742 3.99437 10.3661L5.26586 14.9045H6.9703L9.59612 9.09262H7.89559L6.20835 13.0441L5.51985 9.69465C5.45671 9.3113 5.13688 9.09262 4.74539 9.09262H2.03439ZM10.2799 9.09262L8.94592 14.9045H10.5675L11.8968 9.09262H10.2799ZM19.3242 9.09262C18.9331 9.09262 18.726 9.28646 18.5739 9.62518L16.1982 14.9045H17.8987L18.2277 14.0246H20.2995L20.4995 14.9045H22L20.691 9.09262H19.3242ZM19.5453 10.6628L20.0494 12.8437H18.699L19.5453 10.6628Z" fill="#1434CB"/>
</svg>
