<svg width="24" height="24" viewBox="0 0 24 24" fill="none" xmlns="http://www.w3.org/2000/svg">
<path d="M3.75 6V18C3.75 18.3978 3.90804 18.7794 4.18934 19.0607C4.47064 19.342 4.85218 19.5 5.25 19.5H20.25C20.4489 19.5 20.6397 19.421 20.7803 19.2803C20.921 19.1397 21 18.9489 21 18.75V8.25C21 8.05109 20.921 7.86032 20.7803 7.71967C20.6397 7.57902 20.4489 7.5 20.25 7.5H5.25C4.85218 7.5 4.47064 7.34196 4.18934 7.06066C3.90804 6.77936 3.75 6.39782 3.75 6ZM3.75 6C3.75 5.60218 3.90804 5.22064 4.18934 4.93934C4.47064 4.65804 4.85218 4.5 5.25 4.5H18" stroke="#8B8B8B" stroke-width="1.5" stroke-linecap="round" stroke-linejoin="round"/>
<path d="M16.875 14.4375C17.3928 14.4375 17.8125 14.0178 17.8125 13.5C17.8125 12.9822 17.3928 12.5625 16.875 12.5625C16.3572 12.5625 15.9375 12.9822 15.9375 13.5C15.9375 14.0178 16.3572 14.4375 16.875 14.4375Z" fill="#8B8B8B"/>
</svg>
