<svg width="1000" height="1000" viewBox="0 0 1000 1000" fill="none" xmlns="http://www.w3.org/2000/svg">
<rect width="1000" height="1000" fill="white"/>
<path fill-rule="evenodd" clip-rule="evenodd" d="M364.583 406.25C364.583 394.744 373.911 385.417 385.417 385.417H614.584C626.089 385.417 635.417 394.744 635.417 406.25V593.75C635.417 605.256 626.089 614.584 614.584 614.584H385.417C373.911 614.584 364.583 605.256 364.583 593.75V406.25ZM614.584 406.25H385.417V593.75H614.584V406.25Z" fill="#8B8B8B"/>
<path fill-rule="evenodd" clip-rule="evenodd" d="M439.871 474.681C442.419 473.614 445.154 473.064 447.917 473.064C450.68 473.064 453.415 473.614 455.963 474.681C458.497 475.742 460.796 477.294 462.728 479.246L520.834 537.352L520.889 537.296L547.69 510.496C549.621 508.543 551.92 506.992 554.454 505.931C557.002 504.864 559.737 504.314 562.5 504.314C565.263 504.314 567.998 504.864 570.546 505.931C573.08 506.992 575.379 508.543 577.311 510.496C577.322 510.507 577.333 510.518 577.344 510.53L632.366 565.551C636.434 569.619 636.434 576.215 632.366 580.283C628.298 584.35 621.702 584.35 617.634 580.283L562.5 525.148L562.444 525.205L535.644 552.004C533.712 553.957 531.413 555.508 528.88 556.569C526.331 557.636 523.596 558.186 520.834 558.186C518.071 558.186 515.336 557.636 512.787 556.569C510.254 555.508 507.955 553.957 506.023 552.004L447.917 493.898L447.861 493.955L382.366 559.449C378.298 563.517 371.702 563.517 367.634 559.449C363.567 555.381 363.567 548.786 367.634 544.718L433.106 479.246C435.038 477.294 437.337 475.742 439.871 474.681Z" fill="#8B8B8B"/>
<path d="M536.458 476.563C543.65 476.563 549.479 470.733 549.479 463.542C549.479 456.351 543.65 450.521 536.458 450.521C529.267 450.521 523.438 456.351 523.438 463.542C523.438 470.733 529.267 476.563 536.458 476.563Z" fill="#8B8B8B"/>
</svg>
