<svg width="312" height="151" viewBox="0 0 312 151" fill="none" xmlns="http://www.w3.org/2000/svg">
    <defs>
        <clipPath id="clip0_466_16184">
            <rect width="312" height="151" rx="8" fill="white"/>
        </clipPath>
    </defs>

    <g clip-path="url(#clip0_466_16184)">
<rect width="312" height="151" rx="8" fill="#8888D8"/>
<g opacity="0.2">
<path d="M304.879 -106.173C299.848 -114.43 293.333 -120.933 285.061 -125.076C276.788 -129.492 267.303 -131.579 256.667 -131.579C248.091 -131.579 239.788 -130.097 232.697 -126.861C231.212 -131.276 228.848 -134.845 225.606 -138.082C218.212 -145.159 207.273 -149 192.182 -149C188.939 -149 186.273 -148.698 183.909 -148.425C181.545 -148.123 179.485 -147.82 178 -147.548V-119.753C179.182 -120.056 180.364 -120.358 181.545 -120.358H185.091C188.939 -120.358 192.182 -119.753 194.273 -118.876C196.636 -117.696 198.424 -115.912 199.606 -113.25C200.788 -110.891 201.667 -107.625 201.667 -103.814L201.667 1.58978C201.667 13.1131 204.03 23.1544 208.758 31.4113C213.788 39.6682 220.303 45.8684 228.576 50.3145C236.848 54.7302 246.333 56.8171 256.97 56.8171C267.606 56.8171 276.485 54.7605 285.091 50.3145C293.364 45.8987 299.879 39.6682 304.909 31.4113C309.636 23.1544 312 13.1131 312 1.58978V-76.0793C312 -87.8749 309.636 -97.9162 304.909 -106.203L304.879 -106.173ZM276.485 4.25133C276.485 8.6671 275.606 12.8107 274.121 16.0469C272.636 19.5855 270.273 22.2471 267.303 24.0316C264.333 26.0882 260.788 26.9956 256.636 26.9956C252.485 26.9956 248.939 26.1185 246 24.0316C243.333 22.2471 241.273 19.6158 239.788 16.0469C238.303 12.8107 237.424 8.6671 237.424 4.25133L237.424 -78.4385C237.424 -83.1567 238.303 -87.3002 239.788 -90.5364C241.273 -94.0751 243.333 -96.7367 246 -98.7933C248.97 -100.578 252.515 -101.757 256.636 -101.757C261.061 -101.757 264.333 -100.578 267.303 -98.7933C270.273 -96.7367 272.636 -94.0751 274.121 -90.8087C275.606 -87.27 276.485 -83.1264 276.485 -78.4082V4.28159V4.25133Z" fill="white"/>
<path d="M311.849 50.0121V95.7727C311.849 107.598 309.485 117.337 304.758 125.594C300.03 133.851 293.212 140.051 284.94 144.497C276.667 148.913 267.182 151 257.121 151C246.182 151 236.697 148.943 228.424 144.497C220.152 140.082 213.637 133.851 208.909 125.594C204.182 117.337 201.818 107.568 201.818 95.7727V49.7096C207.152 57.6943 214.243 63.8945 222.818 68.6127C226.364 70.3972 229.909 71.5767 233.758 73.0285C234.94 73.3309 236.121 73.6334 237.606 73.9056V98.404C237.606 102.82 238.182 106.963 239.667 110.2C241.152 113.738 243.212 116.4 246.182 118.456C248.849 120.241 252.394 121.118 256.818 121.118C260.97 121.118 264.212 120.241 267.182 118.456C270.152 116.4 272.515 113.738 274 110.2C275.788 106.963 276.364 102.82 276.364 98.404V73.6031C277.849 73.6031 279.03 72.9982 280.515 72.726C284.061 71.5465 287.606 70.3669 290.879 68.5825C299.455 63.8643 306.273 57.9665 311.879 49.9818L311.849 50.0121Z" fill="white"/>
</g>
</g>
</svg>
