<svg width="305" height="374" viewBox="0 0 305 374" fill="none" xmlns="http://www.w3.org/2000/svg">
    <path
        d="M254.792 0.0253906H113.208C101.495 0.0253906 92 9.45188 92 21.08V351.509C92 363.137 101.495 372.564 113.208 372.564H254.792C266.505 372.564 276 363.137 276 351.509V21.08C276 9.45188 266.505 0.0253906 254.792 0.0253906Z"
        fill="#292A2E" />
    <path
        d="M254.726 6.6001H113.274C105.231 6.6001 98.7115 13.0729 98.7115 21.0576V351.04C98.7115 359.025 105.231 365.498 113.274 365.498H254.726C262.769 365.498 269.288 359.025 269.288 351.04V21.0576C269.288 13.0729 262.769 6.6001 254.726 6.6001Z"
        fill="white" />
    <path
        d="M149.065 3.88135H218.935V11.0588C218.936 12.0783 218.734 13.0879 218.341 14.03C217.948 14.972 217.373 15.8279 216.647 16.549C215.921 17.27 215.059 17.842 214.11 18.2322C213.161 18.6225 212.144 18.8233 211.117 18.8233H156.883C154.809 18.8233 152.821 18.0056 151.354 16.55C149.888 15.0944 149.065 13.1202 149.065 11.0616V3.88135Z"
        fill="#292A2E" />
    <path opacity="0.8"
        d="M224.459 234.956H143.541C138.773 234.956 134.908 238.793 134.908 243.527V266.541C134.908 271.274 138.773 275.112 143.541 275.112H224.459C229.227 275.112 233.092 271.274 233.092 266.541V243.527C233.092 238.793 229.227 234.956 224.459 234.956Z"
        fill="#2F2FBA" />
    <path
        d="M233.089 266.542V270.485C233.089 271.611 232.866 272.725 232.432 273.765C231.998 274.805 231.363 275.75 230.561 276.545C229.759 277.341 228.808 277.973 227.76 278.403C226.713 278.834 225.59 279.055 224.457 279.055H143.541C142.407 279.055 141.285 278.834 140.237 278.403C139.19 277.973 138.238 277.341 137.436 276.545C136.635 275.75 135.999 274.805 135.565 273.765C135.131 272.725 134.908 271.611 134.908 270.485V266.542C134.908 268.814 135.818 270.994 137.436 272.601C139.055 274.208 141.251 275.111 143.54 275.111H224.457C225.59 275.111 226.713 274.889 227.76 274.459C228.807 274.028 229.759 273.397 230.561 272.601C231.362 271.805 231.998 270.861 232.432 269.821C232.866 268.781 233.089 267.667 233.089 266.542Z"
        fill="#2F2FBA" />
    <path
        d="M178.604 266.897C178.266 266.897 177.939 266.778 177.681 266.559L168.42 258.679C168.134 258.436 167.957 258.09 167.928 257.718C167.899 257.345 168.02 256.976 168.265 256.692C168.509 256.408 168.858 256.233 169.233 256.204C169.609 256.175 169.98 256.295 170.266 256.538L178.484 263.531L197.608 242.759C197.862 242.483 198.216 242.319 198.592 242.302C198.968 242.285 199.335 242.417 199.613 242.669C199.891 242.921 200.056 243.272 200.073 243.645C200.09 244.019 199.957 244.383 199.703 244.659L179.653 266.438C179.52 266.583 179.358 266.699 179.178 266.778C178.997 266.857 178.802 266.897 178.604 266.897Z"
        fill="white" />
    <g opacity="0.5">
        <path
            d="M246.277 130.659C246.277 137.041 240.029 142.366 238.146 148.123C236.194 154.095 238.028 162.033 234.386 167.002C230.708 172.02 222.509 172.724 217.454 176.376C212.45 179.992 209.262 187.535 203.249 189.474C197.448 191.344 190.429 187.164 184 187.164C177.57 187.164 170.55 191.345 164.751 189.474C158.736 187.536 155.55 179.992 150.546 176.376C145.491 172.724 137.292 172.02 133.614 167.002C129.972 162.033 131.806 154.092 129.854 148.123C127.97 142.365 121.722 137.04 121.722 130.659C121.722 124.278 127.97 118.951 129.854 113.194C131.806 107.225 129.972 99.284 133.614 94.3155C137.292 89.2975 145.491 88.5933 150.546 84.9414C155.55 81.3257 158.738 73.7814 164.75 71.8434C170.552 69.9735 177.571 74.1533 184 74.1533C190.429 74.1533 197.449 69.9719 203.249 71.8434C209.264 73.7814 212.45 81.3251 217.454 84.9414C222.509 88.5933 230.708 89.2975 234.386 94.3155C238.028 99.284 236.194 107.224 238.146 113.193C240.029 118.951 246.277 124.276 246.277 130.659Z"
            fill="#2F2FBA" />
    </g>
    <path d="M202.763 167.894H218.752V97.8141H202.763V167.894Z" fill="#2F2FBA" />
    <path
        d="M189.991 113.426C186.87 113.426 183.82 112.507 181.226 110.787C178.632 109.066 176.61 106.619 175.415 103.758C174.221 100.896 173.909 97.7467 174.518 94.7085C175.126 91.6704 176.629 88.8797 178.835 86.6893C181.042 84.499 183.853 83.0073 186.913 82.403C189.973 81.7987 193.145 82.1088 196.028 83.2943C198.91 84.4797 201.374 86.4871 203.108 89.0627C204.841 91.6383 205.766 94.6664 205.766 97.764C205.762 101.916 204.098 105.897 201.141 108.834C198.183 111.77 194.173 113.421 189.991 113.426ZM189.991 83.7922C187.207 83.7922 184.486 84.6116 182.172 86.1469C179.857 87.6821 178.054 89.8642 176.988 92.4172C175.923 94.9703 175.644 97.7795 176.187 100.49C176.73 103.2 178.071 105.69 180.039 107.644C182.007 109.598 184.515 110.928 187.245 111.467C189.975 112.007 192.805 111.73 195.376 110.672C197.948 109.615 200.146 107.824 201.692 105.526C203.239 103.229 204.064 100.527 204.064 97.764C204.06 94.0597 202.576 90.5083 199.937 87.8889C197.299 85.2695 193.722 83.7965 189.991 83.7922Z"
        fill="#2F2FBA" />
    <path
        d="M191.781 97.8136C191.781 97.7967 191.781 97.7804 191.781 97.764C191.781 93.6102 190.119 89.6265 187.16 86.6893C184.202 83.7521 180.189 82.1021 176.005 82.1021C171.821 82.1021 167.808 83.7521 164.85 86.6893C161.891 89.6265 160.229 93.6102 160.229 97.764C160.229 97.7804 160.229 97.7967 160.229 97.8136H149.248V167.893H202.761V97.8136H191.781ZM161.932 97.764C161.932 94.0585 163.414 90.5047 166.054 87.8844C168.693 85.2642 172.272 83.7922 176.005 83.7922C179.738 83.7922 183.317 85.2642 185.956 87.8844C188.596 90.5047 190.078 94.0585 190.078 97.764C190.078 97.7804 190.078 97.7967 190.078 97.8136H161.932C161.933 97.7967 161.932 97.7804 161.932 97.764Z"
        fill="white" />
    <path
        d="M19.5077 367.629L18.8779 371.591C18.8097 372.021 18.5904 372.412 18.2591 372.696C17.9278 372.98 17.5058 373.138 17.0682 373.142L1.02479 373.297C0.794383 373.299 0.570108 373.223 0.388803 373.082C0.207498 372.941 0.0799417 372.742 0.0270833 372.52C-0.0257751 372.297 -0.000792899 372.063 0.0979268 371.857C0.196646 371.65 0.363234 371.483 0.570331 371.382L10.202 366.724L19.5077 367.629Z"
        fill="#E98862" />
    <path d="M38.2743 347.433C38.2743 347.433 38.1659 370.807 55.2039 372.971L71.2444 358.396L81.1892 338.703L43.9656 342.781L38.2743 347.433Z"
        fill="#262626" />
    <path d="M37.8158 346.159L37.7648 346.173C37.7648 346.173 37.5991 345.181 37.8158 346.159Z" fill="#333333" />
    <path
        d="M103.501 278.297C103.499 278.287 103.49 278.28 103.485 278.271L103.689 277.974C103.83 277.776 103.899 277.536 103.882 277.293C103.866 277.051 103.766 276.821 103.599 276.644C103.491 276.535 103.361 276.45 103.217 276.397C103.073 276.344 102.919 276.323 102.766 276.336C102.613 276.349 102.465 276.396 102.333 276.473C102.2 276.55 102.086 276.655 101.999 276.78L101.527 277.465C101.524 277.462 101.524 277.457 101.52 277.455C101.516 277.452 101.509 277.455 101.504 277.451C101.59 277.234 101.6 276.995 101.532 276.771C101.464 276.548 101.321 276.355 101.127 276.223C100.649 275.85 99.9889 276.2 99.6836 276.642L96.8671 280.576L97.1292 279.21C97.1852 278.945 97.1379 278.669 96.9969 278.437C96.8558 278.205 96.6315 278.035 96.3692 277.961C96.2324 277.928 96.0902 277.922 95.9513 277.945C95.8123 277.968 95.6795 278.019 95.561 278.095C95.4425 278.17 95.3408 278.269 95.262 278.385C95.1832 278.501 95.1291 278.632 95.1028 278.769L93.6777 286.226C93.5106 287.101 93.6936 288.006 94.1878 288.749C94.6821 289.492 95.4486 290.014 96.3246 290.205C97.3406 290.426 98.4 290.341 99.3671 289.961C100.334 289.581 101.165 288.922 101.753 288.07C101.753 288.07 103.879 277.953 103.501 278.297Z"
        fill="#E98862" />
    <path
        d="M101.048 267.013L101.904 267.095C101.992 267.099 102.079 267.121 102.158 267.159C102.238 267.197 102.309 267.25 102.367 267.316C102.425 267.382 102.47 267.459 102.497 267.543C102.525 267.626 102.535 267.714 102.527 267.801L100.346 285.311C100.314 285.493 100.213 285.655 100.065 285.766C99.9163 285.877 99.7311 285.928 99.5463 285.909L98.5654 285.837L101.048 267.013Z"
        fill="#292A2E" />
    <path
        d="M98.7216 285.855L96.9052 285.719C96.824 285.717 96.744 285.699 96.6702 285.666C96.5964 285.632 96.5303 285.584 96.476 285.524C96.4217 285.464 96.3803 285.393 96.3545 285.317C96.3287 285.241 96.3189 285.16 96.3257 285.079L98.506 267.418C98.5352 267.253 98.6263 267.106 98.7609 267.005C98.8955 266.905 99.0636 266.859 99.2311 266.876L101.048 267.013C101.129 267.014 101.209 267.033 101.283 267.066C101.356 267.1 101.423 267.148 101.477 267.208C101.531 267.268 101.572 267.338 101.598 267.415C101.624 267.491 101.634 267.572 101.627 267.652L99.447 285.313C99.4179 285.478 99.3268 285.625 99.1921 285.726C99.0575 285.827 98.8892 285.873 98.7216 285.855Z"
        fill="#292A2E" />
    <path
        d="M98.5364 285.491L96.9274 285.36C96.8716 285.359 96.8167 285.347 96.766 285.323C96.7152 285.3 96.6698 285.267 96.6325 285.226C96.5952 285.185 96.5668 285.137 96.5491 285.084C96.5314 285.032 96.5247 284.976 96.5294 284.921L98.6913 267.578C98.7115 267.465 98.7741 267.363 98.8666 267.294C98.9591 267.225 99.0745 267.194 99.1895 267.206L100.777 267.338C100.833 267.34 100.888 267.352 100.939 267.375C100.989 267.398 101.035 267.431 101.072 267.473C101.109 267.514 101.137 267.562 101.155 267.615C101.173 267.667 101.18 267.723 101.175 267.778L99.0342 285.12C99.0142 285.233 98.9516 285.334 98.8592 285.403C98.7668 285.472 98.6514 285.504 98.5364 285.491Z"
        fill="white" />
    <path
        d="M100.374 267.922L99.6698 267.869C99.6399 267.868 99.6104 267.862 99.5832 267.849C99.5559 267.837 99.5316 267.819 99.5116 267.797C99.4915 267.775 99.4763 267.749 99.4668 267.721C99.4573 267.693 99.4537 267.663 99.4562 267.633L99.5227 267.095L100.708 267.184L100.642 267.722C100.631 267.783 100.597 267.837 100.548 267.874C100.498 267.911 100.436 267.928 100.374 267.922Z"
        fill="#292A2E" />
    <path
        d="M97.3743 280.176C97.4865 279.995 97.6527 279.853 97.8497 279.769C98.0467 279.686 98.265 279.665 98.4743 279.71C98.4743 279.692 98.48 279.673 98.4906 279.658C98.5015 279.646 98.5153 279.637 98.5307 279.632C98.546 279.628 98.5623 279.627 98.578 279.63L97.908 279.062C97.7066 278.899 97.5716 278.669 97.5278 278.415C97.484 278.161 97.5344 277.899 97.6697 277.679C97.8104 277.466 98.0258 277.312 98.2742 277.247C98.5226 277.183 98.7863 277.212 99.0141 277.33C99.0141 277.32 99.0208 277.311 99.0231 277.301L98.7473 277.068C98.5585 276.913 98.4292 276.698 98.3815 276.46C98.3337 276.222 98.3703 275.974 98.4851 275.76C98.5598 275.626 98.6633 275.511 98.7883 275.423C98.9132 275.334 99.0564 275.274 99.2075 275.247C99.3586 275.22 99.5139 275.226 99.6622 275.266C99.8105 275.306 99.948 275.378 100.065 275.476L100.701 276.015C100.704 276.011 100.701 276.007 100.705 276.003C100.708 276 100.715 275.999 100.72 275.995C100.579 275.809 100.506 275.58 100.514 275.347C100.521 275.114 100.608 274.89 100.76 274.712C101.124 274.228 101.853 274.394 102.264 274.743L103.474 275.941C103.661 276.125 103.799 276.353 103.875 276.604C103.952 276.854 103.965 277.119 103.913 277.376C103.468 279.597 102.165 285.372 100.852 284.259L97.6181 281.522C97.4306 281.358 97.3046 281.135 97.2603 280.891C97.2161 280.647 97.2562 280.395 97.3743 280.176Z"
        fill="#E98862" />
    <path
        d="M91.0007 285.612L86.2489 311.139L74.1028 292.554L64.8234 303.377L84.1768 329.622L84.3408 329.774C85.3372 330.673 86.548 331.306 87.859 331.613C89.17 331.92 90.538 331.89 91.8342 331.527C93.1305 331.163 94.3122 330.478 95.268 329.536C96.2238 328.594 96.9223 327.426 97.2976 326.142L105.269 287.884L91.0007 285.612Z"
        fill="#2E2E2E" />
    <path
        d="M85.5899 313.649C85.5768 313.649 85.5638 313.648 85.5512 313.644C85.514 313.634 85.4824 313.61 85.4634 313.576C85.4443 313.543 85.4393 313.504 85.4495 313.467L86.1085 311.1C86.1188 311.063 86.1434 311.032 86.177 311.013C86.2106 310.994 86.2504 310.989 86.2876 310.999C86.3249 311.01 86.3565 311.034 86.3756 311.067C86.3947 311.101 86.3996 311.14 86.3893 311.177L85.7303 313.543C85.7219 313.574 85.7035 313.601 85.6782 313.62C85.6528 313.639 85.6218 313.649 85.5899 313.649Z"
        fill="#0C0C0C" />
    <path
        d="M34.382 269.684C34.382 269.684 33.6175 276.479 31.9619 278.882C27.1953 285.802 25.5465 293.752 29.81 298.133C34.0734 302.514 62.4683 303.834 65.0532 294.308C67.2294 286.288 63.3819 285.244 62.7375 278.519C62.4462 275.477 61.5541 269.084 61.5541 269.084"
        fill="#0A0A0A" />
    <path
        d="M60.0273 289.509C59.978 289.512 61.2584 298.408 50.818 299.734C43.5903 300.652 39.5048 293.671 39.3417 293.704C40.0755 293.386 41.2854 292.84 41.623 292.638C42.9005 291.871 43.879 290.908 43.7942 288.673C43.7453 287.385 42.0754 281.085 41.9254 279.803L53.3516 280.001C53.7484 282.693 53.9535 289.081 57.9254 289.411C58.5847 289.465 59.2902 289.494 60.0273 289.509Z"
        fill="#E98862" />
    <path
        d="M55.0328 287.373C54.7486 286.86 54.5219 286.318 54.3567 285.756C53.9673 284.476 53.7202 283.158 53.6196 281.825C51.3374 281.98 49.0574 281.495 47.0387 280.427C46.9891 281.212 46.5434 284.69 46.9993 285.334C47.859 286.551 51.0548 288.182 55.0328 287.373Z"
        fill="#0C0C0C" />
    <path
        d="M52.1343 286.431C47.7222 286.658 42.1166 284.661 41.2009 278.801L40.3748 273.513C39.4588 267.653 41.8168 262.425 47.3746 261.568C52.9325 260.713 57.829 264.823 58.7449 270.684L59.1108 273.025C59.4622 275.273 60.0061 286.026 52.1343 286.431Z"
        fill="#E98862" />
    <path
        d="M54.1508 278.413H54.1615C54.3867 278.377 54.6097 278.329 54.8295 278.269C55.1579 278.176 55.589 278.018 55.5433 277.725C55.4911 277.391 54.0069 273.93 53.8376 273.537C53.8303 273.52 53.8197 273.504 53.8063 273.491C53.793 273.478 53.7772 273.468 53.7599 273.461C53.7425 273.454 53.724 273.451 53.7053 273.451C53.6866 273.451 53.6681 273.455 53.6509 273.462C53.6336 273.469 53.618 273.48 53.6049 273.493C53.5918 273.506 53.5815 273.522 53.5745 273.539C53.5675 273.556 53.5639 273.575 53.5641 273.593C53.5643 273.612 53.5681 273.63 53.5754 273.647C54.2087 275.122 55.2263 277.543 55.2616 277.768C55.2214 277.871 54.6757 278.05 54.117 278.136C54.0806 278.141 54.0477 278.161 54.0253 278.19C54.0029 278.219 53.9928 278.255 53.997 278.291C54.0013 278.328 54.0195 278.361 54.048 278.384C54.0765 278.407 54.1129 278.419 54.1496 278.416L54.1508 278.413Z"
        fill="#0C0C0C" />
    <path
        d="M53.2488 280.901C54.1537 280.815 55.0255 280.518 55.7938 280.036C55.8112 280.027 55.8266 280.015 55.839 280C55.8514 279.985 55.8606 279.968 55.866 279.949C55.8714 279.931 55.8728 279.911 55.8703 279.892C55.8678 279.873 55.8613 279.854 55.8513 279.838C55.8413 279.821 55.8279 279.807 55.812 279.796C55.7962 279.784 55.7782 279.777 55.7591 279.773C55.7401 279.769 55.7204 279.769 55.7013 279.772C55.6822 279.776 55.6641 279.784 55.6482 279.795C53.9876 280.793 52.3658 280.91 50.9596 280.133C50.9314 280.117 50.9022 280.102 50.8722 280.088C50.8373 280.074 50.7982 280.075 50.7636 280.09C50.729 280.105 50.7018 280.132 50.6878 280.167C50.6739 280.202 50.6744 280.241 50.6893 280.275C50.7041 280.309 50.7321 280.336 50.7671 280.35C50.7781 280.355 50.7962 280.365 50.8218 280.379C51.5606 280.789 52.4055 280.971 53.2488 280.901Z"
        fill="#0C0C0C" />
    <path
        d="M35.8948 275.199L40.8765 274.461C44.6765 273.078 46.0256 266.671 46.0256 266.671C46.0256 266.671 50.4333 271.228 61.5545 269.084C61.5545 269.084 59.8514 253.73 43.3967 257.637C38.0908 258.896 34.1417 264.033 34.3771 271.078C34.5417 276.016 35.8948 275.199 35.8948 275.199Z"
        fill="#0A0A0A" />
    <path
        d="M41.8252 280.533C40.1356 280.794 38.4867 279.21 38.2245 277.534C37.9623 275.857 39.1873 274.721 40.8755 274.461L41.9214 275.45L43.2766 280.309L41.8252 280.533Z"
        fill="#E98862" />
    <path
        d="M54.942 270.783C55.4422 270.486 56.0138 270.327 56.597 270.324C56.884 270.321 57.1699 270.36 57.445 270.441C57.7177 270.52 57.9793 270.633 58.2235 270.777C58.2559 270.797 58.2796 270.828 58.2898 270.864C58.3 270.9 58.2959 270.939 58.2783 270.972C58.2608 271.005 58.2311 271.031 58.1953 271.043C58.1595 271.055 58.1204 271.053 58.0859 271.038L58.0758 271.033C57.8495 270.913 57.6091 270.822 57.36 270.762C57.1138 270.701 56.8598 270.677 56.6066 270.692C56.1044 270.717 55.6178 270.874 55.1963 271.146L55.1826 271.155C55.1337 271.188 55.0736 271.2 55.0157 271.189C54.9577 271.177 54.9066 271.144 54.8735 271.095C54.8405 271.047 54.8283 270.987 54.8395 270.929C54.8508 270.872 54.8846 270.821 54.9336 270.788L54.942 270.783Z"
        fill="#0C0C0C" />
    <path
        d="M50.492 271.67C50.0078 271.535 49.4963 271.53 49.0095 271.655C48.763 271.716 48.5273 271.813 48.3103 271.944C48.0908 272.076 47.8888 272.234 47.709 272.415L47.7008 272.423C47.6871 272.437 47.6708 272.447 47.6528 272.455C47.6348 272.462 47.6155 272.466 47.596 272.466C47.5766 272.466 47.5573 272.462 47.5393 272.455C47.5213 272.448 47.5049 272.437 47.4911 272.423C47.4773 272.41 47.4664 272.393 47.4589 272.375C47.4514 272.358 47.4475 272.338 47.4475 272.319C47.4475 272.3 47.4513 272.281 47.4587 272.263C47.4661 272.245 47.4771 272.229 47.4908 272.215C47.6803 272.005 47.8956 271.82 48.1317 271.663C48.37 271.504 48.631 271.382 48.906 271.3C49.4633 271.129 50.0566 271.111 50.6234 271.248C50.6807 271.262 50.7299 271.298 50.7604 271.348C50.7908 271.398 50.7998 271.459 50.7855 271.515C50.7712 271.572 50.7348 271.621 50.6841 271.651C50.6335 271.682 50.5729 271.691 50.5156 271.676L50.5066 271.674L50.492 271.67Z"
        fill="#0C0C0C" />
    <path
        d="M53.3963 282.229C53.5602 282.216 53.7226 282.189 53.8819 282.149C53.9174 282.139 53.9475 282.116 53.9659 282.084C53.9844 282.052 53.9896 282.015 53.9806 281.979C53.9716 281.944 53.949 281.913 53.9177 281.894C53.8863 281.874 53.8486 281.868 53.8126 281.876C52.8542 282.116 52.3269 281.739 52.3041 281.723C52.2893 281.712 52.2723 281.703 52.2543 281.699C52.2362 281.694 52.2175 281.693 52.199 281.696C52.1806 281.698 52.1628 281.704 52.1467 281.714C52.1307 281.723 52.1167 281.736 52.1055 281.75C52.0828 281.78 52.073 281.818 52.0783 281.855C52.0835 281.892 52.1034 281.925 52.1334 281.948C52.509 282.184 52.9552 282.283 53.3963 282.229Z"
        fill="#0C0C0C" />
    <path
        d="M40.8889 274.399L40.8444 274.261C47.1952 272.231 45.8624 266.07 45.8481 266.008L45.9903 265.976C46.0045 266.039 47.3656 272.329 40.8889 274.399Z"
        fill="#0C0C0C" />
    <path opacity="0.1"
        d="M49.6845 278.696C50.4114 278.643 50.9685 278.17 50.929 277.641C50.8894 277.112 50.2681 276.726 49.5413 276.78C48.8144 276.833 48.2573 277.306 48.2968 277.835C48.3364 278.364 48.9577 278.75 49.6845 278.696Z"
        fill="#0C0C0C" />
    <path opacity="0.1"
        d="M57.4186 276.931C57.4596 277.459 58.0807 277.845 58.8076 277.792C58.9332 277.783 59.0575 277.76 59.1784 277.726C59.2402 277.1 59.2696 276.497 59.276 275.938C59.0778 275.88 58.8704 275.858 58.6643 275.875C57.9365 275.928 57.3795 276.4 57.4186 276.931Z"
        fill="#0C0C0C" />
    <path
        d="M57.4165 273.449C57.7991 273.449 58.1093 273.141 58.1093 272.761C58.1093 272.382 57.7991 272.074 57.4165 272.074C57.0339 272.074 56.7238 272.382 56.7238 272.761C56.7238 273.141 57.0339 273.449 57.4165 273.449Z"
        fill="#0C0C0C" />
    <path
        d="M50.5587 274.137C50.9413 274.137 51.2515 273.829 51.2515 273.449C51.2515 273.07 50.9413 272.762 50.5587 272.762C50.1761 272.762 49.866 273.07 49.866 273.449C49.866 273.829 50.1761 274.137 50.5587 274.137Z"
        fill="#0C0C0C" />
    <path
        d="M76.7955 306.255C77.2514 310.098 80.5402 333.986 81.1893 338.702L38.2743 347.432C37.1658 343.285 32.2897 325.157 29.6765 317.138C27.1825 309.486 24.8257 305.593 25.4299 301.879C26.1349 297.544 31.9011 295.808 35.637 294.509C37.9183 293.717 41.4005 292.774 41.4005 292.774C41.4005 292.774 42.9381 298.714 50.132 297.599C59.9251 296.08 57.8759 289.422 57.924 289.412C59.4951 289.094 67.3337 288.564 69.7962 289.41C76.5065 291.709 75.8307 298.11 76.7955 306.255Z"
        fill="#2E2E2E" />
    <path d="M77.2418 308.838L76.9534 308.88L79.1278 323.721L79.4162 323.679L77.2418 308.838Z" fill="#0C0C0C" />
    <path
        d="M21.764 370.135L7.73132 366.258C14.2234 343.099 24.7629 305.007 25.4064 301.389C25.3529 301.732 25.3298 302.078 25.3374 302.424L39.902 302.22C39.9224 303.644 39.9346 304.505 30.719 337.924C26.2947 353.97 21.8089 369.975 21.764 370.135Z"
        fill="#2E2E2E" />
    <path d="M36.0733 316.141L33.1317 329.295L33.4161 329.358L36.3577 316.203L36.0733 316.141Z" fill="#0C0C0C" />
    <path
        d="M67.339 342.6C67.339 342.6 105.605 322.974 116.204 319.344C118.95 318.403 123.967 317.538 128.267 320.034C141.096 327.481 174.973 357.802 174.973 357.802L166.743 370.01L121.99 338.192C121.99 338.192 100.547 353.379 81.1893 360.059L61.6498 357.767L67.339 342.6Z"
        fill="#262626" />
    <path
        d="M180.003 361.334C180.003 361.334 186.857 360.228 187.425 353.904C187.993 347.581 193.035 349.103 193.035 349.103L192.317 373.311L180.133 372.955L180.003 361.334Z"
        fill="#2E2E2E" />
    <path
        d="M55.204 372.969C55.204 372.969 53.1574 372.833 57.8043 372.985C75.138 373.552 183.976 373.269 183.976 373.269L184.031 357.06L55.2407 347.986L55.204 372.969Z"
        fill="#262626" />
    <path
        d="M101.501 351.337C101.495 351.337 101.489 351.337 101.482 351.337L88.7881 349.748C88.7498 349.743 88.7149 349.724 88.6913 349.693C88.6676 349.663 88.6571 349.625 88.6619 349.587C88.664 349.568 88.6699 349.549 88.6793 349.533C88.6886 349.516 88.7013 349.501 88.7164 349.49C88.7316 349.478 88.749 349.47 88.7676 349.465C88.7861 349.46 88.8055 349.459 88.8245 349.461L101.519 351.05C101.557 351.052 101.594 351.07 101.619 351.098C101.645 351.127 101.658 351.165 101.655 351.203C101.653 351.242 101.635 351.278 101.606 351.303C101.577 351.328 101.539 351.341 101.501 351.339V351.337Z"
        fill="white" />
    <path
        d="M173.86 356.377H173.849L143.348 354.232C143.309 354.229 143.273 354.211 143.248 354.182C143.223 354.153 143.21 354.116 143.213 354.077C143.216 354.039 143.233 354.004 143.263 353.978C143.292 353.953 143.33 353.941 143.368 353.943L173.87 356.089C173.889 356.089 173.908 356.094 173.925 356.102C173.942 356.109 173.958 356.121 173.971 356.135C173.984 356.148 173.994 356.165 174.001 356.183C174.008 356.2 174.011 356.219 174.01 356.238C174.009 356.257 174.005 356.276 173.997 356.293C173.989 356.311 173.978 356.326 173.964 356.339C173.95 356.352 173.933 356.362 173.915 356.369C173.898 356.375 173.878 356.379 173.859 356.378L173.86 356.377Z"
        fill="white" />
    <path
        d="M272.232 328.347C272.148 328.347 272.067 328.313 272.007 328.254C271.558 327.808 270.825 319.625 268.853 295.261C268.046 285.292 267.283 275.875 266.727 270.153C266.687 269.744 266.528 269.696 266.475 269.681C265.714 269.456 263.397 271.266 262.105 272.854C262.051 272.919 261.974 272.96 261.89 272.969C261.806 272.978 261.722 272.953 261.656 272.901C261.59 272.848 261.548 272.771 261.539 272.688C261.53 272.604 261.555 272.521 261.608 272.455C262.464 271.406 265.249 268.657 266.659 269.074C266.943 269.159 267.296 269.404 267.362 270.092C267.919 275.819 268.681 285.238 269.489 295.211C270.687 310.016 272.045 326.789 272.491 327.845C272.526 327.893 272.546 327.948 272.55 328.007C272.555 328.065 272.543 328.123 272.516 328.175C272.489 328.227 272.449 328.27 272.399 328.3C272.349 328.331 272.291 328.347 272.232 328.347Z"
        fill="#494949" />
    <path
        d="M265.908 280.653C271.199 276.443 272.953 269.889 269.825 266.015C266.697 262.141 259.872 262.414 254.581 266.624C249.289 270.835 247.536 277.389 250.664 281.263C253.791 285.137 260.616 284.864 265.908 280.653Z"
        fill="#C4C4EB" />
    <path opacity="0.2"
        d="M265.908 280.653C271.199 276.443 272.953 269.889 269.825 266.015C266.697 262.141 259.872 262.414 254.581 266.624C249.289 270.835 247.536 277.389 250.664 281.263C253.791 285.137 260.616 284.864 265.908 280.653Z"
        fill="white" />
    <path
        d="M252.147 282.248C252.117 282.248 252.087 282.24 252.061 282.224C252.036 282.208 252.015 282.184 252.002 282.157C251.99 282.13 251.985 282.1 251.989 282.07C251.992 282.04 252.005 282.012 252.024 281.989L267.104 263.936C267.117 263.92 267.134 263.906 267.152 263.897C267.171 263.887 267.191 263.881 267.212 263.879C267.233 263.877 267.254 263.879 267.274 263.885C267.294 263.892 267.312 263.902 267.328 263.915C267.345 263.928 267.358 263.945 267.368 263.963C267.377 263.981 267.383 264.001 267.385 264.022C267.387 264.043 267.385 264.064 267.379 264.084C267.373 264.103 267.363 264.122 267.349 264.138L252.269 282.191C252.254 282.209 252.236 282.223 252.214 282.233C252.193 282.243 252.17 282.248 252.147 282.248Z"
        fill="white" />
    <path
        d="M275.521 324.476C275.486 324.476 275.45 324.47 275.417 324.459C275.337 324.431 275.271 324.373 275.235 324.298C275.198 324.222 275.193 324.135 275.22 324.056L280.885 307.884C281.051 307.408 281.336 306.982 281.711 306.645C282.087 306.307 282.542 306.068 283.034 305.95C283.527 305.832 284.042 305.838 284.531 305.969C285.021 306.099 285.47 306.35 285.836 306.697L288.831 309.537C288.862 309.566 288.887 309.6 288.905 309.639C288.923 309.677 288.933 309.718 288.934 309.76C288.936 309.803 288.929 309.845 288.914 309.884C288.898 309.923 288.875 309.959 288.846 309.99C288.817 310.02 288.782 310.045 288.743 310.061C288.704 310.078 288.662 310.087 288.619 310.088C288.577 310.088 288.535 310.08 288.495 310.064C288.456 310.048 288.42 310.025 288.39 309.995L285.396 307.155C285.106 306.88 284.752 306.683 284.365 306.58C283.979 306.477 283.573 306.471 283.184 306.565C282.795 306.658 282.436 306.846 282.139 307.113C281.843 307.38 281.618 307.716 281.487 308.091L275.823 324.264C275.801 324.326 275.76 324.38 275.706 324.418C275.652 324.456 275.588 324.476 275.521 324.476Z"
        fill="#494949" />
    <path
        d="M297.198 318.491C301.119 315.409 300.886 308.632 296.677 303.353C292.469 298.075 285.878 296.293 281.957 299.375C278.035 302.456 278.268 309.233 282.477 314.512C286.686 319.791 293.276 321.572 297.198 318.491Z"
        fill="#C4C4EB" />
    <path
        d="M269.659 327.315C269.588 327.315 269.518 327.291 269.462 327.247C269.406 327.203 269.366 327.141 269.349 327.072L259.844 287.615C259.779 287.346 259.64 287.1 259.444 286.904C259.247 286.708 259 286.569 258.729 286.504C258.458 286.439 258.175 286.449 257.909 286.533C257.644 286.617 257.407 286.772 257.225 286.981L254.295 290.34C254.268 290.372 254.234 290.398 254.197 290.416C254.159 290.435 254.118 290.446 254.077 290.449C254.035 290.452 253.993 290.447 253.953 290.434C253.913 290.421 253.877 290.4 253.845 290.373C253.813 290.346 253.787 290.312 253.769 290.275C253.75 290.238 253.739 290.198 253.736 290.156C253.733 290.115 253.738 290.073 253.751 290.033C253.764 289.994 253.785 289.958 253.813 289.926L256.743 286.564C257.002 286.267 257.338 286.047 257.716 285.927C258.093 285.808 258.496 285.794 258.881 285.887C259.265 285.98 259.617 286.177 259.896 286.456C260.175 286.734 260.372 287.084 260.464 287.466L269.969 326.924C269.989 327.006 269.975 327.092 269.931 327.163C269.887 327.235 269.816 327.286 269.734 327.306C269.709 327.312 269.684 327.315 269.659 327.315Z"
        fill="#494949" />
    <path
        d="M266.153 299.109C267.309 292.475 264.251 286.411 259.323 285.565C254.395 284.719 249.463 289.411 248.308 296.045C247.152 302.679 250.21 308.742 255.138 309.588C260.066 310.435 264.998 305.743 266.153 299.109Z"
        fill="#C4C4EB" />
    <path
        d="M272.233 328.347C272.22 328.347 272.207 328.346 272.194 328.344C272.11 328.334 272.033 328.291 271.981 328.225C271.929 328.159 271.906 328.075 271.916 327.991L277.986 279.064C278.052 278.531 278.272 278.028 278.619 277.616C278.966 277.204 279.425 276.9 279.942 276.742C280.459 276.583 281.011 276.575 281.531 276.72C282.052 276.866 282.52 277.157 282.878 277.56L289.816 285.361C289.872 285.424 289.9 285.506 289.895 285.59C289.89 285.674 289.851 285.752 289.788 285.808C289.756 285.835 289.72 285.856 289.68 285.87C289.64 285.883 289.599 285.889 289.557 285.886C289.472 285.881 289.393 285.843 289.337 285.78L282.4 277.979C282.123 277.668 281.762 277.442 281.359 277.33C280.957 277.218 280.53 277.224 280.131 277.347C279.731 277.469 279.376 277.704 279.108 278.022C278.84 278.341 278.67 278.729 278.619 279.141L272.549 328.069C272.54 328.145 272.502 328.216 272.444 328.267C272.386 328.318 272.311 328.346 272.233 328.347Z"
        fill="#494949" />
    <path
        d="M296.931 289.696C299.352 285.351 296.504 279.188 290.57 275.929C284.636 272.67 277.863 273.551 275.443 277.895C273.022 282.24 275.87 288.403 281.804 291.662C287.738 294.921 294.511 294.04 296.931 289.696Z"
        fill="#C4C4EB" />
    <path opacity="0.2"
        d="M297.198 318.491C301.119 315.409 300.886 308.632 296.677 303.353C292.469 298.075 285.878 296.293 281.957 299.375C278.035 302.456 278.268 309.233 282.477 314.512C286.686 319.791 293.276 321.572 297.198 318.491Z"
        fill="white" />
    <path opacity="0.5"
        d="M266.153 299.109C267.309 292.475 264.251 286.411 259.323 285.565C254.395 284.719 249.463 289.411 248.308 296.045C247.152 302.679 250.21 308.742 255.138 309.588C260.066 310.435 264.998 305.743 266.153 299.109Z"
        fill="white" />
    <path opacity="0.5"
        d="M296.931 289.696C299.352 285.351 296.504 279.188 290.57 275.929C284.636 272.67 277.863 273.551 275.443 277.895C273.022 282.24 275.87 288.403 281.804 291.662C287.738 294.921 294.511 294.04 296.931 289.696Z"
        fill="white" />
    <path d="M279.996 369.861H264.469L261.895 320.539H282.569L279.996 369.861Z" fill="#292A2E" />
    <path opacity="0.3" d="M279.996 369.861H264.469L261.895 320.539H282.569L279.996 369.861Z" fill="white" />
    <path
        d="M297.197 318.648C297.173 318.648 297.15 318.642 297.128 318.632C297.106 318.622 297.087 318.606 297.072 318.588L281.831 299.471C281.818 299.455 281.808 299.436 281.802 299.416C281.796 299.396 281.795 299.376 281.797 299.355C281.8 299.334 281.806 299.314 281.816 299.296C281.826 299.278 281.84 299.262 281.857 299.249C281.873 299.236 281.892 299.227 281.912 299.221C281.932 299.215 281.953 299.214 281.974 299.216C281.995 299.218 282.015 299.225 282.033 299.235C282.051 299.245 282.068 299.259 282.081 299.275L297.322 318.391C297.341 318.415 297.353 318.443 297.356 318.472C297.359 318.502 297.354 318.532 297.341 318.558C297.328 318.585 297.307 318.608 297.282 318.623C297.257 318.639 297.227 318.648 297.197 318.648Z"
        fill="white" />
    <path
        d="M295.918 291.226C295.884 291.226 295.851 291.215 295.824 291.195L276.32 277.057C276.303 277.044 276.289 277.029 276.278 277.011C276.267 276.994 276.26 276.974 276.256 276.953C276.253 276.933 276.254 276.912 276.259 276.892C276.264 276.871 276.273 276.852 276.285 276.835C276.298 276.819 276.313 276.804 276.331 276.794C276.349 276.783 276.369 276.776 276.389 276.772C276.41 276.769 276.431 276.77 276.452 276.775C276.472 276.78 276.491 276.789 276.508 276.801L296.012 290.942C296.039 290.961 296.058 290.989 296.068 291.021C296.078 291.052 296.078 291.086 296.068 291.118C296.057 291.149 296.037 291.176 296.01 291.196C295.984 291.215 295.951 291.226 295.918 291.226Z"
        fill="white" />
    <path
        d="M254.346 309.382C254.332 309.382 254.318 309.38 254.304 309.376C254.264 309.366 254.229 309.339 254.208 309.303C254.186 309.266 254.181 309.223 254.192 309.183L260.4 286.088C260.412 286.048 260.438 286.014 260.475 285.993C260.511 285.972 260.554 285.966 260.595 285.976C260.636 285.987 260.671 286.013 260.692 286.05C260.713 286.086 260.719 286.129 260.708 286.17L254.501 309.264C254.492 309.298 254.472 309.328 254.444 309.349C254.416 309.371 254.381 309.382 254.346 309.382Z"
        fill="white" />
</svg>
