<svg width="293" height="230" viewBox="0 0 293 230" fill="none" xmlns="http://www.w3.org/2000/svg">
    <path opacity="0.08"
        d="M67.716 214.45C122.639 250.866 201.783 217.613 250.678 173.431C297.606 131.026 320.427 20.9142 235.735 2.89002C200.471 -4.61473 184.434 3.21194 158.464 18.1164C137.498 30.1492 108.689 24.4536 87.8538 13.6676C58.3926 -1.58332 22.0844 20.599 6.54005 54.0506C-12.503 95.0451 10.6825 176.633 67.716 214.45Z"
        fill="white" />
    <path opacity="0.1"
        d="M67.716 214.45C122.639 250.866 201.783 217.613 250.678 173.431C297.606 131.026 320.427 20.9142 235.735 2.89002C200.471 -4.61473 184.434 3.21194 158.464 18.1164C137.498 30.1492 108.689 24.4536 87.8538 13.6676C58.3926 -1.58332 22.0844 20.599 6.54004 54.0506C-12.503 95.0451 10.6825 176.633 67.716 214.45Z"
        fill="white" />
    <path
        d="M77.51 35.5004C77.51 35.5004 76.3101 53.5056 72.2598 60.0356C60.5981 78.8411 57.2196 99.9961 68.8975 111.049C80.5755 122.102 155.061 122.256 160.704 96.8334C165.455 75.4313 155.26 73.1298 152.779 55.4757C151.657 47.4869 148.569 30.7354 148.569 30.7354"
        fill="#0A0A0A" />
    <path
        d="M141.424 93.1109C141.296 93.0941 139.869 116.769 112.366 114.705C93.3253 113.278 86.5365 93.0756 86.1006 93.0756C88.1534 92.6391 91.6101 92.0048 92.5217 91.5186C95.5201 89.9073 99.2283 88.2312 100.196 82.4087C100.755 79.0554 99.8051 61.8852 100.099 58.4883L129.328 65.0122C128.919 72.1827 126.061 88.8068 136.079 91.7488C137.744 92.2356 139.539 92.6827 141.424 93.1109Z"
        fill="#E98862" />
    <path opacity="0.5"
        d="M129.735 84.9553C129.277 83.4799 128.983 81.9589 128.856 80.4193C128.535 76.906 128.599 73.368 129.047 69.8686C123.108 69.0668 117.512 66.615 112.896 62.792C112.354 64.7962 109.369 73.5539 110.195 75.4586C111.755 79.059 119.095 84.9553 129.735 84.9553Z"
        fill="#0C0C0C" />
    <path
        d="M125.956 77.5787C114.433 78.6964 99.5239 74.0845 96.4355 58.7397L93.6489 44.8938C90.5605 29.5489 96.1164 15.4867 110.564 12.5788C125.013 9.67262 138.315 19.9372 141.404 35.282L142.638 41.4136C143.823 47.2998 146.515 75.5896 125.956 77.5787Z"
        fill="#E98862" />
    <path
        d="M134.152 59.2278C130.408 61.1312 126.137 61.7331 122.013 60.9386C121.87 60.9116 121.722 60.9259 121.587 60.9797C121.452 61.0336 121.336 61.1247 121.251 61.2425C121.166 61.3602 121.116 61.4998 121.107 61.6448C121.098 61.7898 121.131 61.9343 121.202 62.0614C122.431 64.2282 125.347 67.9297 130.351 66.4207C133.581 65.446 134.802 62.1223 135.255 60.0667C135.286 59.9245 135.275 59.7765 135.225 59.64C135.175 59.5036 135.086 59.3843 134.971 59.2962C134.855 59.2081 134.716 59.1549 134.571 59.1428C134.426 59.1307 134.281 59.1602 134.152 59.2278Z"
        fill="white" />
    <path
        d="M134.386 42.5767C135.386 42.5767 136.196 41.7668 136.196 40.7676C136.196 39.7685 135.386 38.9585 134.386 38.9585C133.387 38.9585 132.577 39.7685 132.577 40.7676C132.577 41.7668 133.387 42.5767 134.386 42.5767Z"
        fill="#0C0C0C" />
    <path
        d="M117.003 45.6207C118.002 45.6207 118.812 44.8107 118.812 43.8116C118.812 42.8124 118.002 42.0024 117.003 42.0024C116.004 42.0024 115.194 42.8124 115.194 43.8116C115.194 44.8107 116.004 45.6207 117.003 45.6207Z"
        fill="#0C0C0C" />
    <path opacity="0.1"
        d="M118.632 57.4708C120.528 57.2446 121.931 55.9337 121.765 54.5428C121.599 53.1519 119.927 52.2078 118.031 52.4341C116.135 52.6603 114.732 53.9713 114.898 55.3621C115.064 56.753 116.736 57.6971 118.632 57.4708Z"
        fill="#0C0C0C" />
    <path opacity="0.1"
        d="M138.668 51.9104C138.836 53.2992 140.51 54.2421 142.406 54.0185C142.734 53.9792 143.057 53.906 143.369 53.8C143.458 52.144 143.463 50.5506 143.415 49.0757C142.888 48.9442 142.341 48.9122 141.803 48.9813C139.906 49.2054 138.504 50.5154 138.668 51.9104Z"
        fill="#0C0C0C" />
    <path opacity="0.5"
        d="M130.29 56.2028L130.318 56.1983C130.903 56.0763 131.482 55.922 132.05 55.7361C132.899 55.4522 134.006 54.9861 133.854 54.2187C133.679 53.3441 129.383 44.3923 128.896 43.3763C128.875 43.3309 128.846 43.2901 128.81 43.2562C128.773 43.2223 128.731 43.196 128.684 43.1789C128.637 43.1618 128.588 43.1543 128.538 43.1567C128.488 43.1591 128.44 43.1715 128.395 43.193C128.35 43.2146 128.31 43.2449 128.277 43.2822C128.244 43.3194 128.219 43.3629 128.203 43.4101C128.187 43.4572 128.181 43.5071 128.185 43.5566C128.189 43.6062 128.202 43.6546 128.225 43.6988C130.057 47.5109 133.006 53.7783 133.125 54.3674C133.032 54.6418 131.625 55.1778 130.172 55.4706C130.075 55.4863 129.988 55.5401 129.93 55.62C129.872 55.6999 129.849 55.7995 129.865 55.8968C129.88 55.9941 129.934 56.0812 130.014 56.1389C130.094 56.1966 130.193 56.2202 130.291 56.2045L130.29 56.2028Z"
        fill="#0C0C0C" />
    <path
        d="M82.1208 49.8642L95.0735 47.3341C104.858 43.2424 107.634 26.1902 107.634 26.1902C107.634 26.1902 119.709 37.6899 148.569 30.7356C148.569 30.7356 142.3 -9.55181 99.6861 2.67946C85.9458 6.62241 76.2127 20.6276 77.6603 39.1788C78.6746 52.1768 82.1208 49.8642 82.1208 49.8642Z"
        fill="#0A0A0A" />
    <path
        d="M98.2737 63.2345C93.8831 64.1181 89.3785 60.1371 88.4932 55.7454C87.6079 51.3536 90.6818 48.2166 95.0724 47.333L97.9272 49.8195L102.048 62.4733L98.2737 63.2345Z"
        fill="#E98862" />
    <path
        d="M132.01 36.2373C133.109 35.4604 134.393 34.9885 135.734 34.8697C136.406 34.8057 137.084 34.8434 137.746 34.9815C138.413 35.1178 139.061 35.3373 139.674 35.6349L139.693 35.6438C139.762 35.6759 139.84 35.6795 139.911 35.6539C139.982 35.6283 140.04 35.5755 140.072 35.5072C140.104 35.4388 140.108 35.3605 140.082 35.2895C140.056 35.2185 140.004 35.1606 139.935 35.1285C139.286 34.7857 138.595 34.526 137.881 34.3556C137.161 34.1806 136.42 34.1149 135.681 34.1605C134.183 34.2428 132.736 34.7254 131.489 35.5577C131.443 35.5893 131.403 35.6297 131.372 35.6766C131.341 35.7235 131.32 35.776 131.31 35.8311C131.299 35.8862 131.3 35.9429 131.311 35.9978C131.322 36.0527 131.344 36.1049 131.376 36.1513C131.408 36.1977 131.448 36.2374 131.495 36.2682C131.542 36.2989 131.594 36.3202 131.649 36.3307C131.705 36.3411 131.761 36.3407 131.816 36.3293C131.871 36.3179 131.923 36.2957 131.97 36.2642L131.98 36.2569L132.01 36.2373Z"
        fill="#0C0C0C" />
    <path
        d="M120.176 37.8725C118.705 37.5804 117.183 37.6881 115.767 38.1843C115.068 38.4253 114.409 38.7699 113.811 39.2066C113.217 39.6376 112.678 40.1418 112.21 40.7072C112.16 40.7631 112.134 40.8363 112.138 40.9109C112.142 40.9855 112.176 41.0556 112.231 41.1059C112.286 41.1563 112.359 41.1829 112.433 41.18C112.508 41.1772 112.579 41.145 112.63 41.0906L112.645 41.0749C113.097 40.5655 113.612 40.1148 114.176 39.7336C114.735 39.3525 115.348 39.0579 115.995 38.86C117.279 38.4573 118.646 38.4016 119.959 38.6985L119.991 38.7063C120.101 38.733 120.217 38.7149 120.314 38.6559C120.411 38.597 120.48 38.502 120.507 38.392C120.533 38.2819 120.515 38.1658 120.456 38.0691C120.397 37.9724 120.302 37.9031 120.192 37.8764L120.176 37.8725Z"
        fill="#0C0C0C" />
    <path
        d="M95.0824 47.1212C103.789 43.8796 106.679 37.8671 107.569 33.3927C108.144 30.4086 108.091 27.3371 107.41 24.375L107.141 24.4488C107.811 27.3724 107.863 30.4037 107.293 33.3485C106.414 37.7498 103.566 43.6661 94.9846 46.8596L95.0824 47.1212Z"
        fill="#0C0C0C" />
    <path
        d="M175.716 107.718L211.325 202.401L181.771 194.04L248.986 143.908L272.932 176.652L204.787 225.512C202.42 227.205 199.708 228.352 196.845 228.869C193.981 229.386 191.039 229.262 188.23 228.504C185.421 227.746 182.815 226.375 180.6 224.487C178.385 222.6 176.617 220.245 175.423 217.592L175.233 217.151L134.328 124.633L175.716 107.718Z"
        fill="#2E2E2E" />
    <path
        d="M111.852 108.784C92.7988 107.886 91.9968 91.7134 91.9968 91.7134C91.9968 91.7134 82.5561 92.3237 76.2803 93.1726C66.0057 94.5632 59.2275 98.0473 53.8331 103.441C48.8154 108.459 45.7605 113.888 48.9931 148.55C51.3338 173.647 49.6862 228.85 49.6862 228.85H164.677C164.677 228.85 171.573 156.494 172.534 145.196C174.369 123.629 181.881 111.473 171.381 100.363C163.766 92.3064 144.107 91.7134 136.194 91.7151C136.066 91.7139 137.8 110.007 111.852 108.784Z"
        fill="#2E2E2E" />
    <path
        d="M222.392 112.386C215.245 100.314 199.069 98.8639 186.997 106.014L186.232 106.489L185.719 105.663C178.331 93.7367 163.269 87.5162 151.342 94.9047C145.616 98.4529 141.533 104.131 139.992 110.689C138.451 117.248 139.579 124.15 143.127 129.877L167.671 168.651C168.468 169.908 169.726 170.803 171.176 171.14C172.626 171.478 174.151 171.232 175.42 170.455L214.375 146.631C219.872 143.06 223.775 137.502 225.269 131.12C226.763 124.738 225.732 118.025 222.392 112.386Z"
        fill="#2E2E2E" />
    <path opacity="0.6"
        d="M222.392 112.386C215.245 100.314 199.069 98.8639 186.997 106.014L186.232 106.489L185.719 105.663C178.331 93.7367 163.269 87.5162 151.342 94.9047C145.616 98.4529 141.533 104.131 139.992 110.689C138.451 117.248 139.579 124.15 143.127 129.877L167.671 168.651C168.468 169.908 169.726 170.803 171.176 171.14C172.626 171.478 174.151 171.232 175.42 170.455L214.375 146.631C219.872 143.06 223.775 137.502 225.269 131.12C226.763 124.738 225.732 118.025 222.392 112.386Z"
        fill="white" />
    <path
        d="M181.239 137.352C168.566 129.713 152.818 136.453 145.179 149.127L144.706 149.951L143.816 149.439C130.992 142.056 113.893 143.81 106.511 156.634C102.965 162.792 102.011 170.106 103.858 176.968C105.706 183.83 110.203 189.676 116.362 193.222L158.542 216.963C159.911 217.734 161.527 217.935 163.043 217.524C164.558 217.112 165.851 216.121 166.642 214.765L190.909 173.164C194.229 167.1 195.076 159.988 193.274 153.314C191.472 146.64 187.16 140.92 181.239 137.352Z"
        fill="#2E2E2E" />
    <path opacity="0.5"
        d="M181.239 137.352C168.566 129.713 152.818 136.453 145.179 149.127L144.706 149.951L143.816 149.439C130.992 142.056 113.893 143.81 106.511 156.634C102.965 162.792 102.011 170.106 103.858 176.968C105.706 183.83 110.203 189.676 116.362 193.222L158.542 216.963C159.911 217.734 161.527 217.935 163.043 217.524C164.558 217.112 165.851 216.121 166.642 214.765L190.909 173.164C194.229 167.1 195.076 159.988 193.274 153.314C191.472 146.64 187.16 140.92 181.239 137.352Z"
        fill="white" />
    <path
        d="M170.189 155.322C170.193 155.248 170.227 155.179 170.283 155.13C170.339 155.081 170.412 155.056 170.486 155.061C170.56 155.065 170.629 155.099 170.678 155.155C170.727 155.211 170.752 155.284 170.748 155.358L168.409 192.705C168.405 192.772 168.376 192.835 168.329 192.884C168.282 192.932 168.219 192.961 168.152 192.966C168.139 192.966 168.126 192.966 168.112 192.966C168.038 192.962 167.969 192.928 167.92 192.872C167.871 192.817 167.846 192.744 167.851 192.67"
        fill="#0C0C0C" />
    <path
        d="M257.36 151.97C257.389 151.559 257.502 151.159 257.691 150.794C257.88 150.429 258.142 150.105 258.46 149.844C258.778 149.584 259.146 149.39 259.541 149.276C259.937 149.162 260.351 149.13 260.759 149.181C261.546 149.308 262.255 149.729 262.743 150.358C263.232 150.988 263.463 151.779 263.39 152.573L263.098 156.653L269.087 145.663C269.823 144.266 271.619 143.02 273.132 143.949C274.405 144.619 276.804 144.254 277.689 145.936C277.704 145.941 282.327 162.311 281.645 163.61C278.752 169.11 269.022 172.776 262.838 172.161L253.104 171.186L257.36 151.97Z"
        fill="#E98862" />
    <g opacity="0.1">
        <path
            d="M257.36 151.97C257.389 151.559 257.502 151.159 257.691 150.794C257.88 150.429 258.142 150.105 258.46 149.844C258.778 149.584 259.146 149.39 259.541 149.276C259.937 149.162 260.351 149.13 260.759 149.181C261.546 149.308 262.255 149.729 262.743 150.358C263.232 150.988 263.463 151.779 263.39 152.573L263.098 156.653L269.087 145.663C269.823 144.266 271.619 143.02 273.132 143.949C274.405 144.619 276.804 144.254 277.689 145.936C277.704 145.941 282.327 162.311 281.645 163.61C278.752 169.11 269.022 172.776 262.838 172.161L253.104 171.186L257.36 151.97Z"
            fill="#0C0C0C" />
    </g>
    <path
        d="M268.019 139.529C256.841 125.389 235.995 126.324 221.855 137.502L220.961 138.239L220.165 137.274C208.708 123.358 188.456 118.031 174.541 129.491C171.233 132.216 168.493 135.566 166.479 139.35C164.465 143.133 163.216 147.277 162.803 151.543C162.391 155.809 162.822 160.115 164.074 164.215C165.325 168.315 167.372 172.127 170.097 175.436L208.019 220.586C209.25 222.05 211.006 222.972 212.911 223.153C214.815 223.333 216.714 222.757 218.197 221.55L263.698 184.511C270.082 179.019 274.097 171.272 274.902 162.889C275.707 154.506 273.241 146.136 268.019 139.529Z"
        fill="#C4C4EB" />
    <path
        d="M268.523 159.86C268.522 159.319 268.698 158.793 269.023 158.361C269.349 157.93 269.807 157.616 270.327 157.469C270.309 157.43 270.236 157.346 270.307 157.318L268.267 156.957C267.665 156.864 267.116 156.556 266.723 156.089C266.33 155.623 266.119 155.03 266.13 154.42C266.159 153.819 266.411 153.249 266.836 152.823C267.262 152.396 267.831 152.143 268.432 152.112C268.418 152.092 268.423 152.065 268.416 152.041L267.577 151.893C267.01 151.802 266.491 151.519 266.108 151.09C265.726 150.661 265.503 150.113 265.479 149.539C265.47 149.179 265.542 148.821 265.689 148.492C265.836 148.163 266.054 147.87 266.327 147.635C266.601 147.401 266.923 147.23 267.27 147.134C267.618 147.039 267.982 147.022 268.337 147.085L270.27 147.428C270.27 147.417 270.261 147.409 270.263 147.399C270.264 147.388 270.279 147.377 270.283 147.365C269.774 147.152 269.354 146.772 269.09 146.288C268.826 145.804 268.734 145.244 268.83 144.701C268.986 143.284 270.66 142.756 271.91 142.978L275.791 143.984C276.39 144.139 276.941 144.439 277.396 144.858C277.851 145.278 278.195 145.803 278.398 146.387C280.154 151.444 284.428 164.764 280.439 164.057L270.623 162.318C270.049 162.2 269.532 161.894 269.151 161.449C268.771 161.003 268.55 160.444 268.523 159.86Z"
        fill="#E98862" />
    <path
        d="M149.967 178.729L165.215 167.157C165.55 166.902 165.934 166.721 166.343 166.623C166.752 166.526 167.177 166.514 167.591 166.59C168.005 166.666 168.398 166.827 168.746 167.063C169.094 167.299 169.39 167.605 169.613 167.961C170.005 168.632 170.134 169.424 169.975 170.185C169.816 170.945 169.38 171.619 168.752 172.076L165.482 174.558L179.346 171.474C180.881 171.105 183.002 171.633 183.304 173.382C183.463 174.048 183.393 174.748 183.104 175.369C182.814 175.989 182.323 176.493 181.711 176.799C181.718 176.813 181.724 176.827 181.727 176.842C181.728 176.853 181.728 176.865 181.727 176.877L184.095 176.307C184.534 176.201 184.99 176.195 185.431 176.288C185.873 176.382 186.288 176.572 186.646 176.847C187.004 177.121 187.297 177.471 187.502 177.873C187.708 178.274 187.821 178.717 187.834 179.168C187.84 179.878 187.602 180.569 187.16 181.125C186.717 181.681 186.098 182.068 185.404 182.222L184.398 182.465C184.392 182.497 184.379 182.528 184.362 182.556C185.081 182.55 185.778 182.8 186.329 183.261C186.88 183.721 187.25 184.363 187.372 185.071C187.482 185.85 187.294 186.642 186.846 187.289C186.398 187.936 185.723 188.39 184.954 188.56L182.452 189.163C182.494 189.179 182.53 189.205 182.56 189.239C182.589 189.272 182.609 189.312 182.62 189.356C182.63 189.408 182.625 189.461 182.605 189.51C183.247 189.683 183.814 190.061 184.22 190.587C184.625 191.114 184.847 191.758 184.85 192.423C184.839 193.121 184.593 193.794 184.152 194.335C183.71 194.876 183.099 195.251 182.418 195.402L161.302 200.488C158.348 201.199 155.249 201.012 152.402 199.951C149.555 198.889 147.09 197.001 145.323 194.53C143.799 192.399 143.167 189.757 143.559 187.167C143.952 184.577 145.339 182.242 147.426 180.658L149.967 178.729Z"
        fill="#E98862" />
    <g opacity="0.2">
        <path
            d="M168.003 179.92C168.02 179.99 168.065 180.052 168.127 180.09C168.189 180.128 168.264 180.141 168.335 180.125L181.516 177.175C181.588 177.159 181.651 177.115 181.691 177.052C181.73 176.989 181.744 176.914 181.727 176.841C181.711 176.769 181.667 176.706 181.604 176.666C181.542 176.626 181.466 176.613 181.393 176.629L168.212 179.579C168.176 179.587 168.142 179.602 168.112 179.624C168.082 179.645 168.057 179.672 168.037 179.703C168.017 179.734 168.004 179.769 167.998 179.805C167.992 179.841 167.993 179.879 168.001 179.914L168.003 179.92Z"
            fill="#0C0C0C" />
    </g>
    <g opacity="0.2">
        <path
            d="M169.143 185.769C169.161 185.84 169.206 185.901 169.268 185.939C169.33 185.978 169.405 185.99 169.476 185.974L184.185 182.682C184.221 182.674 184.255 182.659 184.286 182.638C184.316 182.617 184.341 182.59 184.361 182.559C184.381 182.528 184.394 182.493 184.4 182.457C184.407 182.42 184.405 182.383 184.397 182.347C184.379 182.276 184.334 182.214 184.271 182.175C184.209 182.136 184.134 182.122 184.062 182.136L169.352 185.428C169.316 185.436 169.282 185.451 169.252 185.472C169.222 185.493 169.196 185.52 169.177 185.551C169.157 185.583 169.144 185.617 169.137 185.654C169.131 185.69 169.132 185.727 169.141 185.763L169.143 185.769Z"
            fill="#0C0C0C" />
    </g>
    <g opacity="0.2">
        <path
            d="M170.342 192.111C170.36 192.182 170.405 192.243 170.467 192.281C170.529 192.32 170.604 192.332 170.675 192.316L182.412 189.689C182.484 189.673 182.547 189.629 182.586 189.566C182.626 189.504 182.639 189.428 182.623 189.356C182.607 189.283 182.563 189.22 182.5 189.181C182.437 189.141 182.361 189.128 182.289 189.144L170.552 191.771C170.517 191.779 170.483 191.794 170.452 191.815C170.422 191.836 170.397 191.863 170.377 191.894C170.357 191.926 170.344 191.96 170.338 191.997C170.332 192.033 170.333 192.07 170.341 192.106L170.342 192.111Z"
            fill="#0C0C0C" />
    </g>
    <path
        d="M156.514 206.419L59.6104 228.447C56.3912 228.798 53.1346 228.397 50.0961 227.278C47.0576 226.158 44.3199 224.349 42.0978 221.994C39.8757 219.639 38.2296 216.8 37.2887 213.702C36.3477 210.603 36.1376 207.329 36.6747 204.135L47.7642 114.937C48.6864 109.455 51.7483 104.565 56.2764 101.341C60.8045 98.117 66.4278 96.8239 71.9093 97.7461C77.3908 98.6683 82.2814 101.73 85.5053 106.258C88.7292 110.786 90.0223 116.41 89.1001 121.891L83.7599 185.736L151.086 170.5L156.514 206.419Z"
        fill="#2E2E2E" />
    <path
        d="M70.1359 188.244C70.0618 188.25 69.9886 188.225 69.9323 188.177C69.8761 188.128 69.8415 188.059 69.8361 187.985C69.8307 187.911 69.8549 187.838 69.9035 187.782C69.9521 187.725 70.021 187.691 70.0951 187.685L83.5984 184.803C83.6347 184.797 83.6719 184.798 83.7077 184.806C83.7435 184.815 83.7772 184.831 83.8068 184.853C83.8364 184.875 83.8613 184.902 83.8801 184.934C83.8988 184.966 83.911 185.001 83.9159 185.037C83.9268 185.11 83.9082 185.185 83.8641 185.245C83.8201 185.304 83.7543 185.344 83.6811 185.355L70.1778 188.238C70.164 188.241 70.15 188.243 70.1359 188.244Z"
        fill="#0C0C0C" />
    <path
        d="M62.5178 228.85C62.4437 228.855 62.3707 228.83 62.3149 228.781C62.2591 228.732 62.225 228.663 62.2202 228.588C62.2154 228.514 62.2402 228.441 62.2892 228.386C62.3382 228.33 62.4074 228.296 62.4815 228.291L155.906 206.287L150.613 170.909L83.6885 185.359C83.6451 185.365 83.601 185.36 83.5597 185.346C83.5183 185.331 83.481 185.307 83.4506 185.276C83.4202 185.244 83.3976 185.206 83.3847 185.164C83.3717 185.123 83.3688 185.078 83.3761 185.035L87.1301 148.556C87.1357 148.52 87.1484 148.485 87.1678 148.454C87.1871 148.422 87.2125 148.395 87.2425 148.374C87.2726 148.352 87.3066 148.337 87.3426 148.329C87.3786 148.321 87.4158 148.321 87.452 148.327C87.5251 148.34 87.5903 148.38 87.6333 148.441C87.6762 148.501 87.6935 148.576 87.6812 148.649L83.9925 184.753L150.743 170.295C150.779 170.285 150.816 170.282 150.853 170.287C150.89 170.292 150.926 170.304 150.958 170.323C150.99 170.342 151.018 170.367 151.04 170.397C151.063 170.427 151.079 170.461 151.088 170.497L156.517 206.418C156.534 206.489 156.523 206.563 156.486 206.626C156.449 206.688 156.389 206.734 156.319 206.754L62.5541 228.847C62.5421 228.849 62.5299 228.85 62.5178 228.85Z"
        fill="#0C0C0C" />
    <path
        d="M276.791 66.136C273.102 59.9038 264.751 59.1555 258.519 62.8453L258.124 63.0906L257.859 62.6636C254.045 56.5069 246.269 53.2961 240.112 57.1099C237.156 58.9416 235.049 61.8724 234.253 65.2577C233.458 68.643 234.04 72.2056 235.871 75.162L248.542 95.1786C248.953 95.8279 249.603 96.2895 250.351 96.4639C251.1 96.6382 251.887 96.5112 252.543 96.1103L272.651 83.8114C275.488 81.968 277.503 79.0997 278.274 75.8058C279.045 72.5119 278.514 69.0473 276.791 66.136Z"
        fill="#C4C4EB" />
    <path opacity="0.2"
        d="M276.791 66.136C273.102 59.9038 264.751 59.1555 258.519 62.8453L258.124 63.0906L257.859 62.6636C254.045 56.5069 246.269 53.2961 240.112 57.1099C237.156 58.9416 235.049 61.8724 234.253 65.2577C233.458 68.643 234.04 72.2056 235.871 75.162L248.542 95.1786C248.953 95.8279 249.603 96.2895 250.351 96.4639C251.1 96.6382 251.887 96.5112 252.543 96.1103L272.651 83.8114C275.488 81.968 277.503 79.0997 278.274 75.8058C279.045 72.5119 278.514 69.0473 276.791 66.136Z"
        fill="white" />
    <path
        d="M221.72 7.35853C218.37 5.39739 214.261 7.21881 212.3 10.5693L212.179 10.7867L211.944 10.656C208.554 8.76245 204.075 9.27999 202.181 12.668C201.731 13.4739 201.443 14.3607 201.336 15.2777C201.228 16.1947 201.302 17.1239 201.554 18.0123C201.805 18.9007 202.229 19.7308 202.801 20.4552C203.374 21.1797 204.083 21.7843 204.89 22.2345L216.035 28.3202C216.397 28.5176 216.822 28.5649 217.218 28.4519C217.614 28.3388 217.95 28.0745 218.153 27.716L224.379 16.7205C225.229 15.1185 225.427 13.2498 224.932 11.5051C224.436 9.76039 223.286 8.27468 221.72 7.35853Z"
        fill="#2E2E2E" />
    <path opacity="0.5"
        d="M221.72 7.35853C218.37 5.39739 214.261 7.21881 212.3 10.5693L212.179 10.7867L211.944 10.656C208.554 8.76245 204.075 9.27999 202.181 12.668C201.731 13.4739 201.443 14.3607 201.336 15.2777C201.228 16.1947 201.302 17.1239 201.554 18.0123C201.805 18.9007 202.229 19.7308 202.801 20.4552C203.374 21.1797 204.083 21.7843 204.89 22.2345L216.035 28.3202C216.397 28.5176 216.822 28.5649 217.218 28.4519C217.614 28.3388 217.95 28.0745 218.153 27.716L224.379 16.7205C225.229 15.1185 225.427 13.2498 224.932 11.5051C224.436 9.76039 223.286 8.27468 221.72 7.35853Z"
        fill="white" />
    <path
        d="M274.774 229.409H28.1937C28.0454 229.409 27.9033 229.35 27.7985 229.245C27.6936 229.14 27.6348 228.998 27.6348 228.85C27.6348 228.702 27.6936 228.56 27.7985 228.455C27.9033 228.35 28.0454 228.291 28.1937 228.291H274.775C274.923 228.291 275.066 228.35 275.17 228.455C275.275 228.56 275.334 228.702 275.334 228.85C275.334 228.998 275.275 229.14 275.17 229.245C275.066 229.35 274.923 229.409 274.775 229.409H274.774Z"
        fill="#292A2E" />
</svg>
