<svg width="296" height="375" viewBox="0 0 296 375" fill="none" xmlns="http://www.w3.org/2000/svg">
    <path
        d="M235.277 0.475586H95.7766C84.2364 0.475586 74.8812 9.61639 74.8812 20.8921V341.311C74.8812 352.586 84.2364 361.727 95.7766 361.727H235.277C246.817 361.727 256.173 352.586 256.173 341.311V20.8921C256.173 9.61639 246.817 0.475586 235.277 0.475586Z"
        fill="#292A2E" />
    <path
        d="M235.211 6.85107H95.8423C87.918 6.85107 81.494 13.1278 81.494 20.8705V340.856C81.494 348.599 87.918 354.876 95.8423 354.876H235.211C243.136 354.876 249.56 348.599 249.56 340.856V20.8705C249.56 13.1278 243.136 6.85107 235.211 6.85107Z"
        fill="white" />
    <path
        d="M131.106 4.21533H199.946V11.1753C199.946 13.1712 199.135 15.0853 197.69 16.4967C196.246 17.9082 194.287 18.7014 192.245 18.7019H138.809C136.766 18.7019 134.807 17.9089 133.362 16.4974C131.917 15.0859 131.106 13.1715 131.106 11.1753V4.21533Z"
        fill="#292A2E" />
    <g opacity="0.15">
        <path
            d="M234.471 114.298H96.5819C94.6761 114.296 92.8489 113.555 91.5013 112.239C90.1537 110.922 89.3957 109.137 89.3935 107.275V36.2019C89.3957 34.3397 90.1537 32.5545 91.5013 31.2377C92.8489 29.921 94.6761 29.1803 96.5819 29.1782H234.471C236.377 29.1803 238.204 29.921 239.551 31.2377C240.899 32.5545 241.657 34.3397 241.659 36.2019V107.275C241.657 109.137 240.899 110.922 239.551 112.239C238.204 113.555 236.377 114.296 234.471 114.298ZM96.5819 30.1078C94.9285 30.1099 93.3434 30.7526 92.1744 31.8951C91.0053 33.0375 90.3477 34.5863 90.3458 36.2019V107.275C90.3476 108.89 91.0051 110.439 92.1742 111.582C93.3433 112.724 94.9285 113.367 96.5819 113.369H234.471C236.124 113.367 237.71 112.724 238.879 111.582C240.048 110.439 240.706 108.89 240.708 107.275V36.2019C240.706 34.5862 240.048 33.0372 238.879 31.8947C237.71 30.7523 236.124 30.1096 234.471 30.1078H96.5819Z"
            fill="#292A2E" />
    </g>
    <g opacity="0.43">
        <path
            d="M168.773 49.14C171.24 49.14 173.24 47.1859 173.24 44.7753C173.24 42.3648 171.24 40.4106 168.773 40.4106C166.306 40.4106 164.306 42.3648 164.306 44.7753C164.306 47.1859 166.306 49.14 168.773 49.14Z"
            fill="#2F2FBA" />
        <path
            d="M183.044 49.14C185.511 49.14 187.511 47.1859 187.511 44.7753C187.511 42.3648 185.511 40.4106 183.044 40.4106C180.576 40.4106 178.576 42.3648 178.576 44.7753C178.576 47.1859 180.576 49.14 183.044 49.14Z"
            fill="#2F2FBA" />
        <path
            d="M197.314 49.14C199.781 49.14 201.781 47.1859 201.781 44.7753C201.781 42.3648 199.781 40.4106 197.314 40.4106C194.847 40.4106 192.847 42.3648 192.847 44.7753C192.847 47.1859 194.847 49.14 197.314 49.14Z"
            fill="#2F2FBA" />
        <path
            d="M211.584 49.14C214.051 49.14 216.051 47.1859 216.051 44.7753C216.051 42.3648 214.051 40.4106 211.584 40.4106C209.117 40.4106 207.117 42.3648 207.117 44.7753C207.117 47.1859 209.117 49.14 211.584 49.14Z"
            fill="#2F2FBA" />
        <path
            d="M225.854 49.14C228.321 49.14 230.321 47.1859 230.321 44.7753C230.321 42.3648 228.321 40.4106 225.854 40.4106C223.387 40.4106 221.387 42.3648 221.387 44.7753C221.387 47.1859 223.387 49.14 225.854 49.14Z"
            fill="#2F2FBA" />
    </g>
    <g opacity="0.15">
        <path d="M230.321 58.2778H165.527V59.2074H230.321V58.2778Z" fill="#292A2E" />
    </g>
    <g opacity="0.15">
        <path d="M230.321 67.5728H165.527V68.5023H230.321V67.5728Z" fill="#292A2E" />
    </g>
    <g opacity="0.15">
        <path d="M199.947 76.8687H165.527V77.7982H199.947V76.8687Z" fill="#292A2E" />
    </g>
    <g opacity="0.15">
        <path d="M230.797 102.225H208.667V95.3389H230.797V102.225ZM209.619 101.295H229.845V96.2684H209.619V101.295Z" fill="#292A2E" />
    </g>
    <path d="M199.804 95.8027H178.626V101.759H199.804V95.8027Z" fill="#C4C4EB" />
    <path
        d="M148.585 52.7153C147.557 50.1461 144.141 48.5677 137.858 46.6379C137.659 46.5771 137.041 46.4293 136.416 46.2838C136.226 46.2395 136.028 46.2369 135.837 46.2763C135.645 46.3157 135.465 46.3961 135.31 46.5117C135.154 46.6273 135.026 46.7752 134.936 46.9447C134.846 47.1143 134.795 47.3012 134.788 47.4922C134.788 47.4922 134.027 50.7298 128.436 50.7298C121.824 50.7298 120.92 47.4922 120.92 47.4922C120.913 47.3012 120.862 47.1143 120.772 46.9447C120.682 46.7752 120.554 46.6273 120.399 46.5117C120.243 46.3961 120.063 46.3157 119.872 46.2763C119.68 46.2369 119.482 46.2395 119.292 46.2838C118.667 46.4293 118.049 46.5771 117.85 46.6379C111.567 48.5677 108.152 50.1461 107.124 52.7153C103.515 61.7319 98.0185 90.0905 98.0185 90.0905L106.204 92.1885L113.087 68.3921C114.07 71.9611 114.382 82.8624 114.382 82.8624H122.224H133.484H141.115C141.115 82.8624 141.638 71.9611 142.621 68.3921L149.504 92.1885L157.689 90.0905C157.689 90.0905 152.193 61.7319 148.585 52.7153Z"
        fill="#2F2FBA" />
    <path opacity="0.48"
        d="M148.585 52.7153C147.557 50.1461 144.141 48.5677 137.858 46.6379C137.659 46.5771 137.041 46.4293 136.416 46.2838C136.226 46.2395 136.028 46.2369 135.837 46.2763C135.645 46.3157 135.465 46.3961 135.31 46.5117C135.154 46.6273 135.026 46.7752 134.936 46.9447C134.846 47.1143 134.795 47.3012 134.788 47.4922C134.788 47.4922 134.027 50.7298 128.436 50.7298C121.824 50.7298 120.92 47.4922 120.92 47.4922C120.913 47.3012 120.862 47.1143 120.772 46.9447C120.682 46.7752 120.554 46.6273 120.399 46.5117C120.243 46.3961 120.063 46.3157 119.872 46.2763C119.68 46.2369 119.482 46.2395 119.292 46.2838C118.667 46.4293 118.049 46.5771 117.85 46.6379C111.567 48.5677 108.152 50.1461 107.124 52.7153C103.515 61.7319 98.0185 90.0905 98.0185 90.0905L106.204 92.1885L113.087 68.3921C114.07 71.9611 114.382 82.8624 114.382 82.8624H122.224H133.484H141.115C141.115 82.8624 141.638 71.9611 142.621 68.3921L149.504 92.1885L157.689 90.0905C157.689 90.0905 152.193 61.7319 148.585 52.7153Z"
        fill="white" />
    <g opacity="0.15">
        <path
            d="M234.471 214.379H96.5819C94.6762 214.377 92.8491 213.637 91.5015 212.32C90.1539 211.003 89.3958 209.218 89.3935 207.356V136.282C89.3959 134.421 90.1541 132.635 91.5017 131.319C92.8492 130.002 94.6763 129.262 96.5819 129.26H234.471C236.376 129.262 238.203 130.002 239.551 131.319C240.899 132.635 241.657 134.421 241.659 136.282V207.356C241.657 209.218 240.899 211.003 239.551 212.32C238.204 213.637 236.377 214.377 234.471 214.379ZM96.5819 130.189C94.9287 130.191 93.3437 130.834 92.1747 131.976C91.0057 133.119 90.348 134.667 90.3458 136.282V207.356C90.3477 208.972 91.0053 210.52 92.1744 211.663C93.3435 212.805 94.9285 213.448 96.5819 213.45H234.471C236.124 213.448 237.71 212.805 238.879 211.663C240.048 210.521 240.706 208.972 240.708 207.356V136.282C240.706 134.667 240.048 133.118 238.879 131.975C237.71 130.833 236.124 130.19 234.471 130.188L96.5819 130.189Z"
            fill="#292A2E" />
    </g>
    <g opacity="0.43">
        <path
            d="M168.773 149.221C171.24 149.221 173.24 147.266 173.24 144.856C173.24 142.445 171.24 140.491 168.773 140.491C166.306 140.491 164.306 142.445 164.306 144.856C164.306 147.266 166.306 149.221 168.773 149.221Z"
            fill="#2F2FBA" />
        <path
            d="M183.044 149.221C185.511 149.221 187.511 147.266 187.511 144.856C187.511 142.445 185.511 140.491 183.044 140.491C180.576 140.491 178.576 142.445 178.576 144.856C178.576 147.266 180.576 149.221 183.044 149.221Z"
            fill="#2F2FBA" />
        <path
            d="M197.314 149.221C199.781 149.221 201.781 147.266 201.781 144.856C201.781 142.445 199.781 140.491 197.314 140.491C194.847 140.491 192.847 142.445 192.847 144.856C192.847 147.266 194.847 149.221 197.314 149.221Z"
            fill="#2F2FBA" />
        <path
            d="M211.584 149.221C214.051 149.221 216.051 147.266 216.051 144.856C216.051 142.445 214.051 140.491 211.584 140.491C209.117 140.491 207.117 142.445 207.117 144.856C207.117 147.266 209.117 149.221 211.584 149.221Z"
            fill="#2F2FBA" />
        <path
            d="M225.854 149.221C228.321 149.221 230.321 147.266 230.321 144.856C230.321 142.445 228.321 140.491 225.854 140.491C223.387 140.491 221.387 142.445 221.387 144.856C221.387 147.266 223.387 149.221 225.854 149.221Z"
            fill="#2F2FBA" />
    </g>
    <g opacity="0.15">
        <path d="M230.321 158.358H165.527V159.287H230.321V158.358Z" fill="#292A2E" />
    </g>
    <g opacity="0.15">
        <path d="M230.321 167.653H165.527V168.583H230.321V167.653Z" fill="#292A2E" />
    </g>
    <g opacity="0.15">
        <path d="M199.947 176.949H165.527V177.879H199.947V176.949Z" fill="#292A2E" />
    </g>
    <g opacity="0.15">
        <path d="M230.797 202.305H208.667V195.419H230.797V202.305ZM209.619 201.375H229.845V196.348H209.619V201.375Z" fill="#292A2E" />
    </g>
    <path d="M199.804 195.884H178.626V201.84H199.804V195.884Z" fill="#C4C4EB" />
    <path opacity="0.48"
        d="M148.211 156.746C146.668 154.88 143.267 153.69 139.295 152.746C137.68 152.364 136.586 152.22 136.586 152.22C135.308 155.385 131.357 157.677 127.874 157.677H127.632C124.149 157.677 120.402 155.385 119.123 152.22C119.123 152.22 118.029 152.363 116.411 152.746C112.439 153.69 109.038 154.88 107.496 156.746C105.124 159.612 101.805 170.401 101.805 170.401L111.428 174.319C111.502 174.515 111.575 174.711 111.647 174.907C111.698 175.048 111.749 175.188 111.799 175.328C111.794 175.314 111.789 175.3 111.784 175.286C111.796 175.319 111.808 175.352 111.819 175.385C113.467 180.138 114.609 185.044 115.229 190.026C115.27 190.013 140.433 190.013 140.474 190.026C141.094 185.044 142.236 180.138 143.884 175.385C143.895 175.352 143.907 175.319 143.919 175.286C143.964 175.16 144.01 175.034 144.056 174.907C144.128 174.711 144.201 174.515 144.275 174.319L153.898 170.401C153.898 170.401 150.582 159.614 148.211 156.746Z"
        fill="white" />
    <path
        d="M148.211 156.746C146.668 154.88 143.267 153.69 139.295 152.746C137.68 152.364 136.586 152.22 136.586 152.22C135.308 155.385 131.357 157.677 127.874 157.677H127.632C124.149 157.677 120.402 155.385 119.123 152.22C119.123 152.22 118.029 152.363 116.411 152.746C112.439 153.69 109.038 154.88 107.496 156.746C105.124 159.612 101.805 170.401 101.805 170.401L111.428 174.319C111.502 174.515 111.575 174.711 111.647 174.907C111.698 175.048 111.749 175.188 111.799 175.328C111.794 175.314 111.789 175.3 111.784 175.286C111.796 175.319 111.808 175.352 111.819 175.385C113.467 180.138 114.609 185.044 115.229 190.026C115.27 190.013 140.433 190.013 140.474 190.026C141.094 185.044 142.236 180.138 143.884 175.385C143.895 175.352 143.907 175.319 143.919 175.286C143.964 175.16 144.01 175.034 144.056 174.907C144.128 174.711 144.201 174.515 144.275 174.319L153.898 170.401C153.898 170.401 150.582 159.614 148.211 156.746Z"
        fill="#2F2FBA" />
    <path opacity="0.48"
        d="M148.211 156.746C146.668 154.88 143.267 153.69 139.295 152.746C137.68 152.364 136.586 152.22 136.586 152.22C135.308 155.385 131.357 157.677 127.874 157.677H127.632C124.149 157.677 120.402 155.385 119.123 152.22C119.123 152.22 118.029 152.363 116.411 152.746C112.439 153.69 109.038 154.88 107.496 156.746C105.124 159.612 101.805 170.401 101.805 170.401L111.428 174.319C111.502 174.515 111.575 174.711 111.647 174.907C111.698 175.048 111.749 175.188 111.799 175.328C111.794 175.314 111.789 175.3 111.784 175.286C111.796 175.319 111.808 175.352 111.819 175.385C113.467 180.138 114.609 185.044 115.229 190.026C115.27 190.013 140.433 190.013 140.474 190.026C141.094 185.044 142.236 180.138 143.884 175.385C143.895 175.352 143.907 175.319 143.919 175.286C143.964 175.16 144.01 175.034 144.056 174.907C144.128 174.711 144.201 174.515 144.275 174.319L153.898 170.401C153.898 170.401 150.582 159.614 148.211 156.746Z"
        fill="white" />
    <g opacity="0.15">
        <path
            d="M234.471 313.065H96.5819C94.676 313.063 92.8489 312.322 91.5013 311.006C90.1537 309.689 89.3957 307.903 89.3935 306.041V234.969C89.3958 233.106 90.1539 231.321 91.5015 230.005C92.8491 228.688 94.6762 227.947 96.5819 227.945H234.471C236.377 227.947 238.204 228.688 239.551 230.005C240.899 231.321 241.657 233.106 241.659 234.969V306.041C241.657 307.903 240.899 309.689 239.551 311.006C238.204 312.322 236.377 313.063 234.471 313.065ZM96.5819 228.875C94.9284 228.877 93.3432 229.519 92.1739 230.662C91.0047 231.804 90.3469 233.353 90.3449 234.969V306.041C90.3466 307.657 91.0043 309.206 92.1736 310.349C93.3428 311.491 94.9282 312.134 96.5819 312.136H234.471C236.124 312.134 237.71 311.491 238.879 310.349C240.048 309.206 240.706 307.657 240.708 306.041V234.969C240.706 233.353 240.048 231.804 238.879 230.662C237.71 229.519 236.124 228.877 234.471 228.875H96.5819Z"
            fill="#292A2E" />
    </g>
    <g opacity="0.43">
        <path
            d="M168.773 247.906C171.24 247.906 173.24 245.952 173.24 243.541C173.24 241.131 171.24 239.177 168.773 239.177C166.306 239.177 164.306 241.131 164.306 243.541C164.306 245.952 166.306 247.906 168.773 247.906Z"
            fill="#2F2FBA" />
        <path
            d="M183.044 247.906C185.511 247.906 187.511 245.952 187.511 243.541C187.511 241.131 185.511 239.177 183.044 239.177C180.576 239.177 178.576 241.131 178.576 243.541C178.576 245.952 180.576 247.906 183.044 247.906Z"
            fill="#2F2FBA" />
        <path
            d="M197.314 247.906C199.781 247.906 201.781 245.952 201.781 243.541C201.781 241.131 199.781 239.177 197.314 239.177C194.847 239.177 192.847 241.131 192.847 243.541C192.847 245.952 194.847 247.906 197.314 247.906Z"
            fill="#2F2FBA" />
        <path
            d="M211.584 247.906C214.051 247.906 216.051 245.952 216.051 243.541C216.051 241.131 214.051 239.177 211.584 239.177C209.117 239.177 207.117 241.131 207.117 243.541C207.117 245.952 209.117 247.906 211.584 247.906Z"
            fill="#2F2FBA" />
        <path
            d="M225.854 247.906C228.321 247.906 230.321 245.952 230.321 243.541C230.321 241.131 228.321 239.177 225.854 239.177C223.387 239.177 221.387 241.131 221.387 243.541C221.387 245.952 223.387 247.906 225.854 247.906Z"
            fill="#2F2FBA" />
    </g>
    <g opacity="0.15">
        <path d="M230.321 257.044H165.527V257.973H230.321V257.044Z" fill="#292A2E" />
    </g>
    <g opacity="0.15">
        <path d="M230.321 266.339H165.527V267.269H230.321V266.339Z" fill="#292A2E" />
    </g>
    <g opacity="0.15">
        <path d="M199.947 275.635H165.527V276.564H199.947V275.635Z" fill="#292A2E" />
    </g>
    <g opacity="0.15">
        <path d="M230.797 300.991H208.667V294.104H230.797V300.991ZM209.619 300.061H229.845V295.034H209.619V300.061Z" fill="#292A2E" />
    </g>
    <path d="M199.804 294.569H178.626V300.525H199.804V294.569Z" fill="#C4C4EB" />
    <path opacity="0.48"
        d="M141.116 295.029C141.37 295.028 141.622 294.971 141.851 294.861C142.08 294.752 142.28 294.593 142.437 294.396C142.593 294.2 142.702 293.971 142.755 293.728C142.809 293.484 142.804 293.232 142.743 292.99C141.034 286.05 140.904 272.983 142.378 267.368L144.01 261.153L144.007 261.124C144.036 260.911 144.014 260.695 143.945 260.491C143.876 260.288 143.76 260.102 143.607 259.948C137.438 253.763 138.251 247.41 138.251 247.41H135.592C135.765 248.907 135.664 250.422 135.296 251.885C134.63 254.452 132.858 257.302 128.366 257.987C126.939 258.195 125.487 258.195 124.06 257.987C119.568 257.302 117.796 254.452 117.13 251.885C116.762 250.422 116.661 248.907 116.834 247.41H114.176C114.176 247.41 114.988 253.762 108.819 259.948C108.666 260.102 108.55 260.287 108.481 260.491C108.411 260.694 108.39 260.911 108.419 261.123L108.396 261.153L110.028 267.367C111.502 272.983 111.372 286.051 109.664 292.99C109.603 293.232 109.598 293.484 109.651 293.727C109.704 293.971 109.813 294.2 109.97 294.396C110.126 294.592 110.327 294.751 110.556 294.861C110.785 294.97 111.036 295.028 111.291 295.028L141.116 295.029Z"
        fill="white" />
    <path
        d="M141.116 295.029C141.37 295.028 141.622 294.971 141.851 294.861C142.08 294.752 142.28 294.593 142.437 294.396C142.593 294.2 142.702 293.971 142.755 293.728C142.809 293.484 142.804 293.232 142.743 292.99C141.034 286.05 140.904 272.983 142.378 267.368L144.01 261.153L144.007 261.124C144.036 260.911 144.014 260.695 143.945 260.491C143.876 260.288 143.76 260.102 143.607 259.948C137.438 253.763 138.251 247.41 138.251 247.41H135.592C135.765 248.907 135.664 250.422 135.296 251.885C134.63 254.452 132.858 257.302 128.366 257.987C126.939 258.195 125.487 258.195 124.06 257.987C119.568 257.302 117.796 254.452 117.13 251.885C116.762 250.422 116.661 248.907 116.834 247.41H114.176C114.176 247.41 114.988 253.762 108.819 259.948C108.666 260.102 108.55 260.287 108.481 260.491C108.411 260.694 108.39 260.911 108.419 261.123L108.396 261.153L110.028 267.367C111.502 272.983 111.372 286.051 109.664 292.99C109.603 293.232 109.598 293.484 109.651 293.727C109.704 293.971 109.813 294.2 109.97 294.396C110.126 294.592 110.327 294.751 110.556 294.861C110.785 294.97 111.036 295.028 111.291 295.028L141.116 295.029Z"
        fill="#2F2FBA" />
    <path opacity="0.48"
        d="M141.116 295.029C141.37 295.028 141.622 294.971 141.851 294.861C142.08 294.752 142.28 294.593 142.437 294.396C142.593 294.2 142.702 293.971 142.755 293.728C142.809 293.484 142.804 293.232 142.743 292.99C141.034 286.05 140.904 272.983 142.378 267.368L144.01 261.153L144.007 261.124C144.036 260.911 144.014 260.695 143.945 260.491C143.876 260.288 143.76 260.102 143.607 259.948C137.438 253.763 138.251 247.41 138.251 247.41H135.592C135.765 248.907 135.664 250.422 135.296 251.885C134.63 254.452 132.858 257.302 128.366 257.987C126.939 258.195 125.487 258.195 124.06 257.987C119.568 257.302 117.796 254.452 117.13 251.885C116.762 250.422 116.661 248.907 116.834 247.41H114.176C114.176 247.41 114.988 253.762 108.819 259.948C108.666 260.102 108.55 260.287 108.481 260.491C108.411 260.694 108.39 260.911 108.419 261.123L108.396 261.153L110.028 267.367C111.502 272.983 111.372 286.051 109.664 292.99C109.603 293.232 109.598 293.484 109.651 293.727C109.704 293.971 109.813 294.2 109.97 294.396C110.126 294.592 110.327 294.751 110.556 294.861C110.785 294.97 111.036 295.028 111.291 295.028L141.116 295.029Z"
        fill="white" />
    <path
        d="M268.481 358.251C268.481 358.251 267.032 365.59 259.998 366.001C252.963 366.411 254.489 371.885 254.489 371.885H281.369V358.763L268.481 358.251Z"
        fill="#2E2E2E" />
    <path
        d="M276.772 224.345C276.772 224.345 276.688 222.138 276.706 227.144C276.772 245.815 277.104 267.142 277.914 279.622C279.216 299.684 282.556 362.935 282.556 362.935L264.892 362.79L247.772 223.586L276.772 224.345Z"
        fill="#262626" />
    <path
        d="M256.826 246.362C256.826 246.362 256.093 259.912 255.959 263.093C255.645 270.449 255.536 278.066 255.536 286.702L252.752 264.063C252.752 264.063 254.788 256.969 256.826 246.362Z"
        fill="#0A0A0A" />
    <path
        d="M237.035 358.251C237.035 358.251 235.586 365.59 228.552 366.001C221.518 366.411 223.043 371.885 223.043 371.885H249.924V358.763L237.035 358.251Z"
        fill="#2E2E2E" />
    <path
        d="M228.483 225.796C228.483 225.796 226.918 289.609 227.147 292.728L233.716 362.452L251.088 362.765L249.395 290.205C249.395 290.205 250.589 270.19 255.539 251.604C258.071 242.065 259.595 232.297 260.087 222.454L228.483 225.796Z"
        fill="#262626" />
    <path d="M276.964 224.344L277.022 224.347C277.022 224.347 276.98 223.258 276.964 224.344Z" fill="#333333" />
    <path
        d="M225.996 190.376C226.361 194.558 228.132 220.646 228.483 225.797H276.754C277.027 221.151 278.251 200.838 279.285 191.754C280.272 183.085 282.209 178.745 280.789 176.183C278.47 171.994 272.131 169.574 267.809 169.002C265.17 168.653 261.201 168.403 261.201 168.403C261.201 168.403 260.864 175.045 252.849 175.415C241.94 175.917 242.668 168.402 242.614 168.402C240.847 168.402 230.555 169.214 228.28 170.926C224.302 173.919 225.223 181.513 225.996 190.376Z"
        fill="#2E2E2E" />
    <path
        d="M225.329 185.135C225.288 185.135 225.249 185.12 225.219 185.093C225.189 185.065 225.171 185.028 225.169 184.988L224.779 178.347C224.777 178.306 224.791 178.265 224.82 178.234C224.848 178.203 224.888 178.184 224.93 178.182C224.973 178.18 225.014 178.194 225.046 178.222C225.078 178.249 225.097 178.288 225.1 178.329L225.489 184.969C225.492 185.011 225.477 185.052 225.449 185.083C225.421 185.114 225.381 185.133 225.338 185.135L225.329 185.135Z"
        fill="#0C0C0C" />
    <path
        d="M287.189 225.522C288.608 225.522 290.007 225.186 291.265 224.544C292.524 223.902 293.605 222.973 294.417 221.835C295.229 220.697 295.747 219.384 295.928 218.008C296.109 216.632 295.947 215.234 295.456 213.932C294.957 212.611 283.266 182.362 281.041 176.757L264.561 183.281C265.813 186.432 270.346 198.377 273.989 208L267.937 207.357L266.032 224.478L286.235 225.471C286.552 225.505 286.87 225.522 287.189 225.522Z"
        fill="#2E2E2E" />
    <path
        d="M236.863 167.829C236.917 167.822 238.398 173.266 249.953 172.419C257.953 171.834 259.904 166.513 260.087 166.513C259.224 166.334 257.824 166.148 257.44 165.949C256.181 165.287 255.263 164.482 254.801 162.755C254.44 161.404 254.256 156.202 254.256 153.593L241.946 156.295C242.118 159.239 243.319 166.063 239.11 167.271C238.41 167.471 237.656 167.655 236.863 167.829Z"
        fill="#E98862" />
    <path
        d="M242.372 162.082C247.225 162.456 253.459 160.454 254.643 154.129L255.711 148.42C256.896 142.094 254.455 136.358 248.359 135.269C242.263 134.18 236.747 138.494 235.563 144.819L235.09 147.347C234.635 149.774 233.714 161.415 242.372 162.082Z"
        fill="#E98862" />
    <path
        d="M237.873 156.275C238.744 151.998 239.144 149.145 239.097 146.135C237.87 144.034 238.193 141.619 238.472 140.576C237.627 141.1 236.634 141.349 235.635 141.287C235.635 141.287 237.663 133.33 244.56 131.189C245.828 130.707 249.066 130.098 253.365 130.674C257.022 131.164 266.036 133.836 267.324 143.751V143.756C267.366 144.085 268.232 153.221 269.956 157.604C272.275 163.496 275.532 165.327 275.449 172.126C275.343 180.871 258.889 182.034 248.966 181.38C239.043 180.726 233.502 177.538 233.43 171.236C233.351 164.174 236.13 164.83 237.873 156.275Z"
        fill="#0A0A0A" />
    <path d="M277.784 191.929L276.598 225.792L276.918 225.802L278.104 191.939L277.784 191.929Z" fill="#0C0C0C" />
    <path
        d="M173.07 153.221L178.257 159.207L177.936 158.179C177.839 157.846 177.876 157.488 178.038 157.18C178.2 156.871 178.477 156.634 178.811 156.517C178.985 156.462 179.17 156.443 179.352 156.46C179.535 156.477 179.712 156.531 179.873 156.617C180.033 156.703 180.174 156.821 180.287 156.962C180.4 157.103 180.482 157.266 180.529 157.439L182.9 166.164C183.199 167.265 183.046 168.438 182.474 169.43C181.901 170.423 180.954 171.158 179.835 171.478C178.535 171.85 177.152 171.834 175.861 171.432C174.571 171.031 173.433 170.262 172.593 169.224L168.796 164.517C168.594 164.276 168.483 163.974 168.483 163.663C168.482 163.351 168.592 163.049 168.793 162.808C168.979 162.593 169.23 162.442 169.511 162.377C169.791 162.313 170.085 162.337 170.35 162.447C170.354 162.432 170.361 162.418 170.371 162.406C170.38 162.394 170.392 162.384 170.406 162.376C170.42 162.369 170.435 162.364 170.451 162.362C170.467 162.361 170.483 162.363 170.498 162.367L169.795 161.498C169.579 161.244 169.465 160.921 169.474 160.591C169.483 160.261 169.614 159.945 169.842 159.701C170.076 159.467 170.391 159.327 170.725 159.307C171.059 159.287 171.389 159.389 171.65 159.594C171.652 159.58 171.656 159.567 171.663 159.554L171.374 159.198C171.186 158.954 171.083 158.657 171.08 158.351C171.078 158.046 171.176 157.747 171.361 157.5C171.586 157.235 171.909 157.066 172.261 157.03C172.612 156.994 172.964 157.094 173.241 157.308L173.26 157.291L171.08 154.775C170.968 154.646 170.884 154.497 170.834 154.335C170.783 154.173 170.767 154.003 170.786 153.835C170.805 153.667 170.859 153.505 170.944 153.358C171.029 153.211 171.144 153.082 171.282 152.98C171.556 152.792 171.893 152.712 172.225 152.756C172.556 152.801 172.859 152.967 173.07 153.221Z"
        fill="#E98862" />
    <path opacity="0.2"
        d="M173.188 157.449C173.193 157.462 173.201 157.475 173.211 157.485L175.357 159.905C175.38 159.925 175.41 159.936 175.441 159.936C175.472 159.936 175.502 159.925 175.525 159.905C175.549 159.886 175.564 159.858 175.569 159.828C175.573 159.798 175.566 159.768 175.549 159.742L173.403 157.323C173.383 157.301 173.357 157.287 173.327 157.282C173.298 157.278 173.268 157.283 173.242 157.298C173.217 157.313 173.197 157.337 173.187 157.364C173.178 157.392 173.178 157.422 173.189 157.449H173.188Z"
        fill="#0C0C0C" />
    <path opacity="0.2"
        d="M171.653 159.651C171.658 159.664 171.666 159.676 171.675 159.687L173.347 161.6C173.37 161.619 173.399 161.63 173.43 161.629C173.46 161.629 173.49 161.619 173.513 161.599C173.536 161.58 173.551 161.553 173.556 161.524C173.561 161.495 173.555 161.464 173.539 161.439L171.867 159.526C171.847 159.505 171.821 159.492 171.792 159.488C171.763 159.484 171.734 159.49 171.709 159.505C171.684 159.519 171.664 159.542 171.654 159.568C171.644 159.595 171.643 159.624 171.652 159.651L171.653 159.651Z"
        fill="#0C0C0C" />
    <path opacity="0.2"
        d="M170.348 162.53C170.354 162.544 170.362 162.557 170.373 162.568L171.183 163.454C171.193 163.469 171.207 163.482 171.222 163.492C171.238 163.501 171.256 163.508 171.274 163.51C171.292 163.513 171.311 163.511 171.329 163.506C171.347 163.5 171.363 163.491 171.377 163.479C171.391 163.467 171.402 163.452 171.409 163.436C171.416 163.419 171.42 163.401 171.42 163.383C171.419 163.365 171.415 163.347 171.407 163.331C171.398 163.315 171.387 163.3 171.372 163.289L170.561 162.403C170.541 162.383 170.514 162.37 170.486 162.367C170.457 162.364 170.428 162.37 170.404 162.385C170.379 162.399 170.361 162.421 170.351 162.448C170.34 162.474 170.34 162.503 170.348 162.53Z"
        fill="#0C0C0C" />
    <path
        d="M198.675 209.587C197.042 209.587 195.437 209.174 194.016 208.389C192.594 207.604 191.404 206.473 190.562 205.106L169.573 171.035L185.799 161.491L201.756 187.392L228.281 170.926L239.518 185.648L203.801 208.114C202.272 209.075 200.493 209.587 198.675 209.587Z"
        fill="#2E2E2E" />
    <path
        d="M226.265 194.133C226.229 194.133 226.194 194.122 226.166 194.1C226.138 194.078 226.118 194.048 226.109 194.014C226.101 193.98 226.104 193.944 226.119 193.912C226.134 193.88 226.16 193.854 226.191 193.837L230.775 191.527C230.813 191.508 230.857 191.504 230.897 191.517C230.938 191.529 230.972 191.557 230.991 191.594C231.011 191.631 231.014 191.674 231.001 191.714C230.988 191.754 230.96 191.787 230.922 191.806L226.339 194.116C226.316 194.128 226.291 194.134 226.265 194.133Z"
        fill="#0C0C0C" />
    <path
        d="M59.842 295.856C59.6418 295.856 59.4499 295.778 59.3084 295.64C59.1668 295.502 59.0873 295.314 59.0873 295.118V289.357C59.0873 286.175 57.7937 283.124 55.4911 280.874C53.1885 278.624 50.0655 277.36 46.8092 277.36C43.5528 277.36 40.4298 278.624 38.1272 280.874C35.8246 283.124 34.531 286.175 34.531 289.357V295.118C34.531 295.314 34.4514 295.502 34.3098 295.64C34.1682 295.778 33.9761 295.856 33.7758 295.856C33.5756 295.856 33.3835 295.778 33.2419 295.64C33.1003 295.502 33.0207 295.314 33.0207 295.118V289.357C33.0103 287.581 33.3593 285.821 34.0476 284.178C34.7359 282.534 35.7499 281.04 37.0313 279.781C38.3126 278.522 39.8361 277.522 41.5142 276.84C43.1922 276.159 44.9916 275.808 46.8089 275.808C48.6263 275.808 50.4257 276.159 52.1037 276.84C53.7817 277.522 55.3052 278.522 56.5866 279.781C57.868 281.04 58.882 282.534 59.5703 284.178C60.2585 285.821 60.6075 287.581 60.5972 289.357V295.118C60.5972 295.314 60.5176 295.502 60.376 295.64C60.2344 295.778 60.0423 295.856 59.842 295.856Z"
        fill="#494945" />
    <path d="M77.7261 290.14H61.8383V373.924H77.7261V290.14Z" fill="#C4C4EB" />
    <path opacity="0.21" d="M77.7261 290.14H61.8383V373.924H77.7261V290.14Z" fill="#0A0A0A" />
    <path d="M61.8383 290.14H0V373.924H61.8383V290.14Z" fill="#C4C4EB" />
    <path
        d="M43.9529 295.856C43.7527 295.856 43.5608 295.778 43.4193 295.64C43.2777 295.502 43.1982 295.314 43.1982 295.118V289.357C43.208 287.775 42.8977 286.207 42.285 284.744C41.6723 283.28 40.7695 281.948 39.6283 280.827C38.4872 279.705 37.1303 278.815 35.6358 278.207C34.1413 277.6 32.5385 277.287 30.9198 277.287C29.3011 277.287 27.6984 277.6 26.2039 278.207C24.7093 278.815 23.3524 279.705 22.2113 280.827C21.0702 281.948 20.1673 283.28 19.5547 284.744C18.942 286.207 18.6316 287.775 18.6414 289.357V295.118C18.6439 295.217 18.6262 295.315 18.5893 295.406C18.5525 295.498 18.4973 295.581 18.4269 295.652C18.3566 295.722 18.2725 295.778 18.1797 295.816C18.0869 295.855 17.9872 295.874 17.8865 295.874C17.7858 295.874 17.6861 295.855 17.5933 295.816C17.5005 295.778 17.4164 295.722 17.3461 295.652C17.2757 295.581 17.2205 295.498 17.1837 295.406C17.1469 295.315 17.1291 295.217 17.1316 295.118V289.357C17.1212 287.581 17.4702 285.821 18.1585 284.178C18.8468 282.534 19.8608 281.04 21.1422 279.781C22.4235 278.522 23.947 277.522 25.6251 276.84C27.3031 276.159 29.1025 275.808 30.9198 275.808C32.7372 275.808 34.5366 276.159 36.2146 276.84C37.8926 277.522 39.4161 278.522 40.6975 279.781C41.9789 281.04 42.9929 282.534 43.6812 284.178C44.3694 285.821 44.7184 287.581 44.7081 289.357V295.118C44.7081 295.314 44.6285 295.502 44.4869 295.64C44.3453 295.778 44.1532 295.856 43.9529 295.856Z"
        fill="#494945" />
    <path opacity="0.11" d="M61.8383 290.14L69.7822 298.499L77.7257 290.14H61.8383Z" fill="#0A0A0A" />
    <path opacity="0.11" d="M61.8383 373.924L69.7822 365.564L77.7257 373.924H61.8383Z" fill="#0A0A0A" />
    <path d="M117.137 374.083H101.249L94.8184 310.465H110.706L117.137 374.083Z" fill="#8888D8" />
    <path opacity="0.21" d="M117.137 374.083H101.249L94.8184 310.465H110.706L117.137 374.083Z" fill="#0A0A0A" />
    <path d="M101.249 374.083H39.4111L45.8416 310.465H94.8184L101.249 374.083Z" fill="#8888D8" />
    <path
        d="M70.3307 336.496C68.52 336.496 66.7271 336.148 65.0542 335.47C63.3813 334.793 61.8613 333.801 60.581 332.55C59.3007 331.299 58.285 329.814 57.5922 328.179C56.8993 326.545 56.5427 324.793 56.5427 323.024V317.261C56.5403 317.163 56.558 317.065 56.5948 316.973C56.6317 316.882 56.6869 316.798 56.7572 316.728C56.8276 316.657 56.9116 316.601 57.0044 316.563C57.0972 316.525 57.1969 316.505 57.2976 316.505C57.3984 316.505 57.4981 316.525 57.5909 316.563C57.6837 316.601 57.7677 316.657 57.8381 316.728C57.9084 316.798 57.9636 316.882 58.0005 316.973C58.0373 317.065 58.055 317.163 58.0526 317.261V323.023C58.0526 326.204 59.3461 329.256 61.6487 331.506C63.9514 333.756 67.0744 335.019 70.3307 335.019C73.5871 335.019 76.7101 333.756 79.0127 331.506C81.3153 329.256 82.6089 326.204 82.6089 323.023V317.261C82.6089 317.066 82.6885 316.878 82.8301 316.739C82.9717 316.601 83.1638 316.523 83.3641 316.523C83.5643 316.523 83.7564 316.601 83.898 316.739C84.0396 316.878 84.1192 317.066 84.1192 317.261V323.023C84.1153 326.595 82.6613 330.019 80.0764 332.545C77.4914 335.071 73.9865 336.492 70.3307 336.496Z"
        fill="white" />
    <path opacity="0.08" d="M94.8184 310.465L103.59 318.824L110.706 310.465H94.8184Z" fill="#0A0A0A" />
    <path opacity="0.08" d="M101.249 374.083L108.345 365.723L117.137 374.083H101.249Z" fill="#0A0A0A" />
</svg>
